%TF.GenerationSoftware,KiCad,Pcbnew,(5.1.10)-1*%
%TF.CreationDate,2022-01-12T13:36:28-08:00*%
%TF.ProjectId,killswitch,6b696c6c-7377-4697-9463-682e6b696361,rev?*%
%TF.SameCoordinates,Original*%
%TF.FileFunction,Legend,Bot*%
%TF.FilePolarity,Positive*%
%FSLAX46Y46*%
G04 Gerber Fmt 4.6, Leading zero omitted, Abs format (unit mm)*
G04 Created by KiCad (PCBNEW (5.1.10)-1) date 2022-01-12 13:36:28*
%MOMM*%
%LPD*%
G01*
G04 APERTURE LIST*
%ADD10C,0.150000*%
%ADD11C,0.010000*%
G04 APERTURE END LIST*
D10*
X134691428Y-91059047D02*
X134691428Y-91820952D01*
X135000952Y-96591428D02*
X134239047Y-96591428D01*
X134620000Y-96972380D02*
X134620000Y-96210476D01*
X145160952Y-106751428D02*
X144399047Y-106751428D01*
X150240952Y-106751428D02*
X149479047Y-106751428D01*
X149860000Y-107132380D02*
X149860000Y-106370476D01*
X160400952Y-106751428D02*
X159639047Y-106751428D01*
X171830952Y-106751428D02*
X171069047Y-106751428D01*
X183260952Y-106751428D02*
X182499047Y-106751428D01*
X188340952Y-106751428D02*
X187579047Y-106751428D01*
X187960000Y-107132380D02*
X187960000Y-106370476D01*
X176910952Y-106751428D02*
X176149047Y-106751428D01*
X176530000Y-107132380D02*
X176530000Y-106370476D01*
X165480952Y-106751428D02*
X164719047Y-106751428D01*
X165100000Y-107132380D02*
X165100000Y-106370476D01*
X179624761Y-83002380D02*
X179624761Y-82002380D01*
X179624761Y-82383333D02*
X179529523Y-82335714D01*
X179339047Y-82335714D01*
X179243809Y-82383333D01*
X179196190Y-82430952D01*
X179148571Y-82526190D01*
X179148571Y-82811904D01*
X179196190Y-82907142D01*
X179243809Y-82954761D01*
X179339047Y-83002380D01*
X179529523Y-83002380D01*
X179624761Y-82954761D01*
X178815238Y-82335714D02*
X178577142Y-83002380D01*
X178339047Y-82335714D02*
X178577142Y-83002380D01*
X178672380Y-83240476D01*
X178720000Y-83288095D01*
X178815238Y-83335714D01*
X177958095Y-82907142D02*
X177910476Y-82954761D01*
X177958095Y-83002380D01*
X178005714Y-82954761D01*
X177958095Y-82907142D01*
X177958095Y-83002380D01*
X177958095Y-82383333D02*
X177910476Y-82430952D01*
X177958095Y-82478571D01*
X178005714Y-82430952D01*
X177958095Y-82383333D01*
X177958095Y-82478571D01*
X176767619Y-82716666D02*
X176291428Y-82716666D01*
X176862857Y-83002380D02*
X176529523Y-82002380D01*
X176196190Y-83002380D01*
X175862857Y-82907142D02*
X175815238Y-82954761D01*
X175862857Y-83002380D01*
X175910476Y-82954761D01*
X175862857Y-82907142D01*
X175862857Y-83002380D01*
X174720000Y-82002380D02*
X174053333Y-82002380D01*
X174720000Y-83002380D01*
X174053333Y-83002380D01*
X173672380Y-83002380D02*
X173672380Y-82002380D01*
X173243809Y-83002380D02*
X173243809Y-82478571D01*
X173291428Y-82383333D01*
X173386666Y-82335714D01*
X173529523Y-82335714D01*
X173624761Y-82383333D01*
X173672380Y-82430952D01*
X172339047Y-83002380D02*
X172339047Y-82478571D01*
X172386666Y-82383333D01*
X172481904Y-82335714D01*
X172672380Y-82335714D01*
X172767619Y-82383333D01*
X172339047Y-82954761D02*
X172434285Y-83002380D01*
X172672380Y-83002380D01*
X172767619Y-82954761D01*
X172815238Y-82859523D01*
X172815238Y-82764285D01*
X172767619Y-82669047D01*
X172672380Y-82621428D01*
X172434285Y-82621428D01*
X172339047Y-82573809D01*
X171862857Y-82335714D02*
X171862857Y-83002380D01*
X171862857Y-82430952D02*
X171815238Y-82383333D01*
X171720000Y-82335714D01*
X171577142Y-82335714D01*
X171481904Y-82383333D01*
X171434285Y-82478571D01*
X171434285Y-83002380D01*
X170529523Y-82335714D02*
X170529523Y-83145238D01*
X170577142Y-83240476D01*
X170624761Y-83288095D01*
X170720000Y-83335714D01*
X170862857Y-83335714D01*
X170958095Y-83288095D01*
X170529523Y-82954761D02*
X170624761Y-83002380D01*
X170815238Y-83002380D01*
X170910476Y-82954761D01*
X170958095Y-82907142D01*
X171005714Y-82811904D01*
X171005714Y-82526190D01*
X170958095Y-82430952D01*
X170910476Y-82383333D01*
X170815238Y-82335714D01*
X170624761Y-82335714D01*
X170529523Y-82383333D01*
X169005714Y-82002380D02*
X169005714Y-82716666D01*
X169053333Y-82859523D01*
X169148571Y-82954761D01*
X169291428Y-83002380D01*
X169386666Y-83002380D01*
X168529523Y-83002380D02*
X168529523Y-82335714D01*
X168529523Y-82002380D02*
X168577142Y-82050000D01*
X168529523Y-82097619D01*
X168481904Y-82050000D01*
X168529523Y-82002380D01*
X168529523Y-82097619D01*
X167624761Y-83002380D02*
X167624761Y-82478571D01*
X167672380Y-82383333D01*
X167767619Y-82335714D01*
X167958095Y-82335714D01*
X168053333Y-82383333D01*
X167624761Y-82954761D02*
X167720000Y-83002380D01*
X167958095Y-83002380D01*
X168053333Y-82954761D01*
X168100952Y-82859523D01*
X168100952Y-82764285D01*
X168053333Y-82669047D01*
X167958095Y-82621428D01*
X167720000Y-82621428D01*
X167624761Y-82573809D01*
X167148571Y-82335714D02*
X167148571Y-83002380D01*
X167148571Y-82430952D02*
X167100952Y-82383333D01*
X167005714Y-82335714D01*
X166862857Y-82335714D01*
X166767619Y-82383333D01*
X166720000Y-82478571D01*
X166720000Y-83002380D01*
X165815238Y-82335714D02*
X165815238Y-83145238D01*
X165862857Y-83240476D01*
X165910476Y-83288095D01*
X166005714Y-83335714D01*
X166148571Y-83335714D01*
X166243809Y-83288095D01*
X165815238Y-82954761D02*
X165910476Y-83002380D01*
X166100952Y-83002380D01*
X166196190Y-82954761D01*
X166243809Y-82907142D01*
X166291428Y-82811904D01*
X166291428Y-82526190D01*
X166243809Y-82430952D01*
X166196190Y-82383333D01*
X166100952Y-82335714D01*
X165910476Y-82335714D01*
X165815238Y-82383333D01*
X175981904Y-81732380D02*
X175981904Y-80732380D01*
X175886666Y-81351428D02*
X175600952Y-81732380D01*
X175600952Y-81065714D02*
X175981904Y-81446666D01*
X175172380Y-81732380D02*
X175172380Y-81065714D01*
X175172380Y-80732380D02*
X175220000Y-80780000D01*
X175172380Y-80827619D01*
X175124761Y-80780000D01*
X175172380Y-80732380D01*
X175172380Y-80827619D01*
X174553333Y-81732380D02*
X174648571Y-81684761D01*
X174696190Y-81589523D01*
X174696190Y-80732380D01*
X174029523Y-81732380D02*
X174124761Y-81684761D01*
X174172380Y-81589523D01*
X174172380Y-80732380D01*
X173696190Y-81684761D02*
X173600952Y-81732380D01*
X173410476Y-81732380D01*
X173315238Y-81684761D01*
X173267619Y-81589523D01*
X173267619Y-81541904D01*
X173315238Y-81446666D01*
X173410476Y-81399047D01*
X173553333Y-81399047D01*
X173648571Y-81351428D01*
X173696190Y-81256190D01*
X173696190Y-81208571D01*
X173648571Y-81113333D01*
X173553333Y-81065714D01*
X173410476Y-81065714D01*
X173315238Y-81113333D01*
X172934285Y-81065714D02*
X172743809Y-81732380D01*
X172553333Y-81256190D01*
X172362857Y-81732380D01*
X172172380Y-81065714D01*
X171791428Y-81732380D02*
X171791428Y-81065714D01*
X171791428Y-80732380D02*
X171839047Y-80780000D01*
X171791428Y-80827619D01*
X171743809Y-80780000D01*
X171791428Y-80732380D01*
X171791428Y-80827619D01*
X171458095Y-81065714D02*
X171077142Y-81065714D01*
X171315238Y-80732380D02*
X171315238Y-81589523D01*
X171267619Y-81684761D01*
X171172380Y-81732380D01*
X171077142Y-81732380D01*
X170315238Y-81684761D02*
X170410476Y-81732380D01*
X170600952Y-81732380D01*
X170696190Y-81684761D01*
X170743809Y-81637142D01*
X170791428Y-81541904D01*
X170791428Y-81256190D01*
X170743809Y-81160952D01*
X170696190Y-81113333D01*
X170600952Y-81065714D01*
X170410476Y-81065714D01*
X170315238Y-81113333D01*
X169886666Y-81732380D02*
X169886666Y-80732380D01*
X169458095Y-81732380D02*
X169458095Y-81208571D01*
X169505714Y-81113333D01*
X169600952Y-81065714D01*
X169743809Y-81065714D01*
X169839047Y-81113333D01*
X169886666Y-81160952D01*
D11*
%TO.C,G\u002A\u002A\u002A*%
G36*
X169409729Y-75611807D02*
G01*
X169407207Y-75631067D01*
X169404353Y-75660566D01*
X169401367Y-75698173D01*
X169398447Y-75741761D01*
X169397625Y-75755500D01*
X169379787Y-75974788D01*
X169352168Y-76191127D01*
X169315096Y-76403467D01*
X169268899Y-76610755D01*
X169213905Y-76811939D01*
X169150442Y-77005968D01*
X169078838Y-77191789D01*
X168999421Y-77368351D01*
X168912519Y-77534602D01*
X168818459Y-77689490D01*
X168774250Y-77754683D01*
X168674213Y-77886497D01*
X168565765Y-78009369D01*
X168449994Y-78122382D01*
X168327988Y-78224620D01*
X168200836Y-78315167D01*
X168069625Y-78393106D01*
X167943984Y-78453870D01*
X167892877Y-78475716D01*
X167851950Y-78492414D01*
X167818112Y-78504692D01*
X167788272Y-78513279D01*
X167759338Y-78518901D01*
X167728219Y-78522289D01*
X167691823Y-78524168D01*
X167647060Y-78525268D01*
X167640293Y-78525395D01*
X167578056Y-78527347D01*
X167526837Y-78531118D01*
X167483183Y-78537400D01*
X167443643Y-78546885D01*
X167404762Y-78560266D01*
X167363089Y-78578236D01*
X167352805Y-78583063D01*
X167288358Y-78617023D01*
X167233173Y-78654085D01*
X167182006Y-78697922D01*
X167164657Y-78714960D01*
X167140931Y-78738093D01*
X167120060Y-78755680D01*
X167098043Y-78770353D01*
X167070881Y-78784745D01*
X167034573Y-78801489D01*
X167030400Y-78803344D01*
X166989423Y-78821665D01*
X166944754Y-78841876D01*
X166902645Y-78861137D01*
X166877513Y-78872780D01*
X166808084Y-78905206D01*
X166799910Y-78857487D01*
X166781361Y-78790963D01*
X166749852Y-78729988D01*
X166706096Y-78675237D01*
X166650805Y-78627386D01*
X166584689Y-78587110D01*
X166508461Y-78555084D01*
X166467971Y-78542699D01*
X166445541Y-78537078D01*
X166423679Y-78532930D01*
X166399579Y-78530030D01*
X166370433Y-78528154D01*
X166333434Y-78527080D01*
X166285775Y-78526583D01*
X166264771Y-78526500D01*
X166211255Y-78526581D01*
X166169669Y-78527281D01*
X166137439Y-78528772D01*
X166111986Y-78531225D01*
X166090737Y-78534813D01*
X166072457Y-78539327D01*
X165994237Y-78566572D01*
X165924699Y-78601536D01*
X165864800Y-78643311D01*
X165815500Y-78690989D01*
X165777756Y-78743661D01*
X165752525Y-78800420D01*
X165741409Y-78853269D01*
X165739732Y-78882723D01*
X165742731Y-78905340D01*
X165751393Y-78928318D01*
X165751817Y-78929230D01*
X165766151Y-78957262D01*
X165779983Y-78976325D01*
X165797348Y-78991237D01*
X165811328Y-79000311D01*
X165843295Y-79012598D01*
X165879835Y-79015689D01*
X165914900Y-79009525D01*
X165932514Y-79001484D01*
X165950560Y-78986429D01*
X165971457Y-78961128D01*
X165996001Y-78924494D01*
X166024991Y-78875440D01*
X166025600Y-78874363D01*
X166058535Y-78825994D01*
X166096711Y-78786933D01*
X166137801Y-78759423D01*
X166151249Y-78753401D01*
X166188805Y-78743223D01*
X166235196Y-78737440D01*
X166285498Y-78736059D01*
X166334790Y-78739084D01*
X166378150Y-78746520D01*
X166399375Y-78753143D01*
X166450887Y-78778646D01*
X166489653Y-78809433D01*
X166515320Y-78845057D01*
X166527536Y-78885072D01*
X166527919Y-78915187D01*
X166521383Y-78946932D01*
X166506990Y-78973886D01*
X166482365Y-78999798D01*
X166465717Y-79013348D01*
X166449079Y-79024995D01*
X166430078Y-79035707D01*
X166406894Y-79046130D01*
X166377709Y-79056909D01*
X166340702Y-79068691D01*
X166294056Y-79082121D01*
X166235949Y-79097844D01*
X166203677Y-79106336D01*
X166134223Y-79124846D01*
X166076597Y-79141086D01*
X166028442Y-79155859D01*
X165987403Y-79169968D01*
X165951121Y-79184216D01*
X165917241Y-79199404D01*
X165888517Y-79213682D01*
X165822087Y-79254942D01*
X165767757Y-79303768D01*
X165725775Y-79359881D01*
X165696390Y-79423003D01*
X165693652Y-79431256D01*
X165685327Y-79468412D01*
X165680100Y-79514644D01*
X165678114Y-79564820D01*
X165679513Y-79613806D01*
X165684440Y-79656469D01*
X165687014Y-79668914D01*
X165705309Y-79723999D01*
X165732956Y-79780486D01*
X165766794Y-79832429D01*
X165787034Y-79857054D01*
X165827066Y-79901291D01*
X165810061Y-79982859D01*
X165804586Y-80010478D01*
X165800421Y-80035738D01*
X165797395Y-80061289D01*
X165795335Y-80089781D01*
X165794070Y-80123864D01*
X165793428Y-80166186D01*
X165793238Y-80219396D01*
X165793247Y-80242228D01*
X165793501Y-80302611D01*
X165794239Y-80351385D01*
X165795635Y-80391454D01*
X165797865Y-80425718D01*
X165801107Y-80457081D01*
X165805535Y-80488445D01*
X165809697Y-80513464D01*
X165844146Y-80677524D01*
X165891403Y-80847210D01*
X165903251Y-80884486D01*
X165915130Y-80919983D01*
X165929201Y-80960267D01*
X165944671Y-81003263D01*
X165960749Y-81046892D01*
X165976646Y-81089078D01*
X165991571Y-81127744D01*
X166004732Y-81160813D01*
X166015340Y-81186208D01*
X166022602Y-81201852D01*
X166025616Y-81205888D01*
X166024101Y-81198579D01*
X166018269Y-81180039D01*
X166008913Y-81152619D01*
X165996827Y-81118671D01*
X165988291Y-81095320D01*
X165944751Y-80968763D01*
X165905701Y-80838018D01*
X165872272Y-80707388D01*
X165845593Y-80581176D01*
X165831852Y-80499857D01*
X165828150Y-80465699D01*
X165825265Y-80419275D01*
X165823289Y-80362813D01*
X165822315Y-80298543D01*
X165822228Y-80267628D01*
X165822736Y-80200221D01*
X165824335Y-80144363D01*
X165827328Y-80097113D01*
X165832018Y-80055527D01*
X165838709Y-80016661D01*
X165847703Y-79977574D01*
X165854817Y-79951046D01*
X165862175Y-79924749D01*
X165925587Y-79956650D01*
X165972750Y-79978615D01*
X166017505Y-79995179D01*
X166063387Y-80007118D01*
X166113932Y-80015212D01*
X166172675Y-80020236D01*
X166224857Y-80022477D01*
X166280571Y-80023601D01*
X166325607Y-80023096D01*
X166363724Y-80020800D01*
X166398685Y-80016549D01*
X166412149Y-80014348D01*
X166501881Y-79992445D01*
X166582327Y-79959658D01*
X166653233Y-79916170D01*
X166714342Y-79862165D01*
X166765399Y-79797825D01*
X166799867Y-79736896D01*
X166821582Y-79681947D01*
X166832848Y-79630361D01*
X166833458Y-79584053D01*
X166823204Y-79544938D01*
X166821076Y-79540508D01*
X166795237Y-79504505D01*
X166761147Y-79479956D01*
X166720561Y-79467801D01*
X166684871Y-79467599D01*
X166660949Y-79472245D01*
X166640380Y-79481459D01*
X166621531Y-79496994D01*
X166602769Y-79520604D01*
X166582460Y-79554044D01*
X166558972Y-79599067D01*
X166555023Y-79607030D01*
X166533679Y-79649140D01*
X166516159Y-79680636D01*
X166500671Y-79704290D01*
X166485419Y-79722870D01*
X166470672Y-79737313D01*
X166426726Y-79769090D01*
X166376205Y-79790538D01*
X166316902Y-79802481D01*
X166290171Y-79804786D01*
X166215314Y-79803691D01*
X166148367Y-79791295D01*
X166089900Y-79767790D01*
X166040482Y-79733364D01*
X166022327Y-79715437D01*
X166004242Y-79694202D01*
X165990287Y-79675137D01*
X165983442Y-79662317D01*
X165983407Y-79662188D01*
X165985674Y-79647939D01*
X165996340Y-79625121D01*
X166013928Y-79595801D01*
X166036960Y-79562043D01*
X166063958Y-79525913D01*
X166093444Y-79489479D01*
X166123940Y-79454805D01*
X166153480Y-79424429D01*
X166165890Y-79412963D01*
X166177812Y-79403988D01*
X166191835Y-79396462D01*
X166210549Y-79389344D01*
X166236544Y-79381590D01*
X166272410Y-79372159D01*
X166301670Y-79364778D01*
X166385787Y-79342649D01*
X166457265Y-79321356D01*
X166517885Y-79300102D01*
X166569429Y-79278088D01*
X166613680Y-79254519D01*
X166652418Y-79228594D01*
X166687427Y-79199518D01*
X166702063Y-79185566D01*
X166743883Y-79138680D01*
X166773298Y-79092268D01*
X166792005Y-79043377D01*
X166797356Y-79019921D01*
X166802372Y-78998396D01*
X166807768Y-78983026D01*
X166810052Y-78979381D01*
X166818454Y-78974513D01*
X166837251Y-78965268D01*
X166863954Y-78952752D01*
X166896070Y-78938072D01*
X166931110Y-78922334D01*
X166966582Y-78906644D01*
X166999995Y-78892109D01*
X167028858Y-78879835D01*
X167050680Y-78870928D01*
X167062971Y-78866495D01*
X167064740Y-78866264D01*
X167064155Y-78873919D01*
X167059631Y-78888237D01*
X167054461Y-78911581D01*
X167052389Y-78942346D01*
X167053284Y-78974987D01*
X167057015Y-79003960D01*
X167062796Y-79022524D01*
X167086886Y-79054390D01*
X167119820Y-79077496D01*
X167157931Y-79090113D01*
X167197553Y-79090511D01*
X167204226Y-79089228D01*
X167225745Y-79083371D01*
X167243790Y-79075266D01*
X167260142Y-79063041D01*
X167276585Y-79044820D01*
X167294903Y-79018729D01*
X167316881Y-78982894D01*
X167334873Y-78951918D01*
X167378316Y-78887948D01*
X167427795Y-78836633D01*
X167482907Y-78798310D01*
X167543250Y-78773317D01*
X167549285Y-78771636D01*
X167580927Y-78766066D01*
X167621324Y-78762971D01*
X167664922Y-78762416D01*
X167706164Y-78764464D01*
X167739494Y-78769176D01*
X167740788Y-78769468D01*
X167803706Y-78791260D01*
X167860942Y-78825898D01*
X167911782Y-78872593D01*
X167955511Y-78930553D01*
X167991417Y-78998986D01*
X168018784Y-79077103D01*
X168018882Y-79077457D01*
X168024390Y-79098894D01*
X168028483Y-79119426D01*
X168031363Y-79141724D01*
X168033230Y-79168460D01*
X168034289Y-79202305D01*
X168034741Y-79245932D01*
X168034802Y-79287914D01*
X168034681Y-79339382D01*
X168034226Y-79379022D01*
X168033190Y-79409517D01*
X168031322Y-79433555D01*
X168028377Y-79453818D01*
X168024105Y-79472994D01*
X168018259Y-79493766D01*
X168014706Y-79505469D01*
X167994247Y-79564012D01*
X167971520Y-79611910D01*
X167944494Y-79653032D01*
X167924861Y-79676630D01*
X167874351Y-79722614D01*
X167816536Y-79756211D01*
X167751180Y-79777518D01*
X167678051Y-79786632D01*
X167661771Y-79787006D01*
X167585903Y-79781748D01*
X167518443Y-79764774D01*
X167459117Y-79735893D01*
X167407653Y-79694913D01*
X167363776Y-79641643D01*
X167327213Y-79575890D01*
X167313312Y-79542800D01*
X167293478Y-79495699D01*
X167274345Y-79461194D01*
X167254128Y-79437582D01*
X167231039Y-79423161D01*
X167203291Y-79416227D01*
X167179148Y-79414914D01*
X167133408Y-79420631D01*
X167096773Y-79437305D01*
X167069720Y-79464226D01*
X167052724Y-79500679D01*
X167046261Y-79545954D01*
X167050807Y-79599336D01*
X167051928Y-79605305D01*
X167073517Y-79678423D01*
X167108124Y-79748156D01*
X167154395Y-79813140D01*
X167210975Y-79872012D01*
X167276510Y-79923408D01*
X167349644Y-79965964D01*
X167429023Y-79998317D01*
X167448180Y-80004217D01*
X167469262Y-80009962D01*
X167488964Y-80014209D01*
X167509986Y-80017169D01*
X167535029Y-80019054D01*
X167566792Y-80020076D01*
X167607975Y-80020446D01*
X167654514Y-80020400D01*
X167719368Y-80019587D01*
X167772778Y-80017217D01*
X167817783Y-80012694D01*
X167857423Y-80005424D01*
X167894735Y-79994812D01*
X167932760Y-79980260D01*
X167974535Y-79961176D01*
X167986441Y-79955370D01*
X168057428Y-79912570D01*
X168122860Y-79857404D01*
X168181727Y-79791293D01*
X168233016Y-79715656D01*
X168275716Y-79631914D01*
X168308814Y-79541487D01*
X168324414Y-79481114D01*
X168332007Y-79434740D01*
X168337287Y-79378466D01*
X168340227Y-79316239D01*
X168340802Y-79252004D01*
X168338986Y-79189707D01*
X168334755Y-79133293D01*
X168328082Y-79086707D01*
X168327002Y-79081430D01*
X168298570Y-78978385D01*
X168259490Y-78884728D01*
X168209991Y-78800764D01*
X168150302Y-78726799D01*
X168080652Y-78663137D01*
X168001271Y-78610083D01*
X167954802Y-78586121D01*
X167932180Y-78575173D01*
X167916182Y-78566732D01*
X167909925Y-78562453D01*
X167909970Y-78562303D01*
X167917065Y-78558896D01*
X167934928Y-78550873D01*
X167961001Y-78539367D01*
X167992727Y-78525515D01*
X167998749Y-78522900D01*
X168145289Y-78451434D01*
X168285797Y-78366961D01*
X168420064Y-78269773D01*
X168547879Y-78160157D01*
X168669032Y-78038404D01*
X168783311Y-77904804D01*
X168890507Y-77759645D01*
X168990410Y-77603219D01*
X169082808Y-77435814D01*
X169167491Y-77257720D01*
X169244249Y-77069228D01*
X169312872Y-76870626D01*
X169373149Y-76662204D01*
X169385622Y-76613657D01*
X169435534Y-76393676D01*
X169475757Y-76170861D01*
X169505363Y-75950469D01*
X169509301Y-75913343D01*
X169513440Y-75873976D01*
X169517260Y-75839992D01*
X169520462Y-75813875D01*
X169522748Y-75798111D01*
X169523598Y-75794597D01*
X169530369Y-75797245D01*
X169549621Y-75805582D01*
X169580626Y-75819282D01*
X169622659Y-75838015D01*
X169674992Y-75861455D01*
X169736898Y-75889273D01*
X169807649Y-75921142D01*
X169886519Y-75956733D01*
X169972781Y-75995719D01*
X170065708Y-76037772D01*
X170164572Y-76082564D01*
X170268647Y-76129768D01*
X170377206Y-76179055D01*
X170489521Y-76230097D01*
X170509314Y-76239097D01*
X170622277Y-76290449D01*
X170731651Y-76340135D01*
X170836704Y-76387823D01*
X170936706Y-76433184D01*
X171030926Y-76475887D01*
X171118634Y-76515602D01*
X171199099Y-76551999D01*
X171271591Y-76584748D01*
X171335379Y-76613518D01*
X171389733Y-76637980D01*
X171433921Y-76657802D01*
X171467215Y-76672655D01*
X171488882Y-76682209D01*
X171498192Y-76686133D01*
X171498492Y-76686217D01*
X171502180Y-76679566D01*
X171509119Y-76660982D01*
X171518636Y-76632504D01*
X171530056Y-76596172D01*
X171542707Y-76554025D01*
X171547016Y-76539259D01*
X171559962Y-76495195D01*
X171571861Y-76455828D01*
X171582036Y-76423311D01*
X171589809Y-76399793D01*
X171594501Y-76387429D01*
X171595218Y-76386204D01*
X171601974Y-76389150D01*
X171620715Y-76398991D01*
X171650842Y-76415387D01*
X171691758Y-76437999D01*
X171742864Y-76466490D01*
X171803561Y-76500520D01*
X171873251Y-76539750D01*
X171951335Y-76583843D01*
X172037215Y-76632460D01*
X172130291Y-76685261D01*
X172229967Y-76741909D01*
X172335642Y-76802065D01*
X172446718Y-76865389D01*
X172562598Y-76931545D01*
X172682682Y-77000192D01*
X172806371Y-77070992D01*
X172861951Y-77102836D01*
X172987021Y-77174490D01*
X173108726Y-77244171D01*
X173226466Y-77311538D01*
X173339646Y-77376251D01*
X173447668Y-77437971D01*
X173549935Y-77496356D01*
X173645849Y-77551068D01*
X173734814Y-77601766D01*
X173816232Y-77648109D01*
X173889506Y-77689759D01*
X173954039Y-77726374D01*
X174009233Y-77757616D01*
X174054492Y-77783143D01*
X174089218Y-77802616D01*
X174112815Y-77815695D01*
X174124684Y-77822039D01*
X174126038Y-77822609D01*
X174123656Y-77815663D01*
X174115856Y-77796429D01*
X174103069Y-77765900D01*
X174085722Y-77725073D01*
X174064243Y-77674945D01*
X174039061Y-77616510D01*
X174010606Y-77550764D01*
X173979304Y-77478703D01*
X173945585Y-77401324D01*
X173909877Y-77319621D01*
X173893386Y-77281963D01*
X173856978Y-77198740D01*
X173822413Y-77119458D01*
X173790117Y-77045104D01*
X173760511Y-76976667D01*
X173734021Y-76915135D01*
X173711069Y-76861496D01*
X173692079Y-76816739D01*
X173677474Y-76781852D01*
X173667680Y-76757822D01*
X173663118Y-76745640D01*
X173662889Y-76744286D01*
X173675888Y-76746543D01*
X173700985Y-76752968D01*
X173736542Y-76763040D01*
X173780920Y-76776240D01*
X173832483Y-76792047D01*
X173889591Y-76809942D01*
X173950606Y-76829403D01*
X174013890Y-76849912D01*
X174077805Y-76870948D01*
X174140713Y-76891990D01*
X174200976Y-76912519D01*
X174256954Y-76932015D01*
X174280285Y-76940303D01*
X174477432Y-77012539D01*
X174671456Y-77087165D01*
X174864452Y-77165088D01*
X175058515Y-77247214D01*
X175255739Y-77334452D01*
X175458219Y-77427707D01*
X175668048Y-77527887D01*
X175887322Y-77635899D01*
X175891371Y-77637922D01*
X176104830Y-77745976D01*
X176307052Y-77851289D01*
X176500688Y-77955339D01*
X176688389Y-78059604D01*
X176872806Y-78165561D01*
X177056588Y-78274690D01*
X177242388Y-78388469D01*
X177286217Y-78415783D01*
X177472748Y-78532396D01*
X177414794Y-78549128D01*
X177335176Y-78578047D01*
X177260918Y-78616666D01*
X177193657Y-78663579D01*
X177135033Y-78717381D01*
X177086682Y-78776668D01*
X177050242Y-78840034D01*
X177036831Y-78873300D01*
X177028510Y-78906963D01*
X177024464Y-78944321D01*
X177024783Y-78980454D01*
X177029558Y-79010442D01*
X177034110Y-79022524D01*
X177058474Y-79054743D01*
X177091737Y-79077861D01*
X177130336Y-79090217D01*
X177170711Y-79090151D01*
X177176630Y-79088983D01*
X177202647Y-79080986D01*
X177224247Y-79068443D01*
X177244194Y-79048885D01*
X177265255Y-79019839D01*
X177279405Y-78997112D01*
X177317849Y-78936138D01*
X177353108Y-78887242D01*
X177386840Y-78848817D01*
X177420704Y-78819257D01*
X177456360Y-78796959D01*
X177495466Y-78780316D01*
X177507543Y-78776363D01*
X177556553Y-78765913D01*
X177612136Y-78761606D01*
X177668380Y-78763464D01*
X177719370Y-78771508D01*
X177734025Y-78775520D01*
X177797221Y-78802564D01*
X177853184Y-78841719D01*
X177901456Y-78892259D01*
X177941578Y-78953458D01*
X177973091Y-79024591D01*
X177995536Y-79104930D01*
X178008453Y-79193750D01*
X178009804Y-79211714D01*
X178012006Y-79315639D01*
X178004782Y-79410181D01*
X177988359Y-79494996D01*
X177962967Y-79569739D01*
X177928833Y-79634065D01*
X177886183Y-79687628D01*
X177835248Y-79730086D01*
X177776253Y-79761092D01*
X177709428Y-79780302D01*
X177634999Y-79787370D01*
X177629457Y-79787401D01*
X177554356Y-79781449D01*
X177487327Y-79763516D01*
X177428210Y-79733488D01*
X177376844Y-79691248D01*
X177333067Y-79636683D01*
X177296719Y-79569677D01*
X177285104Y-79541666D01*
X177265251Y-79494719D01*
X177245932Y-79460390D01*
X177225329Y-79436974D01*
X177201626Y-79422765D01*
X177173004Y-79416059D01*
X177150003Y-79414914D01*
X177104902Y-79420830D01*
X177068170Y-79438427D01*
X177040191Y-79467484D01*
X177030447Y-79484468D01*
X177021298Y-79506502D01*
X177017254Y-79527260D01*
X177017351Y-79553231D01*
X177018306Y-79566213D01*
X177031481Y-79638397D01*
X177057924Y-79708325D01*
X177096421Y-79774675D01*
X177145757Y-79836122D01*
X177204716Y-79891341D01*
X177272084Y-79939008D01*
X177346644Y-79977799D01*
X177420457Y-80004481D01*
X177441291Y-80010144D01*
X177460933Y-80014328D01*
X177482070Y-80017242D01*
X177507391Y-80019094D01*
X177539586Y-80020094D01*
X177581343Y-80020448D01*
X177625828Y-80020400D01*
X177690817Y-80019579D01*
X177744343Y-80017192D01*
X177789425Y-80012650D01*
X177829081Y-80005368D01*
X177866331Y-79994757D01*
X177904193Y-79980229D01*
X177945686Y-79961198D01*
X177956028Y-79956138D01*
X178032421Y-79910413D01*
X178101004Y-79852680D01*
X178161373Y-79783413D01*
X178213125Y-79703086D01*
X178255856Y-79612173D01*
X178261637Y-79597187D01*
X178278462Y-79549458D01*
X178291201Y-79505523D01*
X178300363Y-79462031D01*
X178306459Y-79415634D01*
X178309997Y-79362982D01*
X178311489Y-79300727D01*
X178311628Y-79268798D01*
X178311628Y-79126310D01*
X178344285Y-79153034D01*
X178361162Y-79166833D01*
X178386518Y-79187555D01*
X178417593Y-79212942D01*
X178451623Y-79240737D01*
X178472295Y-79257618D01*
X178567647Y-79335480D01*
X178546406Y-79374697D01*
X178522433Y-79432976D01*
X178508559Y-79499122D01*
X178505096Y-79570289D01*
X178512353Y-79643629D01*
X178515389Y-79659630D01*
X178537684Y-79732635D01*
X178572784Y-79799543D01*
X178619977Y-79859538D01*
X178678551Y-79911802D01*
X178747792Y-79955520D01*
X178792201Y-79976489D01*
X178818741Y-79986035D01*
X178853875Y-79996465D01*
X178891902Y-80006154D01*
X178911100Y-80010395D01*
X178940847Y-80016160D01*
X178967573Y-80020176D01*
X178994702Y-80022644D01*
X179025655Y-80023766D01*
X179063856Y-80023740D01*
X179112728Y-80022769D01*
X179119348Y-80022602D01*
X179252153Y-80019194D01*
X179297571Y-80078097D01*
X179389081Y-80204124D01*
X179466870Y-80327187D01*
X179531276Y-80447929D01*
X179582636Y-80566993D01*
X179621289Y-80685021D01*
X179626111Y-80703057D01*
X179634066Y-80735048D01*
X179639691Y-80762219D01*
X179643380Y-80788385D01*
X179645530Y-80817360D01*
X179646534Y-80852955D01*
X179646787Y-80898986D01*
X179646787Y-80902628D01*
X179646505Y-80950348D01*
X179645476Y-80986933D01*
X179643384Y-81015757D01*
X179639915Y-81040195D01*
X179634754Y-81063619D01*
X179630192Y-81080428D01*
X179595702Y-81175065D01*
X179547210Y-81266669D01*
X179484995Y-81354792D01*
X179409337Y-81438984D01*
X179402418Y-81445824D01*
X179315394Y-81522555D01*
X179220623Y-81589505D01*
X179117291Y-81647044D01*
X179004589Y-81695539D01*
X178881703Y-81735359D01*
X178747822Y-81766872D01*
X178662125Y-81781908D01*
X178609656Y-81788304D01*
X178545543Y-81793291D01*
X178472587Y-81796851D01*
X178393592Y-81798970D01*
X178311359Y-81799633D01*
X178228691Y-81798823D01*
X178148391Y-81796527D01*
X178073261Y-81792727D01*
X178006104Y-81787410D01*
X177988685Y-81785600D01*
X177780621Y-81757761D01*
X177565559Y-81719411D01*
X177342991Y-81670431D01*
X177112405Y-81610702D01*
X176873292Y-81540104D01*
X176704513Y-81485477D01*
X176490184Y-81410691D01*
X176268137Y-81327385D01*
X176041373Y-81236828D01*
X175812893Y-81140287D01*
X175585696Y-81039029D01*
X175362784Y-80934324D01*
X175147157Y-80827437D01*
X175147008Y-80827361D01*
X175102690Y-80804860D01*
X175062965Y-80784866D01*
X175029552Y-80768231D01*
X175004173Y-80755807D01*
X174988552Y-80748446D01*
X174984228Y-80746794D01*
X174990502Y-80752126D01*
X175008436Y-80763235D01*
X175036696Y-80779426D01*
X175073951Y-80800006D01*
X175118868Y-80824281D01*
X175170114Y-80851557D01*
X175226357Y-80881139D01*
X175286263Y-80912335D01*
X175348502Y-80944449D01*
X175411740Y-80976789D01*
X175474644Y-81008659D01*
X175535882Y-81039367D01*
X175594121Y-81068217D01*
X175648029Y-81094516D01*
X175695428Y-81117172D01*
X175976661Y-81245794D01*
X176250321Y-81362766D01*
X176516318Y-81468058D01*
X176774563Y-81561642D01*
X177024964Y-81643488D01*
X177267431Y-81713569D01*
X177501875Y-81771855D01*
X177728205Y-81818316D01*
X177946330Y-81852924D01*
X178012880Y-81861314D01*
X178052841Y-81865253D01*
X178102416Y-81868919D01*
X178159026Y-81872232D01*
X178220088Y-81875111D01*
X178283024Y-81877474D01*
X178345252Y-81879240D01*
X178404192Y-81880328D01*
X178457265Y-81880657D01*
X178501888Y-81880145D01*
X178535483Y-81878712D01*
X178543857Y-81878009D01*
X178638069Y-81867689D01*
X178720282Y-81856765D01*
X178793011Y-81844798D01*
X178858771Y-81831350D01*
X178920076Y-81815980D01*
X178952184Y-81806736D01*
X179072253Y-81764689D01*
X179185103Y-81713284D01*
X179289981Y-81653280D01*
X179386130Y-81585432D01*
X179472795Y-81510497D01*
X179549223Y-81429233D01*
X179614656Y-81342395D01*
X179668341Y-81250742D01*
X179709522Y-81155028D01*
X179737445Y-81056013D01*
X179745302Y-81011825D01*
X179749693Y-80964400D01*
X179750969Y-80907636D01*
X179749341Y-80846321D01*
X179745019Y-80785246D01*
X179738215Y-80729199D01*
X179731221Y-80691622D01*
X179702852Y-80589833D01*
X179663165Y-80482580D01*
X179613213Y-80371995D01*
X179554044Y-80260212D01*
X179486708Y-80149364D01*
X179412256Y-80041584D01*
X179409227Y-80037478D01*
X179367960Y-79981675D01*
X179413551Y-79959231D01*
X179479552Y-79918906D01*
X179538787Y-79866988D01*
X179587275Y-79807895D01*
X179065077Y-79807895D01*
X179036695Y-79803205D01*
X179014354Y-79798584D01*
X178985218Y-79791355D01*
X178961142Y-79784678D01*
X178908735Y-79763136D01*
X178865303Y-79732648D01*
X178832123Y-79694728D01*
X178810473Y-79650888D01*
X178801629Y-79602642D01*
X178801485Y-79595514D01*
X178802161Y-79572794D01*
X178803913Y-79557302D01*
X178805864Y-79552800D01*
X178813109Y-79557672D01*
X178828698Y-79571104D01*
X178850782Y-79591323D01*
X178877513Y-79616555D01*
X178907044Y-79645025D01*
X178937528Y-79674959D01*
X178967116Y-79704583D01*
X178993961Y-79732122D01*
X179007667Y-79746570D01*
X179065077Y-79807895D01*
X179587275Y-79807895D01*
X179589127Y-79805638D01*
X179624580Y-79745146D01*
X179645364Y-79694794D01*
X179658579Y-79645837D01*
X179663419Y-79601877D01*
X179661887Y-79578890D01*
X179649438Y-79539641D01*
X179627263Y-79507937D01*
X179597856Y-79484560D01*
X179563709Y-79470289D01*
X179527317Y-79465904D01*
X179491174Y-79472185D01*
X179457772Y-79489912D01*
X179437951Y-79508839D01*
X179427133Y-79524566D01*
X179412328Y-79549972D01*
X179395513Y-79581502D01*
X179379207Y-79614457D01*
X179350612Y-79669209D01*
X179322223Y-79711672D01*
X179292292Y-79743937D01*
X179259075Y-79768099D01*
X179244548Y-79775928D01*
X179212268Y-79791887D01*
X179161488Y-79735843D01*
X179140742Y-79713427D01*
X179112195Y-79683260D01*
X179078286Y-79647883D01*
X179041450Y-79609835D01*
X179004125Y-79571656D01*
X178995880Y-79563278D01*
X178881053Y-79446755D01*
X178908398Y-79433604D01*
X178928427Y-79424410D01*
X178949153Y-79416022D01*
X178972872Y-79407727D01*
X179001883Y-79398814D01*
X179038481Y-79388571D01*
X179084965Y-79376284D01*
X179133584Y-79363800D01*
X179224281Y-79339270D01*
X179301932Y-79315016D01*
X179367978Y-79290372D01*
X179423855Y-79264674D01*
X179471003Y-79237258D01*
X179510862Y-79207459D01*
X179544868Y-79174613D01*
X179546058Y-79173302D01*
X179586383Y-79118298D01*
X179614812Y-79057046D01*
X179631351Y-78991609D01*
X179636006Y-78924050D01*
X179628780Y-78856430D01*
X179609679Y-78790812D01*
X179578708Y-78729260D01*
X179544876Y-78683743D01*
X179491599Y-78633782D01*
X179427293Y-78592859D01*
X179352408Y-78561133D01*
X179267395Y-78538761D01*
X179172705Y-78525901D01*
X179084514Y-78522568D01*
X179009101Y-78525052D01*
X178943595Y-78532526D01*
X178884058Y-78545632D01*
X178828778Y-78564138D01*
X178771796Y-78589472D01*
X178724288Y-78618387D01*
X178681219Y-78654237D01*
X178657466Y-78678268D01*
X178620157Y-78722629D01*
X178594684Y-78764432D01*
X178579591Y-78806947D01*
X178573418Y-78853441D01*
X178573090Y-78867500D01*
X178573559Y-78898480D01*
X178575951Y-78919840D01*
X178581350Y-78936451D01*
X178590840Y-78953183D01*
X178592851Y-78956257D01*
X178620163Y-78986344D01*
X178653613Y-79006046D01*
X178690305Y-79015144D01*
X178727340Y-79013418D01*
X178761819Y-79000652D01*
X178790845Y-78976626D01*
X178794969Y-78971486D01*
X178807755Y-78952798D01*
X178824004Y-78926662D01*
X178840384Y-78898455D01*
X178841734Y-78896028D01*
X178869013Y-78852789D01*
X178899777Y-78813986D01*
X178931300Y-78782678D01*
X178960855Y-78761923D01*
X178961707Y-78761483D01*
X179003978Y-78746071D01*
X179054998Y-78737104D01*
X179110463Y-78734680D01*
X179166068Y-78738899D01*
X179217509Y-78749858D01*
X179233564Y-78755241D01*
X179275816Y-78776503D01*
X179311653Y-78805152D01*
X179338972Y-78838725D01*
X179355669Y-78874759D01*
X179359967Y-78903286D01*
X179353251Y-78938787D01*
X179334537Y-78973816D01*
X179305975Y-79004659D01*
X179297358Y-79011420D01*
X179273687Y-79026752D01*
X179245236Y-79041128D01*
X179210106Y-79055238D01*
X179166400Y-79069771D01*
X179112219Y-79085414D01*
X179045666Y-79102856D01*
X179044600Y-79103126D01*
X178959811Y-79125389D01*
X178887685Y-79146199D01*
X178826511Y-79166151D01*
X178774584Y-79185843D01*
X178730195Y-79205868D01*
X178694073Y-79225376D01*
X178658092Y-79246592D01*
X178553803Y-79159114D01*
X178510825Y-79123414D01*
X178462094Y-79083502D01*
X178412448Y-79043309D01*
X178366725Y-79006761D01*
X178347937Y-78991938D01*
X178310657Y-78962440D01*
X178282844Y-78939548D01*
X178262387Y-78921110D01*
X178247177Y-78904980D01*
X178235103Y-78889007D01*
X178224056Y-78871043D01*
X178217309Y-78858905D01*
X178166076Y-78778924D01*
X178105062Y-78709454D01*
X178033724Y-78649975D01*
X177951520Y-78599967D01*
X177941514Y-78594884D01*
X177897790Y-78575004D01*
X177851776Y-78557380D01*
X177807133Y-78543165D01*
X177767523Y-78533513D01*
X177736608Y-78529577D01*
X177734138Y-78529543D01*
X177718275Y-78525067D01*
X177691991Y-78511957D01*
X177656163Y-78490687D01*
X177624628Y-78470373D01*
X177269588Y-78242679D01*
X176903286Y-78021340D01*
X176528055Y-77807632D01*
X176146229Y-77602833D01*
X175760142Y-77408217D01*
X175372127Y-77225062D01*
X175230971Y-77161534D01*
X174979879Y-77052500D01*
X174738296Y-76952736D01*
X174504957Y-76861791D01*
X174278596Y-76779213D01*
X174057946Y-76704549D01*
X173841741Y-76637347D01*
X173628716Y-76577155D01*
X173504693Y-76544919D01*
X173467951Y-76535888D01*
X173436513Y-76528566D01*
X173412904Y-76523507D01*
X173399650Y-76521270D01*
X173397721Y-76521345D01*
X173400124Y-76528257D01*
X173407926Y-76547385D01*
X173420669Y-76577665D01*
X173437894Y-76618032D01*
X173459141Y-76667424D01*
X173483954Y-76724775D01*
X173511871Y-76789023D01*
X173542436Y-76859103D01*
X173575188Y-76933951D01*
X173601801Y-76994599D01*
X173635938Y-77072403D01*
X173668255Y-77146252D01*
X173698292Y-77215085D01*
X173725589Y-77277838D01*
X173749685Y-77333448D01*
X173770123Y-77380853D01*
X173786441Y-77418991D01*
X173798180Y-77446797D01*
X173804881Y-77463210D01*
X173806316Y-77467417D01*
X173799881Y-77464117D01*
X173781465Y-77453983D01*
X173751695Y-77437372D01*
X173711199Y-77414638D01*
X173660605Y-77386138D01*
X173600540Y-77352226D01*
X173531631Y-77313258D01*
X173454507Y-77269590D01*
X173369796Y-77221577D01*
X173278124Y-77169574D01*
X173180119Y-77113938D01*
X173076409Y-77055023D01*
X172967622Y-76993186D01*
X172854384Y-76928781D01*
X172737325Y-76862164D01*
X172657955Y-76816974D01*
X172538693Y-76749101D01*
X172422815Y-76683234D01*
X172310950Y-76619729D01*
X172203726Y-76558938D01*
X172101774Y-76501216D01*
X172005721Y-76446918D01*
X171916196Y-76396395D01*
X171833828Y-76350004D01*
X171759247Y-76308097D01*
X171693081Y-76271028D01*
X171635959Y-76239152D01*
X171588509Y-76212823D01*
X171551361Y-76192393D01*
X171525143Y-76178218D01*
X171510485Y-76170651D01*
X171507447Y-76169450D01*
X171504299Y-76177630D01*
X171497862Y-76197757D01*
X171488745Y-76227799D01*
X171477561Y-76265724D01*
X171464920Y-76309499D01*
X171457431Y-76335813D01*
X171442616Y-76387708D01*
X171430990Y-76427127D01*
X171421982Y-76455609D01*
X171415016Y-76474696D01*
X171409518Y-76485929D01*
X171404915Y-76490849D01*
X171400632Y-76490995D01*
X171399763Y-76490587D01*
X171390814Y-76486380D01*
X171369636Y-76476741D01*
X171337115Y-76462063D01*
X171294139Y-76442743D01*
X171241594Y-76419176D01*
X171180367Y-76391756D01*
X171111345Y-76360878D01*
X171035414Y-76326938D01*
X170953462Y-76290331D01*
X170866376Y-76251452D01*
X170775041Y-76210695D01*
X170680346Y-76168457D01*
X170583176Y-76125132D01*
X170484419Y-76081114D01*
X170384961Y-76036800D01*
X170285689Y-75992585D01*
X170187491Y-75948862D01*
X170091252Y-75906028D01*
X169997860Y-75864478D01*
X169908201Y-75824606D01*
X169823163Y-75786807D01*
X169743632Y-75751478D01*
X169670495Y-75719012D01*
X169604638Y-75689805D01*
X169546949Y-75664252D01*
X169498314Y-75642748D01*
X169459621Y-75625689D01*
X169431756Y-75613468D01*
X169415605Y-75606482D01*
X169411720Y-75604914D01*
X169409729Y-75611807D01*
G37*
X169409729Y-75611807D02*
X169407207Y-75631067D01*
X169404353Y-75660566D01*
X169401367Y-75698173D01*
X169398447Y-75741761D01*
X169397625Y-75755500D01*
X169379787Y-75974788D01*
X169352168Y-76191127D01*
X169315096Y-76403467D01*
X169268899Y-76610755D01*
X169213905Y-76811939D01*
X169150442Y-77005968D01*
X169078838Y-77191789D01*
X168999421Y-77368351D01*
X168912519Y-77534602D01*
X168818459Y-77689490D01*
X168774250Y-77754683D01*
X168674213Y-77886497D01*
X168565765Y-78009369D01*
X168449994Y-78122382D01*
X168327988Y-78224620D01*
X168200836Y-78315167D01*
X168069625Y-78393106D01*
X167943984Y-78453870D01*
X167892877Y-78475716D01*
X167851950Y-78492414D01*
X167818112Y-78504692D01*
X167788272Y-78513279D01*
X167759338Y-78518901D01*
X167728219Y-78522289D01*
X167691823Y-78524168D01*
X167647060Y-78525268D01*
X167640293Y-78525395D01*
X167578056Y-78527347D01*
X167526837Y-78531118D01*
X167483183Y-78537400D01*
X167443643Y-78546885D01*
X167404762Y-78560266D01*
X167363089Y-78578236D01*
X167352805Y-78583063D01*
X167288358Y-78617023D01*
X167233173Y-78654085D01*
X167182006Y-78697922D01*
X167164657Y-78714960D01*
X167140931Y-78738093D01*
X167120060Y-78755680D01*
X167098043Y-78770353D01*
X167070881Y-78784745D01*
X167034573Y-78801489D01*
X167030400Y-78803344D01*
X166989423Y-78821665D01*
X166944754Y-78841876D01*
X166902645Y-78861137D01*
X166877513Y-78872780D01*
X166808084Y-78905206D01*
X166799910Y-78857487D01*
X166781361Y-78790963D01*
X166749852Y-78729988D01*
X166706096Y-78675237D01*
X166650805Y-78627386D01*
X166584689Y-78587110D01*
X166508461Y-78555084D01*
X166467971Y-78542699D01*
X166445541Y-78537078D01*
X166423679Y-78532930D01*
X166399579Y-78530030D01*
X166370433Y-78528154D01*
X166333434Y-78527080D01*
X166285775Y-78526583D01*
X166264771Y-78526500D01*
X166211255Y-78526581D01*
X166169669Y-78527281D01*
X166137439Y-78528772D01*
X166111986Y-78531225D01*
X166090737Y-78534813D01*
X166072457Y-78539327D01*
X165994237Y-78566572D01*
X165924699Y-78601536D01*
X165864800Y-78643311D01*
X165815500Y-78690989D01*
X165777756Y-78743661D01*
X165752525Y-78800420D01*
X165741409Y-78853269D01*
X165739732Y-78882723D01*
X165742731Y-78905340D01*
X165751393Y-78928318D01*
X165751817Y-78929230D01*
X165766151Y-78957262D01*
X165779983Y-78976325D01*
X165797348Y-78991237D01*
X165811328Y-79000311D01*
X165843295Y-79012598D01*
X165879835Y-79015689D01*
X165914900Y-79009525D01*
X165932514Y-79001484D01*
X165950560Y-78986429D01*
X165971457Y-78961128D01*
X165996001Y-78924494D01*
X166024991Y-78875440D01*
X166025600Y-78874363D01*
X166058535Y-78825994D01*
X166096711Y-78786933D01*
X166137801Y-78759423D01*
X166151249Y-78753401D01*
X166188805Y-78743223D01*
X166235196Y-78737440D01*
X166285498Y-78736059D01*
X166334790Y-78739084D01*
X166378150Y-78746520D01*
X166399375Y-78753143D01*
X166450887Y-78778646D01*
X166489653Y-78809433D01*
X166515320Y-78845057D01*
X166527536Y-78885072D01*
X166527919Y-78915187D01*
X166521383Y-78946932D01*
X166506990Y-78973886D01*
X166482365Y-78999798D01*
X166465717Y-79013348D01*
X166449079Y-79024995D01*
X166430078Y-79035707D01*
X166406894Y-79046130D01*
X166377709Y-79056909D01*
X166340702Y-79068691D01*
X166294056Y-79082121D01*
X166235949Y-79097844D01*
X166203677Y-79106336D01*
X166134223Y-79124846D01*
X166076597Y-79141086D01*
X166028442Y-79155859D01*
X165987403Y-79169968D01*
X165951121Y-79184216D01*
X165917241Y-79199404D01*
X165888517Y-79213682D01*
X165822087Y-79254942D01*
X165767757Y-79303768D01*
X165725775Y-79359881D01*
X165696390Y-79423003D01*
X165693652Y-79431256D01*
X165685327Y-79468412D01*
X165680100Y-79514644D01*
X165678114Y-79564820D01*
X165679513Y-79613806D01*
X165684440Y-79656469D01*
X165687014Y-79668914D01*
X165705309Y-79723999D01*
X165732956Y-79780486D01*
X165766794Y-79832429D01*
X165787034Y-79857054D01*
X165827066Y-79901291D01*
X165810061Y-79982859D01*
X165804586Y-80010478D01*
X165800421Y-80035738D01*
X165797395Y-80061289D01*
X165795335Y-80089781D01*
X165794070Y-80123864D01*
X165793428Y-80166186D01*
X165793238Y-80219396D01*
X165793247Y-80242228D01*
X165793501Y-80302611D01*
X165794239Y-80351385D01*
X165795635Y-80391454D01*
X165797865Y-80425718D01*
X165801107Y-80457081D01*
X165805535Y-80488445D01*
X165809697Y-80513464D01*
X165844146Y-80677524D01*
X165891403Y-80847210D01*
X165903251Y-80884486D01*
X165915130Y-80919983D01*
X165929201Y-80960267D01*
X165944671Y-81003263D01*
X165960749Y-81046892D01*
X165976646Y-81089078D01*
X165991571Y-81127744D01*
X166004732Y-81160813D01*
X166015340Y-81186208D01*
X166022602Y-81201852D01*
X166025616Y-81205888D01*
X166024101Y-81198579D01*
X166018269Y-81180039D01*
X166008913Y-81152619D01*
X165996827Y-81118671D01*
X165988291Y-81095320D01*
X165944751Y-80968763D01*
X165905701Y-80838018D01*
X165872272Y-80707388D01*
X165845593Y-80581176D01*
X165831852Y-80499857D01*
X165828150Y-80465699D01*
X165825265Y-80419275D01*
X165823289Y-80362813D01*
X165822315Y-80298543D01*
X165822228Y-80267628D01*
X165822736Y-80200221D01*
X165824335Y-80144363D01*
X165827328Y-80097113D01*
X165832018Y-80055527D01*
X165838709Y-80016661D01*
X165847703Y-79977574D01*
X165854817Y-79951046D01*
X165862175Y-79924749D01*
X165925587Y-79956650D01*
X165972750Y-79978615D01*
X166017505Y-79995179D01*
X166063387Y-80007118D01*
X166113932Y-80015212D01*
X166172675Y-80020236D01*
X166224857Y-80022477D01*
X166280571Y-80023601D01*
X166325607Y-80023096D01*
X166363724Y-80020800D01*
X166398685Y-80016549D01*
X166412149Y-80014348D01*
X166501881Y-79992445D01*
X166582327Y-79959658D01*
X166653233Y-79916170D01*
X166714342Y-79862165D01*
X166765399Y-79797825D01*
X166799867Y-79736896D01*
X166821582Y-79681947D01*
X166832848Y-79630361D01*
X166833458Y-79584053D01*
X166823204Y-79544938D01*
X166821076Y-79540508D01*
X166795237Y-79504505D01*
X166761147Y-79479956D01*
X166720561Y-79467801D01*
X166684871Y-79467599D01*
X166660949Y-79472245D01*
X166640380Y-79481459D01*
X166621531Y-79496994D01*
X166602769Y-79520604D01*
X166582460Y-79554044D01*
X166558972Y-79599067D01*
X166555023Y-79607030D01*
X166533679Y-79649140D01*
X166516159Y-79680636D01*
X166500671Y-79704290D01*
X166485419Y-79722870D01*
X166470672Y-79737313D01*
X166426726Y-79769090D01*
X166376205Y-79790538D01*
X166316902Y-79802481D01*
X166290171Y-79804786D01*
X166215314Y-79803691D01*
X166148367Y-79791295D01*
X166089900Y-79767790D01*
X166040482Y-79733364D01*
X166022327Y-79715437D01*
X166004242Y-79694202D01*
X165990287Y-79675137D01*
X165983442Y-79662317D01*
X165983407Y-79662188D01*
X165985674Y-79647939D01*
X165996340Y-79625121D01*
X166013928Y-79595801D01*
X166036960Y-79562043D01*
X166063958Y-79525913D01*
X166093444Y-79489479D01*
X166123940Y-79454805D01*
X166153480Y-79424429D01*
X166165890Y-79412963D01*
X166177812Y-79403988D01*
X166191835Y-79396462D01*
X166210549Y-79389344D01*
X166236544Y-79381590D01*
X166272410Y-79372159D01*
X166301670Y-79364778D01*
X166385787Y-79342649D01*
X166457265Y-79321356D01*
X166517885Y-79300102D01*
X166569429Y-79278088D01*
X166613680Y-79254519D01*
X166652418Y-79228594D01*
X166687427Y-79199518D01*
X166702063Y-79185566D01*
X166743883Y-79138680D01*
X166773298Y-79092268D01*
X166792005Y-79043377D01*
X166797356Y-79019921D01*
X166802372Y-78998396D01*
X166807768Y-78983026D01*
X166810052Y-78979381D01*
X166818454Y-78974513D01*
X166837251Y-78965268D01*
X166863954Y-78952752D01*
X166896070Y-78938072D01*
X166931110Y-78922334D01*
X166966582Y-78906644D01*
X166999995Y-78892109D01*
X167028858Y-78879835D01*
X167050680Y-78870928D01*
X167062971Y-78866495D01*
X167064740Y-78866264D01*
X167064155Y-78873919D01*
X167059631Y-78888237D01*
X167054461Y-78911581D01*
X167052389Y-78942346D01*
X167053284Y-78974987D01*
X167057015Y-79003960D01*
X167062796Y-79022524D01*
X167086886Y-79054390D01*
X167119820Y-79077496D01*
X167157931Y-79090113D01*
X167197553Y-79090511D01*
X167204226Y-79089228D01*
X167225745Y-79083371D01*
X167243790Y-79075266D01*
X167260142Y-79063041D01*
X167276585Y-79044820D01*
X167294903Y-79018729D01*
X167316881Y-78982894D01*
X167334873Y-78951918D01*
X167378316Y-78887948D01*
X167427795Y-78836633D01*
X167482907Y-78798310D01*
X167543250Y-78773317D01*
X167549285Y-78771636D01*
X167580927Y-78766066D01*
X167621324Y-78762971D01*
X167664922Y-78762416D01*
X167706164Y-78764464D01*
X167739494Y-78769176D01*
X167740788Y-78769468D01*
X167803706Y-78791260D01*
X167860942Y-78825898D01*
X167911782Y-78872593D01*
X167955511Y-78930553D01*
X167991417Y-78998986D01*
X168018784Y-79077103D01*
X168018882Y-79077457D01*
X168024390Y-79098894D01*
X168028483Y-79119426D01*
X168031363Y-79141724D01*
X168033230Y-79168460D01*
X168034289Y-79202305D01*
X168034741Y-79245932D01*
X168034802Y-79287914D01*
X168034681Y-79339382D01*
X168034226Y-79379022D01*
X168033190Y-79409517D01*
X168031322Y-79433555D01*
X168028377Y-79453818D01*
X168024105Y-79472994D01*
X168018259Y-79493766D01*
X168014706Y-79505469D01*
X167994247Y-79564012D01*
X167971520Y-79611910D01*
X167944494Y-79653032D01*
X167924861Y-79676630D01*
X167874351Y-79722614D01*
X167816536Y-79756211D01*
X167751180Y-79777518D01*
X167678051Y-79786632D01*
X167661771Y-79787006D01*
X167585903Y-79781748D01*
X167518443Y-79764774D01*
X167459117Y-79735893D01*
X167407653Y-79694913D01*
X167363776Y-79641643D01*
X167327213Y-79575890D01*
X167313312Y-79542800D01*
X167293478Y-79495699D01*
X167274345Y-79461194D01*
X167254128Y-79437582D01*
X167231039Y-79423161D01*
X167203291Y-79416227D01*
X167179148Y-79414914D01*
X167133408Y-79420631D01*
X167096773Y-79437305D01*
X167069720Y-79464226D01*
X167052724Y-79500679D01*
X167046261Y-79545954D01*
X167050807Y-79599336D01*
X167051928Y-79605305D01*
X167073517Y-79678423D01*
X167108124Y-79748156D01*
X167154395Y-79813140D01*
X167210975Y-79872012D01*
X167276510Y-79923408D01*
X167349644Y-79965964D01*
X167429023Y-79998317D01*
X167448180Y-80004217D01*
X167469262Y-80009962D01*
X167488964Y-80014209D01*
X167509986Y-80017169D01*
X167535029Y-80019054D01*
X167566792Y-80020076D01*
X167607975Y-80020446D01*
X167654514Y-80020400D01*
X167719368Y-80019587D01*
X167772778Y-80017217D01*
X167817783Y-80012694D01*
X167857423Y-80005424D01*
X167894735Y-79994812D01*
X167932760Y-79980260D01*
X167974535Y-79961176D01*
X167986441Y-79955370D01*
X168057428Y-79912570D01*
X168122860Y-79857404D01*
X168181727Y-79791293D01*
X168233016Y-79715656D01*
X168275716Y-79631914D01*
X168308814Y-79541487D01*
X168324414Y-79481114D01*
X168332007Y-79434740D01*
X168337287Y-79378466D01*
X168340227Y-79316239D01*
X168340802Y-79252004D01*
X168338986Y-79189707D01*
X168334755Y-79133293D01*
X168328082Y-79086707D01*
X168327002Y-79081430D01*
X168298570Y-78978385D01*
X168259490Y-78884728D01*
X168209991Y-78800764D01*
X168150302Y-78726799D01*
X168080652Y-78663137D01*
X168001271Y-78610083D01*
X167954802Y-78586121D01*
X167932180Y-78575173D01*
X167916182Y-78566732D01*
X167909925Y-78562453D01*
X167909970Y-78562303D01*
X167917065Y-78558896D01*
X167934928Y-78550873D01*
X167961001Y-78539367D01*
X167992727Y-78525515D01*
X167998749Y-78522900D01*
X168145289Y-78451434D01*
X168285797Y-78366961D01*
X168420064Y-78269773D01*
X168547879Y-78160157D01*
X168669032Y-78038404D01*
X168783311Y-77904804D01*
X168890507Y-77759645D01*
X168990410Y-77603219D01*
X169082808Y-77435814D01*
X169167491Y-77257720D01*
X169244249Y-77069228D01*
X169312872Y-76870626D01*
X169373149Y-76662204D01*
X169385622Y-76613657D01*
X169435534Y-76393676D01*
X169475757Y-76170861D01*
X169505363Y-75950469D01*
X169509301Y-75913343D01*
X169513440Y-75873976D01*
X169517260Y-75839992D01*
X169520462Y-75813875D01*
X169522748Y-75798111D01*
X169523598Y-75794597D01*
X169530369Y-75797245D01*
X169549621Y-75805582D01*
X169580626Y-75819282D01*
X169622659Y-75838015D01*
X169674992Y-75861455D01*
X169736898Y-75889273D01*
X169807649Y-75921142D01*
X169886519Y-75956733D01*
X169972781Y-75995719D01*
X170065708Y-76037772D01*
X170164572Y-76082564D01*
X170268647Y-76129768D01*
X170377206Y-76179055D01*
X170489521Y-76230097D01*
X170509314Y-76239097D01*
X170622277Y-76290449D01*
X170731651Y-76340135D01*
X170836704Y-76387823D01*
X170936706Y-76433184D01*
X171030926Y-76475887D01*
X171118634Y-76515602D01*
X171199099Y-76551999D01*
X171271591Y-76584748D01*
X171335379Y-76613518D01*
X171389733Y-76637980D01*
X171433921Y-76657802D01*
X171467215Y-76672655D01*
X171488882Y-76682209D01*
X171498192Y-76686133D01*
X171498492Y-76686217D01*
X171502180Y-76679566D01*
X171509119Y-76660982D01*
X171518636Y-76632504D01*
X171530056Y-76596172D01*
X171542707Y-76554025D01*
X171547016Y-76539259D01*
X171559962Y-76495195D01*
X171571861Y-76455828D01*
X171582036Y-76423311D01*
X171589809Y-76399793D01*
X171594501Y-76387429D01*
X171595218Y-76386204D01*
X171601974Y-76389150D01*
X171620715Y-76398991D01*
X171650842Y-76415387D01*
X171691758Y-76437999D01*
X171742864Y-76466490D01*
X171803561Y-76500520D01*
X171873251Y-76539750D01*
X171951335Y-76583843D01*
X172037215Y-76632460D01*
X172130291Y-76685261D01*
X172229967Y-76741909D01*
X172335642Y-76802065D01*
X172446718Y-76865389D01*
X172562598Y-76931545D01*
X172682682Y-77000192D01*
X172806371Y-77070992D01*
X172861951Y-77102836D01*
X172987021Y-77174490D01*
X173108726Y-77244171D01*
X173226466Y-77311538D01*
X173339646Y-77376251D01*
X173447668Y-77437971D01*
X173549935Y-77496356D01*
X173645849Y-77551068D01*
X173734814Y-77601766D01*
X173816232Y-77648109D01*
X173889506Y-77689759D01*
X173954039Y-77726374D01*
X174009233Y-77757616D01*
X174054492Y-77783143D01*
X174089218Y-77802616D01*
X174112815Y-77815695D01*
X174124684Y-77822039D01*
X174126038Y-77822609D01*
X174123656Y-77815663D01*
X174115856Y-77796429D01*
X174103069Y-77765900D01*
X174085722Y-77725073D01*
X174064243Y-77674945D01*
X174039061Y-77616510D01*
X174010606Y-77550764D01*
X173979304Y-77478703D01*
X173945585Y-77401324D01*
X173909877Y-77319621D01*
X173893386Y-77281963D01*
X173856978Y-77198740D01*
X173822413Y-77119458D01*
X173790117Y-77045104D01*
X173760511Y-76976667D01*
X173734021Y-76915135D01*
X173711069Y-76861496D01*
X173692079Y-76816739D01*
X173677474Y-76781852D01*
X173667680Y-76757822D01*
X173663118Y-76745640D01*
X173662889Y-76744286D01*
X173675888Y-76746543D01*
X173700985Y-76752968D01*
X173736542Y-76763040D01*
X173780920Y-76776240D01*
X173832483Y-76792047D01*
X173889591Y-76809942D01*
X173950606Y-76829403D01*
X174013890Y-76849912D01*
X174077805Y-76870948D01*
X174140713Y-76891990D01*
X174200976Y-76912519D01*
X174256954Y-76932015D01*
X174280285Y-76940303D01*
X174477432Y-77012539D01*
X174671456Y-77087165D01*
X174864452Y-77165088D01*
X175058515Y-77247214D01*
X175255739Y-77334452D01*
X175458219Y-77427707D01*
X175668048Y-77527887D01*
X175887322Y-77635899D01*
X175891371Y-77637922D01*
X176104830Y-77745976D01*
X176307052Y-77851289D01*
X176500688Y-77955339D01*
X176688389Y-78059604D01*
X176872806Y-78165561D01*
X177056588Y-78274690D01*
X177242388Y-78388469D01*
X177286217Y-78415783D01*
X177472748Y-78532396D01*
X177414794Y-78549128D01*
X177335176Y-78578047D01*
X177260918Y-78616666D01*
X177193657Y-78663579D01*
X177135033Y-78717381D01*
X177086682Y-78776668D01*
X177050242Y-78840034D01*
X177036831Y-78873300D01*
X177028510Y-78906963D01*
X177024464Y-78944321D01*
X177024783Y-78980454D01*
X177029558Y-79010442D01*
X177034110Y-79022524D01*
X177058474Y-79054743D01*
X177091737Y-79077861D01*
X177130336Y-79090217D01*
X177170711Y-79090151D01*
X177176630Y-79088983D01*
X177202647Y-79080986D01*
X177224247Y-79068443D01*
X177244194Y-79048885D01*
X177265255Y-79019839D01*
X177279405Y-78997112D01*
X177317849Y-78936138D01*
X177353108Y-78887242D01*
X177386840Y-78848817D01*
X177420704Y-78819257D01*
X177456360Y-78796959D01*
X177495466Y-78780316D01*
X177507543Y-78776363D01*
X177556553Y-78765913D01*
X177612136Y-78761606D01*
X177668380Y-78763464D01*
X177719370Y-78771508D01*
X177734025Y-78775520D01*
X177797221Y-78802564D01*
X177853184Y-78841719D01*
X177901456Y-78892259D01*
X177941578Y-78953458D01*
X177973091Y-79024591D01*
X177995536Y-79104930D01*
X178008453Y-79193750D01*
X178009804Y-79211714D01*
X178012006Y-79315639D01*
X178004782Y-79410181D01*
X177988359Y-79494996D01*
X177962967Y-79569739D01*
X177928833Y-79634065D01*
X177886183Y-79687628D01*
X177835248Y-79730086D01*
X177776253Y-79761092D01*
X177709428Y-79780302D01*
X177634999Y-79787370D01*
X177629457Y-79787401D01*
X177554356Y-79781449D01*
X177487327Y-79763516D01*
X177428210Y-79733488D01*
X177376844Y-79691248D01*
X177333067Y-79636683D01*
X177296719Y-79569677D01*
X177285104Y-79541666D01*
X177265251Y-79494719D01*
X177245932Y-79460390D01*
X177225329Y-79436974D01*
X177201626Y-79422765D01*
X177173004Y-79416059D01*
X177150003Y-79414914D01*
X177104902Y-79420830D01*
X177068170Y-79438427D01*
X177040191Y-79467484D01*
X177030447Y-79484468D01*
X177021298Y-79506502D01*
X177017254Y-79527260D01*
X177017351Y-79553231D01*
X177018306Y-79566213D01*
X177031481Y-79638397D01*
X177057924Y-79708325D01*
X177096421Y-79774675D01*
X177145757Y-79836122D01*
X177204716Y-79891341D01*
X177272084Y-79939008D01*
X177346644Y-79977799D01*
X177420457Y-80004481D01*
X177441291Y-80010144D01*
X177460933Y-80014328D01*
X177482070Y-80017242D01*
X177507391Y-80019094D01*
X177539586Y-80020094D01*
X177581343Y-80020448D01*
X177625828Y-80020400D01*
X177690817Y-80019579D01*
X177744343Y-80017192D01*
X177789425Y-80012650D01*
X177829081Y-80005368D01*
X177866331Y-79994757D01*
X177904193Y-79980229D01*
X177945686Y-79961198D01*
X177956028Y-79956138D01*
X178032421Y-79910413D01*
X178101004Y-79852680D01*
X178161373Y-79783413D01*
X178213125Y-79703086D01*
X178255856Y-79612173D01*
X178261637Y-79597187D01*
X178278462Y-79549458D01*
X178291201Y-79505523D01*
X178300363Y-79462031D01*
X178306459Y-79415634D01*
X178309997Y-79362982D01*
X178311489Y-79300727D01*
X178311628Y-79268798D01*
X178311628Y-79126310D01*
X178344285Y-79153034D01*
X178361162Y-79166833D01*
X178386518Y-79187555D01*
X178417593Y-79212942D01*
X178451623Y-79240737D01*
X178472295Y-79257618D01*
X178567647Y-79335480D01*
X178546406Y-79374697D01*
X178522433Y-79432976D01*
X178508559Y-79499122D01*
X178505096Y-79570289D01*
X178512353Y-79643629D01*
X178515389Y-79659630D01*
X178537684Y-79732635D01*
X178572784Y-79799543D01*
X178619977Y-79859538D01*
X178678551Y-79911802D01*
X178747792Y-79955520D01*
X178792201Y-79976489D01*
X178818741Y-79986035D01*
X178853875Y-79996465D01*
X178891902Y-80006154D01*
X178911100Y-80010395D01*
X178940847Y-80016160D01*
X178967573Y-80020176D01*
X178994702Y-80022644D01*
X179025655Y-80023766D01*
X179063856Y-80023740D01*
X179112728Y-80022769D01*
X179119348Y-80022602D01*
X179252153Y-80019194D01*
X179297571Y-80078097D01*
X179389081Y-80204124D01*
X179466870Y-80327187D01*
X179531276Y-80447929D01*
X179582636Y-80566993D01*
X179621289Y-80685021D01*
X179626111Y-80703057D01*
X179634066Y-80735048D01*
X179639691Y-80762219D01*
X179643380Y-80788385D01*
X179645530Y-80817360D01*
X179646534Y-80852955D01*
X179646787Y-80898986D01*
X179646787Y-80902628D01*
X179646505Y-80950348D01*
X179645476Y-80986933D01*
X179643384Y-81015757D01*
X179639915Y-81040195D01*
X179634754Y-81063619D01*
X179630192Y-81080428D01*
X179595702Y-81175065D01*
X179547210Y-81266669D01*
X179484995Y-81354792D01*
X179409337Y-81438984D01*
X179402418Y-81445824D01*
X179315394Y-81522555D01*
X179220623Y-81589505D01*
X179117291Y-81647044D01*
X179004589Y-81695539D01*
X178881703Y-81735359D01*
X178747822Y-81766872D01*
X178662125Y-81781908D01*
X178609656Y-81788304D01*
X178545543Y-81793291D01*
X178472587Y-81796851D01*
X178393592Y-81798970D01*
X178311359Y-81799633D01*
X178228691Y-81798823D01*
X178148391Y-81796527D01*
X178073261Y-81792727D01*
X178006104Y-81787410D01*
X177988685Y-81785600D01*
X177780621Y-81757761D01*
X177565559Y-81719411D01*
X177342991Y-81670431D01*
X177112405Y-81610702D01*
X176873292Y-81540104D01*
X176704513Y-81485477D01*
X176490184Y-81410691D01*
X176268137Y-81327385D01*
X176041373Y-81236828D01*
X175812893Y-81140287D01*
X175585696Y-81039029D01*
X175362784Y-80934324D01*
X175147157Y-80827437D01*
X175147008Y-80827361D01*
X175102690Y-80804860D01*
X175062965Y-80784866D01*
X175029552Y-80768231D01*
X175004173Y-80755807D01*
X174988552Y-80748446D01*
X174984228Y-80746794D01*
X174990502Y-80752126D01*
X175008436Y-80763235D01*
X175036696Y-80779426D01*
X175073951Y-80800006D01*
X175118868Y-80824281D01*
X175170114Y-80851557D01*
X175226357Y-80881139D01*
X175286263Y-80912335D01*
X175348502Y-80944449D01*
X175411740Y-80976789D01*
X175474644Y-81008659D01*
X175535882Y-81039367D01*
X175594121Y-81068217D01*
X175648029Y-81094516D01*
X175695428Y-81117172D01*
X175976661Y-81245794D01*
X176250321Y-81362766D01*
X176516318Y-81468058D01*
X176774563Y-81561642D01*
X177024964Y-81643488D01*
X177267431Y-81713569D01*
X177501875Y-81771855D01*
X177728205Y-81818316D01*
X177946330Y-81852924D01*
X178012880Y-81861314D01*
X178052841Y-81865253D01*
X178102416Y-81868919D01*
X178159026Y-81872232D01*
X178220088Y-81875111D01*
X178283024Y-81877474D01*
X178345252Y-81879240D01*
X178404192Y-81880328D01*
X178457265Y-81880657D01*
X178501888Y-81880145D01*
X178535483Y-81878712D01*
X178543857Y-81878009D01*
X178638069Y-81867689D01*
X178720282Y-81856765D01*
X178793011Y-81844798D01*
X178858771Y-81831350D01*
X178920076Y-81815980D01*
X178952184Y-81806736D01*
X179072253Y-81764689D01*
X179185103Y-81713284D01*
X179289981Y-81653280D01*
X179386130Y-81585432D01*
X179472795Y-81510497D01*
X179549223Y-81429233D01*
X179614656Y-81342395D01*
X179668341Y-81250742D01*
X179709522Y-81155028D01*
X179737445Y-81056013D01*
X179745302Y-81011825D01*
X179749693Y-80964400D01*
X179750969Y-80907636D01*
X179749341Y-80846321D01*
X179745019Y-80785246D01*
X179738215Y-80729199D01*
X179731221Y-80691622D01*
X179702852Y-80589833D01*
X179663165Y-80482580D01*
X179613213Y-80371995D01*
X179554044Y-80260212D01*
X179486708Y-80149364D01*
X179412256Y-80041584D01*
X179409227Y-80037478D01*
X179367960Y-79981675D01*
X179413551Y-79959231D01*
X179479552Y-79918906D01*
X179538787Y-79866988D01*
X179587275Y-79807895D01*
X179065077Y-79807895D01*
X179036695Y-79803205D01*
X179014354Y-79798584D01*
X178985218Y-79791355D01*
X178961142Y-79784678D01*
X178908735Y-79763136D01*
X178865303Y-79732648D01*
X178832123Y-79694728D01*
X178810473Y-79650888D01*
X178801629Y-79602642D01*
X178801485Y-79595514D01*
X178802161Y-79572794D01*
X178803913Y-79557302D01*
X178805864Y-79552800D01*
X178813109Y-79557672D01*
X178828698Y-79571104D01*
X178850782Y-79591323D01*
X178877513Y-79616555D01*
X178907044Y-79645025D01*
X178937528Y-79674959D01*
X178967116Y-79704583D01*
X178993961Y-79732122D01*
X179007667Y-79746570D01*
X179065077Y-79807895D01*
X179587275Y-79807895D01*
X179589127Y-79805638D01*
X179624580Y-79745146D01*
X179645364Y-79694794D01*
X179658579Y-79645837D01*
X179663419Y-79601877D01*
X179661887Y-79578890D01*
X179649438Y-79539641D01*
X179627263Y-79507937D01*
X179597856Y-79484560D01*
X179563709Y-79470289D01*
X179527317Y-79465904D01*
X179491174Y-79472185D01*
X179457772Y-79489912D01*
X179437951Y-79508839D01*
X179427133Y-79524566D01*
X179412328Y-79549972D01*
X179395513Y-79581502D01*
X179379207Y-79614457D01*
X179350612Y-79669209D01*
X179322223Y-79711672D01*
X179292292Y-79743937D01*
X179259075Y-79768099D01*
X179244548Y-79775928D01*
X179212268Y-79791887D01*
X179161488Y-79735843D01*
X179140742Y-79713427D01*
X179112195Y-79683260D01*
X179078286Y-79647883D01*
X179041450Y-79609835D01*
X179004125Y-79571656D01*
X178995880Y-79563278D01*
X178881053Y-79446755D01*
X178908398Y-79433604D01*
X178928427Y-79424410D01*
X178949153Y-79416022D01*
X178972872Y-79407727D01*
X179001883Y-79398814D01*
X179038481Y-79388571D01*
X179084965Y-79376284D01*
X179133584Y-79363800D01*
X179224281Y-79339270D01*
X179301932Y-79315016D01*
X179367978Y-79290372D01*
X179423855Y-79264674D01*
X179471003Y-79237258D01*
X179510862Y-79207459D01*
X179544868Y-79174613D01*
X179546058Y-79173302D01*
X179586383Y-79118298D01*
X179614812Y-79057046D01*
X179631351Y-78991609D01*
X179636006Y-78924050D01*
X179628780Y-78856430D01*
X179609679Y-78790812D01*
X179578708Y-78729260D01*
X179544876Y-78683743D01*
X179491599Y-78633782D01*
X179427293Y-78592859D01*
X179352408Y-78561133D01*
X179267395Y-78538761D01*
X179172705Y-78525901D01*
X179084514Y-78522568D01*
X179009101Y-78525052D01*
X178943595Y-78532526D01*
X178884058Y-78545632D01*
X178828778Y-78564138D01*
X178771796Y-78589472D01*
X178724288Y-78618387D01*
X178681219Y-78654237D01*
X178657466Y-78678268D01*
X178620157Y-78722629D01*
X178594684Y-78764432D01*
X178579591Y-78806947D01*
X178573418Y-78853441D01*
X178573090Y-78867500D01*
X178573559Y-78898480D01*
X178575951Y-78919840D01*
X178581350Y-78936451D01*
X178590840Y-78953183D01*
X178592851Y-78956257D01*
X178620163Y-78986344D01*
X178653613Y-79006046D01*
X178690305Y-79015144D01*
X178727340Y-79013418D01*
X178761819Y-79000652D01*
X178790845Y-78976626D01*
X178794969Y-78971486D01*
X178807755Y-78952798D01*
X178824004Y-78926662D01*
X178840384Y-78898455D01*
X178841734Y-78896028D01*
X178869013Y-78852789D01*
X178899777Y-78813986D01*
X178931300Y-78782678D01*
X178960855Y-78761923D01*
X178961707Y-78761483D01*
X179003978Y-78746071D01*
X179054998Y-78737104D01*
X179110463Y-78734680D01*
X179166068Y-78738899D01*
X179217509Y-78749858D01*
X179233564Y-78755241D01*
X179275816Y-78776503D01*
X179311653Y-78805152D01*
X179338972Y-78838725D01*
X179355669Y-78874759D01*
X179359967Y-78903286D01*
X179353251Y-78938787D01*
X179334537Y-78973816D01*
X179305975Y-79004659D01*
X179297358Y-79011420D01*
X179273687Y-79026752D01*
X179245236Y-79041128D01*
X179210106Y-79055238D01*
X179166400Y-79069771D01*
X179112219Y-79085414D01*
X179045666Y-79102856D01*
X179044600Y-79103126D01*
X178959811Y-79125389D01*
X178887685Y-79146199D01*
X178826511Y-79166151D01*
X178774584Y-79185843D01*
X178730195Y-79205868D01*
X178694073Y-79225376D01*
X178658092Y-79246592D01*
X178553803Y-79159114D01*
X178510825Y-79123414D01*
X178462094Y-79083502D01*
X178412448Y-79043309D01*
X178366725Y-79006761D01*
X178347937Y-78991938D01*
X178310657Y-78962440D01*
X178282844Y-78939548D01*
X178262387Y-78921110D01*
X178247177Y-78904980D01*
X178235103Y-78889007D01*
X178224056Y-78871043D01*
X178217309Y-78858905D01*
X178166076Y-78778924D01*
X178105062Y-78709454D01*
X178033724Y-78649975D01*
X177951520Y-78599967D01*
X177941514Y-78594884D01*
X177897790Y-78575004D01*
X177851776Y-78557380D01*
X177807133Y-78543165D01*
X177767523Y-78533513D01*
X177736608Y-78529577D01*
X177734138Y-78529543D01*
X177718275Y-78525067D01*
X177691991Y-78511957D01*
X177656163Y-78490687D01*
X177624628Y-78470373D01*
X177269588Y-78242679D01*
X176903286Y-78021340D01*
X176528055Y-77807632D01*
X176146229Y-77602833D01*
X175760142Y-77408217D01*
X175372127Y-77225062D01*
X175230971Y-77161534D01*
X174979879Y-77052500D01*
X174738296Y-76952736D01*
X174504957Y-76861791D01*
X174278596Y-76779213D01*
X174057946Y-76704549D01*
X173841741Y-76637347D01*
X173628716Y-76577155D01*
X173504693Y-76544919D01*
X173467951Y-76535888D01*
X173436513Y-76528566D01*
X173412904Y-76523507D01*
X173399650Y-76521270D01*
X173397721Y-76521345D01*
X173400124Y-76528257D01*
X173407926Y-76547385D01*
X173420669Y-76577665D01*
X173437894Y-76618032D01*
X173459141Y-76667424D01*
X173483954Y-76724775D01*
X173511871Y-76789023D01*
X173542436Y-76859103D01*
X173575188Y-76933951D01*
X173601801Y-76994599D01*
X173635938Y-77072403D01*
X173668255Y-77146252D01*
X173698292Y-77215085D01*
X173725589Y-77277838D01*
X173749685Y-77333448D01*
X173770123Y-77380853D01*
X173786441Y-77418991D01*
X173798180Y-77446797D01*
X173804881Y-77463210D01*
X173806316Y-77467417D01*
X173799881Y-77464117D01*
X173781465Y-77453983D01*
X173751695Y-77437372D01*
X173711199Y-77414638D01*
X173660605Y-77386138D01*
X173600540Y-77352226D01*
X173531631Y-77313258D01*
X173454507Y-77269590D01*
X173369796Y-77221577D01*
X173278124Y-77169574D01*
X173180119Y-77113938D01*
X173076409Y-77055023D01*
X172967622Y-76993186D01*
X172854384Y-76928781D01*
X172737325Y-76862164D01*
X172657955Y-76816974D01*
X172538693Y-76749101D01*
X172422815Y-76683234D01*
X172310950Y-76619729D01*
X172203726Y-76558938D01*
X172101774Y-76501216D01*
X172005721Y-76446918D01*
X171916196Y-76396395D01*
X171833828Y-76350004D01*
X171759247Y-76308097D01*
X171693081Y-76271028D01*
X171635959Y-76239152D01*
X171588509Y-76212823D01*
X171551361Y-76192393D01*
X171525143Y-76178218D01*
X171510485Y-76170651D01*
X171507447Y-76169450D01*
X171504299Y-76177630D01*
X171497862Y-76197757D01*
X171488745Y-76227799D01*
X171477561Y-76265724D01*
X171464920Y-76309499D01*
X171457431Y-76335813D01*
X171442616Y-76387708D01*
X171430990Y-76427127D01*
X171421982Y-76455609D01*
X171415016Y-76474696D01*
X171409518Y-76485929D01*
X171404915Y-76490849D01*
X171400632Y-76490995D01*
X171399763Y-76490587D01*
X171390814Y-76486380D01*
X171369636Y-76476741D01*
X171337115Y-76462063D01*
X171294139Y-76442743D01*
X171241594Y-76419176D01*
X171180367Y-76391756D01*
X171111345Y-76360878D01*
X171035414Y-76326938D01*
X170953462Y-76290331D01*
X170866376Y-76251452D01*
X170775041Y-76210695D01*
X170680346Y-76168457D01*
X170583176Y-76125132D01*
X170484419Y-76081114D01*
X170384961Y-76036800D01*
X170285689Y-75992585D01*
X170187491Y-75948862D01*
X170091252Y-75906028D01*
X169997860Y-75864478D01*
X169908201Y-75824606D01*
X169823163Y-75786807D01*
X169743632Y-75751478D01*
X169670495Y-75719012D01*
X169604638Y-75689805D01*
X169546949Y-75664252D01*
X169498314Y-75642748D01*
X169459621Y-75625689D01*
X169431756Y-75613468D01*
X169415605Y-75606482D01*
X169411720Y-75604914D01*
X169409729Y-75611807D01*
G36*
X175782514Y-78547909D02*
G01*
X175699327Y-78548008D01*
X175629298Y-78548221D01*
X175571070Y-78548590D01*
X175523288Y-78549159D01*
X175484594Y-78549969D01*
X175453634Y-78551064D01*
X175429050Y-78552485D01*
X175409487Y-78554276D01*
X175393587Y-78556479D01*
X175379996Y-78559136D01*
X175373214Y-78560756D01*
X175298089Y-78586382D01*
X175231578Y-78622851D01*
X175174553Y-78669411D01*
X175127887Y-78725311D01*
X175092454Y-78789797D01*
X175084576Y-78809528D01*
X175077795Y-78830206D01*
X175073210Y-78851129D01*
X175070416Y-78875873D01*
X175069006Y-78908015D01*
X175068575Y-78950457D01*
X175068796Y-78992192D01*
X175069910Y-79022970D01*
X175072341Y-79046341D01*
X175076516Y-79065857D01*
X175082857Y-79085066D01*
X175085509Y-79091971D01*
X175104248Y-79134556D01*
X175124861Y-79168865D01*
X175151266Y-79200675D01*
X175175692Y-79224924D01*
X175209307Y-79251543D01*
X175252585Y-79278450D01*
X175300922Y-79303251D01*
X175349716Y-79323555D01*
X175388582Y-79335606D01*
X175426451Y-79344968D01*
X175392211Y-79368519D01*
X175332978Y-79416089D01*
X175273836Y-79476862D01*
X175215797Y-79549556D01*
X175159874Y-79632888D01*
X175107077Y-79725576D01*
X175100537Y-79738164D01*
X175071045Y-79799625D01*
X175051155Y-79850661D01*
X175040759Y-79891632D01*
X175039748Y-79922901D01*
X175042061Y-79933119D01*
X175061713Y-79972113D01*
X175091179Y-80000575D01*
X175129930Y-80018153D01*
X175177434Y-80024498D01*
X175180171Y-80024514D01*
X175226099Y-80019309D01*
X175265114Y-80002674D01*
X175300779Y-79973079D01*
X175301300Y-79972536D01*
X175310877Y-79960242D01*
X175326699Y-79937254D01*
X175347615Y-79905362D01*
X175372473Y-79866358D01*
X175400120Y-79822035D01*
X175429404Y-79774183D01*
X175438203Y-79759628D01*
X175485535Y-79681675D01*
X175526834Y-79615400D01*
X175563184Y-79559833D01*
X175595667Y-79514001D01*
X175625366Y-79476932D01*
X175653364Y-79447654D01*
X175680743Y-79425195D01*
X175708585Y-79408584D01*
X175737974Y-79396848D01*
X175769992Y-79389015D01*
X175805722Y-79384114D01*
X175846246Y-79381173D01*
X175860528Y-79380481D01*
X175949428Y-79376517D01*
X175949470Y-79615244D01*
X175949694Y-79674893D01*
X175950309Y-79731775D01*
X175951261Y-79783766D01*
X175952498Y-79828740D01*
X175953966Y-79864575D01*
X175955612Y-79889145D01*
X175956537Y-79896870D01*
X175969940Y-79944722D01*
X175992602Y-79981417D01*
X176024439Y-80006880D01*
X176065366Y-80021040D01*
X176103353Y-80024193D01*
X176147223Y-80019845D01*
X176175630Y-80009805D01*
X176208127Y-79984718D01*
X176231710Y-79948367D01*
X176238604Y-79930903D01*
X176240671Y-79917703D01*
X176242467Y-79892220D01*
X176243992Y-79856130D01*
X176245248Y-79811112D01*
X176246238Y-79758844D01*
X176246961Y-79701004D01*
X176247420Y-79639270D01*
X176247617Y-79575319D01*
X176247553Y-79510831D01*
X176247229Y-79447482D01*
X176246648Y-79386951D01*
X176245810Y-79330915D01*
X176244717Y-79281053D01*
X176243372Y-79239044D01*
X176241774Y-79206563D01*
X176239927Y-79185291D01*
X176237900Y-79176954D01*
X176228181Y-79174916D01*
X176204412Y-79173016D01*
X176167056Y-79171270D01*
X176116577Y-79169691D01*
X176053437Y-79168295D01*
X175978101Y-79167096D01*
X175902257Y-79166218D01*
X175821626Y-79165347D01*
X175754132Y-79164431D01*
X175698398Y-79163412D01*
X175653047Y-79162236D01*
X175616701Y-79160845D01*
X175587983Y-79159185D01*
X175565517Y-79157199D01*
X175547924Y-79154832D01*
X175533828Y-79152027D01*
X175530100Y-79151098D01*
X175473909Y-79132336D01*
X175430691Y-79108235D01*
X175399563Y-79077787D01*
X175379645Y-79039985D01*
X175370055Y-78993819D01*
X175368857Y-78966629D01*
X175375049Y-78913206D01*
X175393453Y-78867559D01*
X175423811Y-78830038D01*
X175465865Y-78800991D01*
X175502487Y-78785768D01*
X175512803Y-78782885D01*
X175525645Y-78780449D01*
X175542336Y-78778408D01*
X175564198Y-78776709D01*
X175592552Y-78775302D01*
X175628720Y-78774133D01*
X175674024Y-78773152D01*
X175729785Y-78772305D01*
X175797326Y-78771541D01*
X175877969Y-78770807D01*
X175884055Y-78770757D01*
X175974526Y-78769844D01*
X176052159Y-78768721D01*
X176116674Y-78767395D01*
X176167790Y-78765875D01*
X176205224Y-78764169D01*
X176228697Y-78762286D01*
X176237841Y-78760314D01*
X176243453Y-78748118D01*
X176246357Y-78726039D01*
X176246622Y-78698442D01*
X176244319Y-78669690D01*
X176239515Y-78644148D01*
X176235809Y-78632989D01*
X176220088Y-78603261D01*
X176199273Y-78581331D01*
X176170771Y-78563242D01*
X176163874Y-78559715D01*
X176156627Y-78556768D01*
X176147740Y-78554347D01*
X176135925Y-78552404D01*
X176119891Y-78550886D01*
X176098350Y-78549744D01*
X176070013Y-78548925D01*
X176033589Y-78548380D01*
X175987790Y-78548056D01*
X175931326Y-78547904D01*
X175862909Y-78547872D01*
X175782514Y-78547909D01*
G37*
X175782514Y-78547909D02*
X175699327Y-78548008D01*
X175629298Y-78548221D01*
X175571070Y-78548590D01*
X175523288Y-78549159D01*
X175484594Y-78549969D01*
X175453634Y-78551064D01*
X175429050Y-78552485D01*
X175409487Y-78554276D01*
X175393587Y-78556479D01*
X175379996Y-78559136D01*
X175373214Y-78560756D01*
X175298089Y-78586382D01*
X175231578Y-78622851D01*
X175174553Y-78669411D01*
X175127887Y-78725311D01*
X175092454Y-78789797D01*
X175084576Y-78809528D01*
X175077795Y-78830206D01*
X175073210Y-78851129D01*
X175070416Y-78875873D01*
X175069006Y-78908015D01*
X175068575Y-78950457D01*
X175068796Y-78992192D01*
X175069910Y-79022970D01*
X175072341Y-79046341D01*
X175076516Y-79065857D01*
X175082857Y-79085066D01*
X175085509Y-79091971D01*
X175104248Y-79134556D01*
X175124861Y-79168865D01*
X175151266Y-79200675D01*
X175175692Y-79224924D01*
X175209307Y-79251543D01*
X175252585Y-79278450D01*
X175300922Y-79303251D01*
X175349716Y-79323555D01*
X175388582Y-79335606D01*
X175426451Y-79344968D01*
X175392211Y-79368519D01*
X175332978Y-79416089D01*
X175273836Y-79476862D01*
X175215797Y-79549556D01*
X175159874Y-79632888D01*
X175107077Y-79725576D01*
X175100537Y-79738164D01*
X175071045Y-79799625D01*
X175051155Y-79850661D01*
X175040759Y-79891632D01*
X175039748Y-79922901D01*
X175042061Y-79933119D01*
X175061713Y-79972113D01*
X175091179Y-80000575D01*
X175129930Y-80018153D01*
X175177434Y-80024498D01*
X175180171Y-80024514D01*
X175226099Y-80019309D01*
X175265114Y-80002674D01*
X175300779Y-79973079D01*
X175301300Y-79972536D01*
X175310877Y-79960242D01*
X175326699Y-79937254D01*
X175347615Y-79905362D01*
X175372473Y-79866358D01*
X175400120Y-79822035D01*
X175429404Y-79774183D01*
X175438203Y-79759628D01*
X175485535Y-79681675D01*
X175526834Y-79615400D01*
X175563184Y-79559833D01*
X175595667Y-79514001D01*
X175625366Y-79476932D01*
X175653364Y-79447654D01*
X175680743Y-79425195D01*
X175708585Y-79408584D01*
X175737974Y-79396848D01*
X175769992Y-79389015D01*
X175805722Y-79384114D01*
X175846246Y-79381173D01*
X175860528Y-79380481D01*
X175949428Y-79376517D01*
X175949470Y-79615244D01*
X175949694Y-79674893D01*
X175950309Y-79731775D01*
X175951261Y-79783766D01*
X175952498Y-79828740D01*
X175953966Y-79864575D01*
X175955612Y-79889145D01*
X175956537Y-79896870D01*
X175969940Y-79944722D01*
X175992602Y-79981417D01*
X176024439Y-80006880D01*
X176065366Y-80021040D01*
X176103353Y-80024193D01*
X176147223Y-80019845D01*
X176175630Y-80009805D01*
X176208127Y-79984718D01*
X176231710Y-79948367D01*
X176238604Y-79930903D01*
X176240671Y-79917703D01*
X176242467Y-79892220D01*
X176243992Y-79856130D01*
X176245248Y-79811112D01*
X176246238Y-79758844D01*
X176246961Y-79701004D01*
X176247420Y-79639270D01*
X176247617Y-79575319D01*
X176247553Y-79510831D01*
X176247229Y-79447482D01*
X176246648Y-79386951D01*
X176245810Y-79330915D01*
X176244717Y-79281053D01*
X176243372Y-79239044D01*
X176241774Y-79206563D01*
X176239927Y-79185291D01*
X176237900Y-79176954D01*
X176228181Y-79174916D01*
X176204412Y-79173016D01*
X176167056Y-79171270D01*
X176116577Y-79169691D01*
X176053437Y-79168295D01*
X175978101Y-79167096D01*
X175902257Y-79166218D01*
X175821626Y-79165347D01*
X175754132Y-79164431D01*
X175698398Y-79163412D01*
X175653047Y-79162236D01*
X175616701Y-79160845D01*
X175587983Y-79159185D01*
X175565517Y-79157199D01*
X175547924Y-79154832D01*
X175533828Y-79152027D01*
X175530100Y-79151098D01*
X175473909Y-79132336D01*
X175430691Y-79108235D01*
X175399563Y-79077787D01*
X175379645Y-79039985D01*
X175370055Y-78993819D01*
X175368857Y-78966629D01*
X175375049Y-78913206D01*
X175393453Y-78867559D01*
X175423811Y-78830038D01*
X175465865Y-78800991D01*
X175502487Y-78785768D01*
X175512803Y-78782885D01*
X175525645Y-78780449D01*
X175542336Y-78778408D01*
X175564198Y-78776709D01*
X175592552Y-78775302D01*
X175628720Y-78774133D01*
X175674024Y-78773152D01*
X175729785Y-78772305D01*
X175797326Y-78771541D01*
X175877969Y-78770807D01*
X175884055Y-78770757D01*
X175974526Y-78769844D01*
X176052159Y-78768721D01*
X176116674Y-78767395D01*
X176167790Y-78765875D01*
X176205224Y-78764169D01*
X176228697Y-78762286D01*
X176237841Y-78760314D01*
X176243453Y-78748118D01*
X176246357Y-78726039D01*
X176246622Y-78698442D01*
X176244319Y-78669690D01*
X176239515Y-78644148D01*
X176235809Y-78632989D01*
X176220088Y-78603261D01*
X176199273Y-78581331D01*
X176170771Y-78563242D01*
X176163874Y-78559715D01*
X176156627Y-78556768D01*
X176147740Y-78554347D01*
X176135925Y-78552404D01*
X176119891Y-78550886D01*
X176098350Y-78549744D01*
X176070013Y-78548925D01*
X176033589Y-78548380D01*
X175987790Y-78548056D01*
X175931326Y-78547904D01*
X175862909Y-78547872D01*
X175782514Y-78547909D01*
G36*
X174102485Y-78524524D02*
G01*
X174032457Y-78528731D01*
X173972509Y-78536204D01*
X173918383Y-78547955D01*
X173865821Y-78565000D01*
X173810564Y-78588349D01*
X173786920Y-78599600D01*
X173752044Y-78617058D01*
X173725023Y-78632164D01*
X173702093Y-78647661D01*
X173679494Y-78666292D01*
X173653463Y-78690800D01*
X173630389Y-78713720D01*
X173599835Y-78744911D01*
X173577102Y-78770003D01*
X173559410Y-78792813D01*
X173543983Y-78817157D01*
X173528041Y-78846853D01*
X173516188Y-78870628D01*
X173485854Y-78938408D01*
X173463002Y-79004368D01*
X173446900Y-79071983D01*
X173436817Y-79144728D01*
X173432021Y-79226076D01*
X173431373Y-79273400D01*
X173436257Y-79387275D01*
X173451358Y-79491293D01*
X173476945Y-79586169D01*
X173513286Y-79672613D01*
X173560650Y-79751340D01*
X173619306Y-79823062D01*
X173650264Y-79854003D01*
X173717887Y-79909451D01*
X173791228Y-79953510D01*
X173871350Y-79986542D01*
X173959314Y-80008911D01*
X174056184Y-80020981D01*
X174145165Y-80023427D01*
X174184201Y-80022822D01*
X174219717Y-80021924D01*
X174248344Y-80020842D01*
X174266708Y-80019686D01*
X174269400Y-80019385D01*
X174338212Y-80005854D01*
X174409696Y-79984353D01*
X174478969Y-79956709D01*
X174541150Y-79924747D01*
X174568200Y-79907618D01*
X174639198Y-79850571D01*
X174700369Y-79783416D01*
X174751889Y-79705868D01*
X174793937Y-79617645D01*
X174826690Y-79518461D01*
X174836193Y-79480228D01*
X174841659Y-79447656D01*
X174846108Y-79404222D01*
X174849428Y-79353550D01*
X174851506Y-79299264D01*
X174851949Y-79266143D01*
X174550688Y-79266143D01*
X174549592Y-79329634D01*
X174545642Y-79383046D01*
X174538156Y-79430651D01*
X174526453Y-79476720D01*
X174509851Y-79525525D01*
X174508904Y-79528049D01*
X174475559Y-79597756D01*
X174432376Y-79657684D01*
X174380650Y-79707166D01*
X174321675Y-79745534D01*
X174256745Y-79772122D01*
X174187155Y-79786263D01*
X174114200Y-79787290D01*
X174039173Y-79774534D01*
X174033542Y-79773016D01*
X173965467Y-79747022D01*
X173905428Y-79709168D01*
X173853720Y-79659871D01*
X173810639Y-79599549D01*
X173776479Y-79528620D01*
X173751537Y-79447501D01*
X173736107Y-79356610D01*
X173735570Y-79351622D01*
X173731281Y-79263150D01*
X173736712Y-79177047D01*
X173751344Y-79095214D01*
X173774661Y-79019548D01*
X173806145Y-78951949D01*
X173845277Y-78894315D01*
X173866722Y-78870650D01*
X173922327Y-78824599D01*
X173984318Y-78791286D01*
X174053201Y-78770512D01*
X174129485Y-78762080D01*
X174145739Y-78761857D01*
X174220864Y-78767363D01*
X174287479Y-78784029D01*
X174346963Y-78812392D01*
X174400697Y-78852988D01*
X174414781Y-78866500D01*
X174460209Y-78921604D01*
X174496984Y-78987085D01*
X174525575Y-79063822D01*
X174531959Y-79086610D01*
X174539644Y-79117959D01*
X174544921Y-79146005D01*
X174548224Y-79174910D01*
X174549987Y-79208837D01*
X174550644Y-79251947D01*
X174550688Y-79266143D01*
X174851949Y-79266143D01*
X174852233Y-79244990D01*
X174851495Y-79194350D01*
X174849182Y-79150970D01*
X174846980Y-79129848D01*
X174826919Y-79026111D01*
X174795712Y-78930352D01*
X174753824Y-78843173D01*
X174701720Y-78765179D01*
X174639863Y-78696976D01*
X174568719Y-78639168D01*
X174488752Y-78592358D01*
X174408876Y-78559885D01*
X174348448Y-78542599D01*
X174287312Y-78531036D01*
X174221755Y-78524768D01*
X174148068Y-78523367D01*
X174102485Y-78524524D01*
G37*
X174102485Y-78524524D02*
X174032457Y-78528731D01*
X173972509Y-78536204D01*
X173918383Y-78547955D01*
X173865821Y-78565000D01*
X173810564Y-78588349D01*
X173786920Y-78599600D01*
X173752044Y-78617058D01*
X173725023Y-78632164D01*
X173702093Y-78647661D01*
X173679494Y-78666292D01*
X173653463Y-78690800D01*
X173630389Y-78713720D01*
X173599835Y-78744911D01*
X173577102Y-78770003D01*
X173559410Y-78792813D01*
X173543983Y-78817157D01*
X173528041Y-78846853D01*
X173516188Y-78870628D01*
X173485854Y-78938408D01*
X173463002Y-79004368D01*
X173446900Y-79071983D01*
X173436817Y-79144728D01*
X173432021Y-79226076D01*
X173431373Y-79273400D01*
X173436257Y-79387275D01*
X173451358Y-79491293D01*
X173476945Y-79586169D01*
X173513286Y-79672613D01*
X173560650Y-79751340D01*
X173619306Y-79823062D01*
X173650264Y-79854003D01*
X173717887Y-79909451D01*
X173791228Y-79953510D01*
X173871350Y-79986542D01*
X173959314Y-80008911D01*
X174056184Y-80020981D01*
X174145165Y-80023427D01*
X174184201Y-80022822D01*
X174219717Y-80021924D01*
X174248344Y-80020842D01*
X174266708Y-80019686D01*
X174269400Y-80019385D01*
X174338212Y-80005854D01*
X174409696Y-79984353D01*
X174478969Y-79956709D01*
X174541150Y-79924747D01*
X174568200Y-79907618D01*
X174639198Y-79850571D01*
X174700369Y-79783416D01*
X174751889Y-79705868D01*
X174793937Y-79617645D01*
X174826690Y-79518461D01*
X174836193Y-79480228D01*
X174841659Y-79447656D01*
X174846108Y-79404222D01*
X174849428Y-79353550D01*
X174851506Y-79299264D01*
X174851949Y-79266143D01*
X174550688Y-79266143D01*
X174549592Y-79329634D01*
X174545642Y-79383046D01*
X174538156Y-79430651D01*
X174526453Y-79476720D01*
X174509851Y-79525525D01*
X174508904Y-79528049D01*
X174475559Y-79597756D01*
X174432376Y-79657684D01*
X174380650Y-79707166D01*
X174321675Y-79745534D01*
X174256745Y-79772122D01*
X174187155Y-79786263D01*
X174114200Y-79787290D01*
X174039173Y-79774534D01*
X174033542Y-79773016D01*
X173965467Y-79747022D01*
X173905428Y-79709168D01*
X173853720Y-79659871D01*
X173810639Y-79599549D01*
X173776479Y-79528620D01*
X173751537Y-79447501D01*
X173736107Y-79356610D01*
X173735570Y-79351622D01*
X173731281Y-79263150D01*
X173736712Y-79177047D01*
X173751344Y-79095214D01*
X173774661Y-79019548D01*
X173806145Y-78951949D01*
X173845277Y-78894315D01*
X173866722Y-78870650D01*
X173922327Y-78824599D01*
X173984318Y-78791286D01*
X174053201Y-78770512D01*
X174129485Y-78762080D01*
X174145739Y-78761857D01*
X174220864Y-78767363D01*
X174287479Y-78784029D01*
X174346963Y-78812392D01*
X174400697Y-78852988D01*
X174414781Y-78866500D01*
X174460209Y-78921604D01*
X174496984Y-78987085D01*
X174525575Y-79063822D01*
X174531959Y-79086610D01*
X174539644Y-79117959D01*
X174544921Y-79146005D01*
X174548224Y-79174910D01*
X174549987Y-79208837D01*
X174550644Y-79251947D01*
X174550688Y-79266143D01*
X174851949Y-79266143D01*
X174852233Y-79244990D01*
X174851495Y-79194350D01*
X174849182Y-79150970D01*
X174846980Y-79129848D01*
X174826919Y-79026111D01*
X174795712Y-78930352D01*
X174753824Y-78843173D01*
X174701720Y-78765179D01*
X174639863Y-78696976D01*
X174568719Y-78639168D01*
X174488752Y-78592358D01*
X174408876Y-78559885D01*
X174348448Y-78542599D01*
X174287312Y-78531036D01*
X174221755Y-78524768D01*
X174148068Y-78523367D01*
X174102485Y-78524524D01*
G36*
X171004429Y-78524312D02*
G01*
X170951460Y-78528781D01*
X170947178Y-78529340D01*
X170846655Y-78549399D01*
X170754706Y-78580971D01*
X170671637Y-78623642D01*
X170597754Y-78676995D01*
X170533364Y-78740617D01*
X170478774Y-78814090D01*
X170434289Y-78896999D01*
X170400217Y-78988929D01*
X170376863Y-79089464D01*
X170364534Y-79198189D01*
X170363536Y-79314688D01*
X170363783Y-79320571D01*
X170373493Y-79430186D01*
X170392694Y-79529498D01*
X170421778Y-79619514D01*
X170461137Y-79701239D01*
X170511161Y-79775678D01*
X170564628Y-79836271D01*
X170626278Y-79891577D01*
X170691792Y-79936166D01*
X170764221Y-79971764D01*
X170846619Y-80000096D01*
X170861597Y-80004250D01*
X170895171Y-80010849D01*
X170939674Y-80016096D01*
X170991572Y-80019897D01*
X171047336Y-80022158D01*
X171103433Y-80022787D01*
X171156333Y-80021689D01*
X171202502Y-80018772D01*
X171237064Y-80014200D01*
X171335220Y-79988971D01*
X171424517Y-79952360D01*
X171504692Y-79904681D01*
X171575483Y-79846245D01*
X171636625Y-79777366D01*
X171687856Y-79698357D01*
X171728912Y-79609531D01*
X171759531Y-79511202D01*
X171779450Y-79403682D01*
X171783878Y-79363568D01*
X171788396Y-79249790D01*
X171481833Y-79249790D01*
X171481771Y-79277028D01*
X171480215Y-79342850D01*
X171475816Y-79397968D01*
X171467876Y-79446032D01*
X171455696Y-79490695D01*
X171438578Y-79535607D01*
X171427644Y-79559952D01*
X171388727Y-79627734D01*
X171341169Y-79684111D01*
X171285786Y-79728691D01*
X171223390Y-79761080D01*
X171154799Y-79780885D01*
X171080826Y-79787713D01*
X171002287Y-79781170D01*
X170978514Y-79776660D01*
X170916792Y-79756336D01*
X170858498Y-79723280D01*
X170805705Y-79679215D01*
X170760490Y-79625858D01*
X170726051Y-79567314D01*
X170707329Y-79526104D01*
X170693194Y-79489308D01*
X170683036Y-79453687D01*
X170676245Y-79416002D01*
X170672208Y-79373013D01*
X170670316Y-79321480D01*
X170669936Y-79269771D01*
X170670159Y-79220040D01*
X170670935Y-79181826D01*
X170672526Y-79152135D01*
X170675193Y-79127970D01*
X170679197Y-79106339D01*
X170684800Y-79084246D01*
X170686723Y-79077457D01*
X170715938Y-78996966D01*
X170753929Y-78927867D01*
X170800594Y-78870272D01*
X170855831Y-78824289D01*
X170919536Y-78790030D01*
X170971357Y-78772478D01*
X171009262Y-78765769D01*
X171055585Y-78762564D01*
X171104661Y-78762852D01*
X171150826Y-78766623D01*
X171184812Y-78772883D01*
X171251755Y-78797514D01*
X171311187Y-78834377D01*
X171362768Y-78883086D01*
X171406158Y-78943254D01*
X171441015Y-79014494D01*
X171465965Y-79092265D01*
X171472447Y-79120143D01*
X171476967Y-79146239D01*
X171479833Y-79174148D01*
X171481352Y-79207466D01*
X171481833Y-79249790D01*
X171788396Y-79249790D01*
X171788414Y-79249342D01*
X171780858Y-79139444D01*
X171761495Y-79034925D01*
X171730611Y-78936835D01*
X171688490Y-78846224D01*
X171635416Y-78764142D01*
X171614115Y-78737396D01*
X171565703Y-78688644D01*
X171506147Y-78643033D01*
X171438774Y-78602550D01*
X171366909Y-78569181D01*
X171293876Y-78544912D01*
X171290342Y-78543996D01*
X171244680Y-78535067D01*
X171188959Y-78528450D01*
X171127478Y-78524330D01*
X171064535Y-78522889D01*
X171004429Y-78524312D01*
G37*
X171004429Y-78524312D02*
X170951460Y-78528781D01*
X170947178Y-78529340D01*
X170846655Y-78549399D01*
X170754706Y-78580971D01*
X170671637Y-78623642D01*
X170597754Y-78676995D01*
X170533364Y-78740617D01*
X170478774Y-78814090D01*
X170434289Y-78896999D01*
X170400217Y-78988929D01*
X170376863Y-79089464D01*
X170364534Y-79198189D01*
X170363536Y-79314688D01*
X170363783Y-79320571D01*
X170373493Y-79430186D01*
X170392694Y-79529498D01*
X170421778Y-79619514D01*
X170461137Y-79701239D01*
X170511161Y-79775678D01*
X170564628Y-79836271D01*
X170626278Y-79891577D01*
X170691792Y-79936166D01*
X170764221Y-79971764D01*
X170846619Y-80000096D01*
X170861597Y-80004250D01*
X170895171Y-80010849D01*
X170939674Y-80016096D01*
X170991572Y-80019897D01*
X171047336Y-80022158D01*
X171103433Y-80022787D01*
X171156333Y-80021689D01*
X171202502Y-80018772D01*
X171237064Y-80014200D01*
X171335220Y-79988971D01*
X171424517Y-79952360D01*
X171504692Y-79904681D01*
X171575483Y-79846245D01*
X171636625Y-79777366D01*
X171687856Y-79698357D01*
X171728912Y-79609531D01*
X171759531Y-79511202D01*
X171779450Y-79403682D01*
X171783878Y-79363568D01*
X171788396Y-79249790D01*
X171481833Y-79249790D01*
X171481771Y-79277028D01*
X171480215Y-79342850D01*
X171475816Y-79397968D01*
X171467876Y-79446032D01*
X171455696Y-79490695D01*
X171438578Y-79535607D01*
X171427644Y-79559952D01*
X171388727Y-79627734D01*
X171341169Y-79684111D01*
X171285786Y-79728691D01*
X171223390Y-79761080D01*
X171154799Y-79780885D01*
X171080826Y-79787713D01*
X171002287Y-79781170D01*
X170978514Y-79776660D01*
X170916792Y-79756336D01*
X170858498Y-79723280D01*
X170805705Y-79679215D01*
X170760490Y-79625858D01*
X170726051Y-79567314D01*
X170707329Y-79526104D01*
X170693194Y-79489308D01*
X170683036Y-79453687D01*
X170676245Y-79416002D01*
X170672208Y-79373013D01*
X170670316Y-79321480D01*
X170669936Y-79269771D01*
X170670159Y-79220040D01*
X170670935Y-79181826D01*
X170672526Y-79152135D01*
X170675193Y-79127970D01*
X170679197Y-79106339D01*
X170684800Y-79084246D01*
X170686723Y-79077457D01*
X170715938Y-78996966D01*
X170753929Y-78927867D01*
X170800594Y-78870272D01*
X170855831Y-78824289D01*
X170919536Y-78790030D01*
X170971357Y-78772478D01*
X171009262Y-78765769D01*
X171055585Y-78762564D01*
X171104661Y-78762852D01*
X171150826Y-78766623D01*
X171184812Y-78772883D01*
X171251755Y-78797514D01*
X171311187Y-78834377D01*
X171362768Y-78883086D01*
X171406158Y-78943254D01*
X171441015Y-79014494D01*
X171465965Y-79092265D01*
X171472447Y-79120143D01*
X171476967Y-79146239D01*
X171479833Y-79174148D01*
X171481352Y-79207466D01*
X171481833Y-79249790D01*
X171788396Y-79249790D01*
X171788414Y-79249342D01*
X171780858Y-79139444D01*
X171761495Y-79034925D01*
X171730611Y-78936835D01*
X171688490Y-78846224D01*
X171635416Y-78764142D01*
X171614115Y-78737396D01*
X171565703Y-78688644D01*
X171506147Y-78643033D01*
X171438774Y-78602550D01*
X171366909Y-78569181D01*
X171293876Y-78544912D01*
X171290342Y-78543996D01*
X171244680Y-78535067D01*
X171188959Y-78528450D01*
X171127478Y-78524330D01*
X171064535Y-78522889D01*
X171004429Y-78524312D01*
G36*
X169629776Y-78544252D02*
G01*
X169554707Y-78544441D01*
X169482732Y-78544780D01*
X169415317Y-78545269D01*
X169353930Y-78545910D01*
X169300039Y-78546703D01*
X169255110Y-78547651D01*
X169220610Y-78548753D01*
X169198008Y-78550011D01*
X169189961Y-78551005D01*
X169150217Y-78566768D01*
X169120026Y-78592134D01*
X169100552Y-78624933D01*
X169092959Y-78662991D01*
X169098410Y-78704135D01*
X169102101Y-78715052D01*
X169120063Y-78746539D01*
X169144243Y-78767608D01*
X169173785Y-78787171D01*
X169368211Y-78789417D01*
X169562637Y-78791662D01*
X169564704Y-79355474D01*
X169565099Y-79459483D01*
X169565488Y-79549971D01*
X169565895Y-79627930D01*
X169566349Y-79694353D01*
X169566875Y-79750232D01*
X169567500Y-79796560D01*
X169568249Y-79834329D01*
X169569150Y-79864533D01*
X169570228Y-79888164D01*
X169571511Y-79906214D01*
X169573023Y-79919676D01*
X169574793Y-79929543D01*
X169576846Y-79936807D01*
X169579207Y-79942462D01*
X169580346Y-79944686D01*
X169598594Y-79974196D01*
X169618354Y-79994558D01*
X169644459Y-80010753D01*
X169644496Y-80010772D01*
X169673649Y-80020260D01*
X169709096Y-80024213D01*
X169744614Y-80022503D01*
X169773978Y-80015002D01*
X169777228Y-80013490D01*
X169807176Y-79991838D01*
X169833022Y-79961238D01*
X169850310Y-79927253D01*
X169852642Y-79919401D01*
X169854374Y-79906144D01*
X169855887Y-79880811D01*
X169857185Y-79843098D01*
X169858271Y-79792700D01*
X169859151Y-79729313D01*
X169859828Y-79652633D01*
X169860306Y-79562355D01*
X169860591Y-79458174D01*
X169860685Y-79339786D01*
X169860685Y-78790800D01*
X170047557Y-78790640D01*
X170105609Y-78790496D01*
X170151074Y-78790094D01*
X170185878Y-78789312D01*
X170211949Y-78788029D01*
X170231213Y-78786123D01*
X170245597Y-78783472D01*
X170257027Y-78779956D01*
X170264175Y-78776972D01*
X170296233Y-78755240D01*
X170318341Y-78725552D01*
X170330069Y-78690904D01*
X170330988Y-78654296D01*
X170320668Y-78618726D01*
X170298679Y-78587192D01*
X170292241Y-78581101D01*
X170269926Y-78565368D01*
X170245526Y-78553519D01*
X170240069Y-78551750D01*
X170227811Y-78550362D01*
X170202507Y-78549112D01*
X170165623Y-78548002D01*
X170118627Y-78547031D01*
X170062987Y-78546202D01*
X170000170Y-78545515D01*
X169931642Y-78544972D01*
X169858872Y-78544573D01*
X169783326Y-78544319D01*
X169706472Y-78544212D01*
X169629776Y-78544252D01*
G37*
X169629776Y-78544252D02*
X169554707Y-78544441D01*
X169482732Y-78544780D01*
X169415317Y-78545269D01*
X169353930Y-78545910D01*
X169300039Y-78546703D01*
X169255110Y-78547651D01*
X169220610Y-78548753D01*
X169198008Y-78550011D01*
X169189961Y-78551005D01*
X169150217Y-78566768D01*
X169120026Y-78592134D01*
X169100552Y-78624933D01*
X169092959Y-78662991D01*
X169098410Y-78704135D01*
X169102101Y-78715052D01*
X169120063Y-78746539D01*
X169144243Y-78767608D01*
X169173785Y-78787171D01*
X169368211Y-78789417D01*
X169562637Y-78791662D01*
X169564704Y-79355474D01*
X169565099Y-79459483D01*
X169565488Y-79549971D01*
X169565895Y-79627930D01*
X169566349Y-79694353D01*
X169566875Y-79750232D01*
X169567500Y-79796560D01*
X169568249Y-79834329D01*
X169569150Y-79864533D01*
X169570228Y-79888164D01*
X169571511Y-79906214D01*
X169573023Y-79919676D01*
X169574793Y-79929543D01*
X169576846Y-79936807D01*
X169579207Y-79942462D01*
X169580346Y-79944686D01*
X169598594Y-79974196D01*
X169618354Y-79994558D01*
X169644459Y-80010753D01*
X169644496Y-80010772D01*
X169673649Y-80020260D01*
X169709096Y-80024213D01*
X169744614Y-80022503D01*
X169773978Y-80015002D01*
X169777228Y-80013490D01*
X169807176Y-79991838D01*
X169833022Y-79961238D01*
X169850310Y-79927253D01*
X169852642Y-79919401D01*
X169854374Y-79906144D01*
X169855887Y-79880811D01*
X169857185Y-79843098D01*
X169858271Y-79792700D01*
X169859151Y-79729313D01*
X169859828Y-79652633D01*
X169860306Y-79562355D01*
X169860591Y-79458174D01*
X169860685Y-79339786D01*
X169860685Y-78790800D01*
X170047557Y-78790640D01*
X170105609Y-78790496D01*
X170151074Y-78790094D01*
X170185878Y-78789312D01*
X170211949Y-78788029D01*
X170231213Y-78786123D01*
X170245597Y-78783472D01*
X170257027Y-78779956D01*
X170264175Y-78776972D01*
X170296233Y-78755240D01*
X170318341Y-78725552D01*
X170330069Y-78690904D01*
X170330988Y-78654296D01*
X170320668Y-78618726D01*
X170298679Y-78587192D01*
X170292241Y-78581101D01*
X170269926Y-78565368D01*
X170245526Y-78553519D01*
X170240069Y-78551750D01*
X170227811Y-78550362D01*
X170202507Y-78549112D01*
X170165623Y-78548002D01*
X170118627Y-78547031D01*
X170062987Y-78546202D01*
X170000170Y-78545515D01*
X169931642Y-78544972D01*
X169858872Y-78544573D01*
X169783326Y-78544319D01*
X169706472Y-78544212D01*
X169629776Y-78544252D01*
G36*
X168714601Y-78528867D02*
G01*
X168675517Y-78547409D01*
X168644919Y-78577424D01*
X168623748Y-78618185D01*
X168619543Y-78631779D01*
X168618090Y-78644776D01*
X168616842Y-78672088D01*
X168615802Y-78713515D01*
X168614969Y-78768859D01*
X168614347Y-78837922D01*
X168613937Y-78920503D01*
X168613740Y-79016405D01*
X168613758Y-79125429D01*
X168613993Y-79247377D01*
X168614115Y-79289268D01*
X168614465Y-79399335D01*
X168614800Y-79495829D01*
X168615142Y-79579690D01*
X168615517Y-79651859D01*
X168615948Y-79713278D01*
X168616460Y-79764887D01*
X168617078Y-79807628D01*
X168617825Y-79842440D01*
X168618726Y-79870265D01*
X168619805Y-79892044D01*
X168621087Y-79908718D01*
X168622595Y-79921227D01*
X168624354Y-79930513D01*
X168626388Y-79937517D01*
X168628722Y-79943178D01*
X168631110Y-79947927D01*
X168646723Y-79970957D01*
X168667233Y-79993267D01*
X168673372Y-79998613D01*
X168690117Y-80010671D01*
X168706540Y-80017714D01*
X168727906Y-80021357D01*
X168752689Y-80022933D01*
X168787978Y-80022933D01*
X168812962Y-80018966D01*
X168826526Y-80013473D01*
X168855892Y-79994191D01*
X168877461Y-79970407D01*
X168890815Y-79948314D01*
X168893532Y-79943076D01*
X168895916Y-79937528D01*
X168897991Y-79930728D01*
X168899783Y-79921736D01*
X168901317Y-79909611D01*
X168902618Y-79893412D01*
X168903711Y-79872198D01*
X168904620Y-79845028D01*
X168905372Y-79810960D01*
X168905990Y-79769055D01*
X168906500Y-79718370D01*
X168906928Y-79657966D01*
X168907297Y-79586900D01*
X168907633Y-79504233D01*
X168907961Y-79409023D01*
X168908307Y-79300329D01*
X168908341Y-79289268D01*
X168908646Y-79163211D01*
X168908734Y-79050013D01*
X168908606Y-78949873D01*
X168908264Y-78862990D01*
X168907710Y-78789563D01*
X168906945Y-78729790D01*
X168905971Y-78683869D01*
X168904790Y-78652000D01*
X168903403Y-78634382D01*
X168902914Y-78631779D01*
X168884626Y-78588065D01*
X168856639Y-78554888D01*
X168819896Y-78532976D01*
X168775339Y-78523055D01*
X168761228Y-78522524D01*
X168714601Y-78528867D01*
G37*
X168714601Y-78528867D02*
X168675517Y-78547409D01*
X168644919Y-78577424D01*
X168623748Y-78618185D01*
X168619543Y-78631779D01*
X168618090Y-78644776D01*
X168616842Y-78672088D01*
X168615802Y-78713515D01*
X168614969Y-78768859D01*
X168614347Y-78837922D01*
X168613937Y-78920503D01*
X168613740Y-79016405D01*
X168613758Y-79125429D01*
X168613993Y-79247377D01*
X168614115Y-79289268D01*
X168614465Y-79399335D01*
X168614800Y-79495829D01*
X168615142Y-79579690D01*
X168615517Y-79651859D01*
X168615948Y-79713278D01*
X168616460Y-79764887D01*
X168617078Y-79807628D01*
X168617825Y-79842440D01*
X168618726Y-79870265D01*
X168619805Y-79892044D01*
X168621087Y-79908718D01*
X168622595Y-79921227D01*
X168624354Y-79930513D01*
X168626388Y-79937517D01*
X168628722Y-79943178D01*
X168631110Y-79947927D01*
X168646723Y-79970957D01*
X168667233Y-79993267D01*
X168673372Y-79998613D01*
X168690117Y-80010671D01*
X168706540Y-80017714D01*
X168727906Y-80021357D01*
X168752689Y-80022933D01*
X168787978Y-80022933D01*
X168812962Y-80018966D01*
X168826526Y-80013473D01*
X168855892Y-79994191D01*
X168877461Y-79970407D01*
X168890815Y-79948314D01*
X168893532Y-79943076D01*
X168895916Y-79937528D01*
X168897991Y-79930728D01*
X168899783Y-79921736D01*
X168901317Y-79909611D01*
X168902618Y-79893412D01*
X168903711Y-79872198D01*
X168904620Y-79845028D01*
X168905372Y-79810960D01*
X168905990Y-79769055D01*
X168906500Y-79718370D01*
X168906928Y-79657966D01*
X168907297Y-79586900D01*
X168907633Y-79504233D01*
X168907961Y-79409023D01*
X168908307Y-79300329D01*
X168908341Y-79289268D01*
X168908646Y-79163211D01*
X168908734Y-79050013D01*
X168908606Y-78949873D01*
X168908264Y-78862990D01*
X168907710Y-78789563D01*
X168906945Y-78729790D01*
X168905971Y-78683869D01*
X168904790Y-78652000D01*
X168903403Y-78634382D01*
X168902914Y-78631779D01*
X168884626Y-78588065D01*
X168856639Y-78554888D01*
X168819896Y-78532976D01*
X168775339Y-78523055D01*
X168761228Y-78522524D01*
X168714601Y-78528867D01*
G36*
X172794773Y-78544440D02*
G01*
X172728442Y-78544913D01*
X172661276Y-78545793D01*
X172595226Y-78547057D01*
X172532242Y-78548679D01*
X172474277Y-78550634D01*
X172423283Y-78552897D01*
X172381209Y-78555445D01*
X172350009Y-78558251D01*
X172333289Y-78560870D01*
X172262212Y-78584246D01*
X172198821Y-78618720D01*
X172144433Y-78663296D01*
X172100361Y-78716980D01*
X172079520Y-78752940D01*
X172053652Y-78819520D01*
X172041451Y-78886866D01*
X172042463Y-78953381D01*
X172056237Y-79017469D01*
X172082321Y-79077534D01*
X172120264Y-79131979D01*
X172169613Y-79179207D01*
X172207526Y-79205240D01*
X172246901Y-79228791D01*
X172180545Y-79261229D01*
X172114584Y-79300055D01*
X172061324Y-79345896D01*
X172020688Y-79398884D01*
X171992602Y-79459148D01*
X171976990Y-79526819D01*
X171973776Y-79602026D01*
X171974535Y-79616797D01*
X171986158Y-79692611D01*
X172010350Y-79762167D01*
X172046462Y-79824434D01*
X172093844Y-79878379D01*
X172151847Y-79922969D01*
X172175969Y-79936943D01*
X172231361Y-79960674D01*
X172298497Y-79979367D01*
X172375325Y-79992486D01*
X172399640Y-79995223D01*
X172423259Y-79996849D01*
X172458113Y-79998250D01*
X172502314Y-79999423D01*
X172553973Y-80000368D01*
X172611204Y-80001083D01*
X172672118Y-80001565D01*
X172734828Y-80001813D01*
X172797446Y-80001826D01*
X172858085Y-80001602D01*
X172914857Y-80001139D01*
X172965874Y-80000436D01*
X173009248Y-79999490D01*
X173043092Y-79998301D01*
X173065518Y-79996866D01*
X173073000Y-79995820D01*
X173113709Y-79979178D01*
X173146281Y-79951441D01*
X173163985Y-79924455D01*
X173180828Y-79890257D01*
X173181206Y-79778936D01*
X172886914Y-79778936D01*
X172678271Y-79776115D01*
X172616643Y-79775204D01*
X172567573Y-79774232D01*
X172529105Y-79773057D01*
X172499283Y-79771538D01*
X172476152Y-79769532D01*
X172457754Y-79766898D01*
X172442136Y-79763494D01*
X172427339Y-79759178D01*
X172422457Y-79757581D01*
X172370480Y-79735984D01*
X172331364Y-79709378D01*
X172303889Y-79676270D01*
X172286835Y-79635165D01*
X172278979Y-79584569D01*
X172278806Y-79581757D01*
X172280039Y-79526015D01*
X172291322Y-79479737D01*
X172313468Y-79441827D01*
X172347287Y-79411187D01*
X172393590Y-79386721D01*
X172433342Y-79372835D01*
X172449385Y-79369284D01*
X172472349Y-79366345D01*
X172503691Y-79363935D01*
X172544866Y-79361971D01*
X172597331Y-79360369D01*
X172662542Y-79359045D01*
X172678271Y-79358790D01*
X172886914Y-79355534D01*
X172886914Y-79778936D01*
X173181206Y-79778936D01*
X173182848Y-79295495D01*
X173183182Y-79176138D01*
X173183229Y-79140167D01*
X172886914Y-79140167D01*
X172685528Y-79137444D01*
X172623786Y-79136489D01*
X172574723Y-79135400D01*
X172536501Y-79134057D01*
X172507284Y-79132338D01*
X172485237Y-79130123D01*
X172468522Y-79127290D01*
X172455305Y-79123719D01*
X172450304Y-79121951D01*
X172409915Y-79099619D01*
X172375139Y-79066765D01*
X172352926Y-79032941D01*
X172344976Y-79011764D01*
X172340563Y-78985427D01*
X172339024Y-78949653D01*
X172339000Y-78943200D01*
X172341546Y-78898789D01*
X172350073Y-78865275D01*
X172365911Y-78839809D01*
X172390392Y-78819537D01*
X172399171Y-78814295D01*
X172421449Y-78803073D01*
X172445416Y-78794042D01*
X172473004Y-78786929D01*
X172506147Y-78781459D01*
X172546780Y-78777357D01*
X172596836Y-78774348D01*
X172658248Y-78772159D01*
X172703671Y-78771076D01*
X172886914Y-78767287D01*
X172886914Y-79140167D01*
X173183229Y-79140167D01*
X173183321Y-79070728D01*
X173183260Y-78978699D01*
X173182993Y-78899486D01*
X173182514Y-78832523D01*
X173181818Y-78777244D01*
X173180899Y-78733083D01*
X173179751Y-78699475D01*
X173178369Y-78675853D01*
X173176748Y-78661652D01*
X173176524Y-78660495D01*
X173160979Y-78618277D01*
X173134289Y-78584911D01*
X173097597Y-78561523D01*
X173065932Y-78551556D01*
X173045594Y-78549061D01*
X173012712Y-78547123D01*
X172969238Y-78545716D01*
X172917122Y-78544817D01*
X172858317Y-78544400D01*
X172794773Y-78544440D01*
G37*
X172794773Y-78544440D02*
X172728442Y-78544913D01*
X172661276Y-78545793D01*
X172595226Y-78547057D01*
X172532242Y-78548679D01*
X172474277Y-78550634D01*
X172423283Y-78552897D01*
X172381209Y-78555445D01*
X172350009Y-78558251D01*
X172333289Y-78560870D01*
X172262212Y-78584246D01*
X172198821Y-78618720D01*
X172144433Y-78663296D01*
X172100361Y-78716980D01*
X172079520Y-78752940D01*
X172053652Y-78819520D01*
X172041451Y-78886866D01*
X172042463Y-78953381D01*
X172056237Y-79017469D01*
X172082321Y-79077534D01*
X172120264Y-79131979D01*
X172169613Y-79179207D01*
X172207526Y-79205240D01*
X172246901Y-79228791D01*
X172180545Y-79261229D01*
X172114584Y-79300055D01*
X172061324Y-79345896D01*
X172020688Y-79398884D01*
X171992602Y-79459148D01*
X171976990Y-79526819D01*
X171973776Y-79602026D01*
X171974535Y-79616797D01*
X171986158Y-79692611D01*
X172010350Y-79762167D01*
X172046462Y-79824434D01*
X172093844Y-79878379D01*
X172151847Y-79922969D01*
X172175969Y-79936943D01*
X172231361Y-79960674D01*
X172298497Y-79979367D01*
X172375325Y-79992486D01*
X172399640Y-79995223D01*
X172423259Y-79996849D01*
X172458113Y-79998250D01*
X172502314Y-79999423D01*
X172553973Y-80000368D01*
X172611204Y-80001083D01*
X172672118Y-80001565D01*
X172734828Y-80001813D01*
X172797446Y-80001826D01*
X172858085Y-80001602D01*
X172914857Y-80001139D01*
X172965874Y-80000436D01*
X173009248Y-79999490D01*
X173043092Y-79998301D01*
X173065518Y-79996866D01*
X173073000Y-79995820D01*
X173113709Y-79979178D01*
X173146281Y-79951441D01*
X173163985Y-79924455D01*
X173180828Y-79890257D01*
X173181206Y-79778936D01*
X172886914Y-79778936D01*
X172678271Y-79776115D01*
X172616643Y-79775204D01*
X172567573Y-79774232D01*
X172529105Y-79773057D01*
X172499283Y-79771538D01*
X172476152Y-79769532D01*
X172457754Y-79766898D01*
X172442136Y-79763494D01*
X172427339Y-79759178D01*
X172422457Y-79757581D01*
X172370480Y-79735984D01*
X172331364Y-79709378D01*
X172303889Y-79676270D01*
X172286835Y-79635165D01*
X172278979Y-79584569D01*
X172278806Y-79581757D01*
X172280039Y-79526015D01*
X172291322Y-79479737D01*
X172313468Y-79441827D01*
X172347287Y-79411187D01*
X172393590Y-79386721D01*
X172433342Y-79372835D01*
X172449385Y-79369284D01*
X172472349Y-79366345D01*
X172503691Y-79363935D01*
X172544866Y-79361971D01*
X172597331Y-79360369D01*
X172662542Y-79359045D01*
X172678271Y-79358790D01*
X172886914Y-79355534D01*
X172886914Y-79778936D01*
X173181206Y-79778936D01*
X173182848Y-79295495D01*
X173183182Y-79176138D01*
X173183229Y-79140167D01*
X172886914Y-79140167D01*
X172685528Y-79137444D01*
X172623786Y-79136489D01*
X172574723Y-79135400D01*
X172536501Y-79134057D01*
X172507284Y-79132338D01*
X172485237Y-79130123D01*
X172468522Y-79127290D01*
X172455305Y-79123719D01*
X172450304Y-79121951D01*
X172409915Y-79099619D01*
X172375139Y-79066765D01*
X172352926Y-79032941D01*
X172344976Y-79011764D01*
X172340563Y-78985427D01*
X172339024Y-78949653D01*
X172339000Y-78943200D01*
X172341546Y-78898789D01*
X172350073Y-78865275D01*
X172365911Y-78839809D01*
X172390392Y-78819537D01*
X172399171Y-78814295D01*
X172421449Y-78803073D01*
X172445416Y-78794042D01*
X172473004Y-78786929D01*
X172506147Y-78781459D01*
X172546780Y-78777357D01*
X172596836Y-78774348D01*
X172658248Y-78772159D01*
X172703671Y-78771076D01*
X172886914Y-78767287D01*
X172886914Y-79140167D01*
X173183229Y-79140167D01*
X173183321Y-79070728D01*
X173183260Y-78978699D01*
X173182993Y-78899486D01*
X173182514Y-78832523D01*
X173181818Y-78777244D01*
X173180899Y-78733083D01*
X173179751Y-78699475D01*
X173178369Y-78675853D01*
X173176748Y-78661652D01*
X173176524Y-78660495D01*
X173160979Y-78618277D01*
X173134289Y-78584911D01*
X173097597Y-78561523D01*
X173065932Y-78551556D01*
X173045594Y-78549061D01*
X173012712Y-78547123D01*
X172969238Y-78545716D01*
X172917122Y-78544817D01*
X172858317Y-78544400D01*
X172794773Y-78544440D01*
G36*
X169716113Y-76137518D02*
G01*
X169712191Y-76157357D01*
X169707319Y-76185926D01*
X169702004Y-76220399D01*
X169701119Y-76226464D01*
X169670233Y-76417941D01*
X169633502Y-76607220D01*
X169591577Y-76791495D01*
X169545110Y-76967960D01*
X169494753Y-77133808D01*
X169480429Y-77176829D01*
X169432971Y-77307908D01*
X169384266Y-77425176D01*
X169333950Y-77529308D01*
X169281662Y-77620981D01*
X169227038Y-77700871D01*
X169169717Y-77769652D01*
X169153268Y-77786877D01*
X169131286Y-77809897D01*
X169117188Y-77826155D01*
X169111841Y-77834555D01*
X169116024Y-77834048D01*
X169135901Y-77819732D01*
X169162342Y-77796526D01*
X169192925Y-77766938D01*
X169225224Y-77733473D01*
X169256815Y-77698637D01*
X169285273Y-77664937D01*
X169306730Y-77636914D01*
X169373512Y-77535021D01*
X169437186Y-77420551D01*
X169497895Y-77293175D01*
X169555784Y-77152561D01*
X169610995Y-76998379D01*
X169663671Y-76830297D01*
X169678022Y-76780571D01*
X169693811Y-76722713D01*
X169710893Y-76656384D01*
X169728334Y-76585516D01*
X169745201Y-76514041D01*
X169760559Y-76445891D01*
X169773475Y-76384998D01*
X169780568Y-76348771D01*
X169785508Y-76322612D01*
X169789831Y-76300293D01*
X169791985Y-76289623D01*
X169793648Y-76285749D01*
X169797514Y-76283933D01*
X169804887Y-76284736D01*
X169817073Y-76288713D01*
X169835377Y-76296424D01*
X169861104Y-76308426D01*
X169895560Y-76325277D01*
X169940049Y-76347535D01*
X169995878Y-76375759D01*
X170008669Y-76382244D01*
X170059988Y-76408135D01*
X170123032Y-76439713D01*
X170196472Y-76476323D01*
X170278979Y-76517309D01*
X170369223Y-76562018D01*
X170465873Y-76609795D01*
X170567601Y-76659984D01*
X170673076Y-76711932D01*
X170780968Y-76764983D01*
X170889948Y-76818483D01*
X170998687Y-76871777D01*
X171105853Y-76924210D01*
X171210118Y-76975128D01*
X171310151Y-77023875D01*
X171404623Y-77069798D01*
X171437696Y-77085842D01*
X171509422Y-77120388D01*
X171571788Y-77149954D01*
X171624195Y-77174269D01*
X171666043Y-77193065D01*
X171696730Y-77206070D01*
X171715658Y-77213015D01*
X171722202Y-77213745D01*
X171724565Y-77204474D01*
X171729629Y-77183131D01*
X171736909Y-77151806D01*
X171745922Y-77112588D01*
X171756184Y-77067566D01*
X171762839Y-77038200D01*
X171773674Y-76990888D01*
X171783681Y-76948331D01*
X171792360Y-76912567D01*
X171799211Y-76885634D01*
X171803731Y-76869572D01*
X171805144Y-76865966D01*
X171812432Y-76867930D01*
X171830799Y-76876088D01*
X171858616Y-76889621D01*
X171894253Y-76907715D01*
X171936079Y-76929553D01*
X171982465Y-76954318D01*
X171994525Y-76960838D01*
X172084057Y-77009251D01*
X172178134Y-77059892D01*
X172276005Y-77112367D01*
X172376920Y-77166286D01*
X172480127Y-77221255D01*
X172584875Y-77276885D01*
X172690413Y-77332781D01*
X172795991Y-77388553D01*
X172900857Y-77443808D01*
X173004261Y-77498154D01*
X173105451Y-77551200D01*
X173203677Y-77602553D01*
X173298188Y-77651821D01*
X173388232Y-77698613D01*
X173473059Y-77742536D01*
X173551918Y-77783199D01*
X173624057Y-77820209D01*
X173688726Y-77853174D01*
X173745175Y-77881703D01*
X173792651Y-77905403D01*
X173830404Y-77923883D01*
X173857683Y-77936750D01*
X173873738Y-77943613D01*
X173877816Y-77944079D01*
X173877514Y-77943736D01*
X173867610Y-77936367D01*
X173845936Y-77922221D01*
X173813296Y-77901771D01*
X173770495Y-77875486D01*
X173718339Y-77843837D01*
X173657632Y-77807297D01*
X173589179Y-77766335D01*
X173513785Y-77721422D01*
X173432255Y-77673030D01*
X173345394Y-77621630D01*
X173254006Y-77567692D01*
X173158898Y-77511688D01*
X173060873Y-77454088D01*
X172960736Y-77395364D01*
X172859293Y-77335987D01*
X172757348Y-77276426D01*
X172655706Y-77217155D01*
X172555173Y-77158642D01*
X172456553Y-77101361D01*
X172360651Y-77045780D01*
X172268272Y-76992372D01*
X172180220Y-76941608D01*
X172097302Y-76893958D01*
X172020321Y-76849893D01*
X171950083Y-76809885D01*
X171887392Y-76774404D01*
X171833054Y-76743921D01*
X171787873Y-76718908D01*
X171752655Y-76699835D01*
X171742697Y-76694580D01*
X171737659Y-76692405D01*
X171733316Y-76692762D01*
X171729112Y-76697232D01*
X171724492Y-76707400D01*
X171718897Y-76724847D01*
X171711772Y-76751157D01*
X171702560Y-76787913D01*
X171690705Y-76836697D01*
X171686282Y-76855021D01*
X171674615Y-76903008D01*
X171663808Y-76946733D01*
X171654403Y-76984067D01*
X171646938Y-77012885D01*
X171641954Y-77031056D01*
X171640328Y-77036090D01*
X171637674Y-77038232D01*
X171631656Y-77038165D01*
X171621242Y-77035431D01*
X171605404Y-77029573D01*
X171583111Y-77020133D01*
X171553335Y-77006651D01*
X171515044Y-76988671D01*
X171467209Y-76965734D01*
X171408801Y-76937381D01*
X171338790Y-76903155D01*
X171312114Y-76890076D01*
X171203806Y-76837030D01*
X171093872Y-76783349D01*
X170983086Y-76729401D01*
X170872221Y-76675556D01*
X170762051Y-76622183D01*
X170653347Y-76569652D01*
X170546884Y-76518330D01*
X170443435Y-76468589D01*
X170343773Y-76420795D01*
X170248670Y-76375320D01*
X170158901Y-76332532D01*
X170075239Y-76292799D01*
X169998456Y-76256493D01*
X169929326Y-76223980D01*
X169868622Y-76195631D01*
X169817117Y-76171816D01*
X169775585Y-76152902D01*
X169744798Y-76139259D01*
X169725530Y-76131256D01*
X169718576Y-76129233D01*
X169716113Y-76137518D01*
G37*
X169716113Y-76137518D02*
X169712191Y-76157357D01*
X169707319Y-76185926D01*
X169702004Y-76220399D01*
X169701119Y-76226464D01*
X169670233Y-76417941D01*
X169633502Y-76607220D01*
X169591577Y-76791495D01*
X169545110Y-76967960D01*
X169494753Y-77133808D01*
X169480429Y-77176829D01*
X169432971Y-77307908D01*
X169384266Y-77425176D01*
X169333950Y-77529308D01*
X169281662Y-77620981D01*
X169227038Y-77700871D01*
X169169717Y-77769652D01*
X169153268Y-77786877D01*
X169131286Y-77809897D01*
X169117188Y-77826155D01*
X169111841Y-77834555D01*
X169116024Y-77834048D01*
X169135901Y-77819732D01*
X169162342Y-77796526D01*
X169192925Y-77766938D01*
X169225224Y-77733473D01*
X169256815Y-77698637D01*
X169285273Y-77664937D01*
X169306730Y-77636914D01*
X169373512Y-77535021D01*
X169437186Y-77420551D01*
X169497895Y-77293175D01*
X169555784Y-77152561D01*
X169610995Y-76998379D01*
X169663671Y-76830297D01*
X169678022Y-76780571D01*
X169693811Y-76722713D01*
X169710893Y-76656384D01*
X169728334Y-76585516D01*
X169745201Y-76514041D01*
X169760559Y-76445891D01*
X169773475Y-76384998D01*
X169780568Y-76348771D01*
X169785508Y-76322612D01*
X169789831Y-76300293D01*
X169791985Y-76289623D01*
X169793648Y-76285749D01*
X169797514Y-76283933D01*
X169804887Y-76284736D01*
X169817073Y-76288713D01*
X169835377Y-76296424D01*
X169861104Y-76308426D01*
X169895560Y-76325277D01*
X169940049Y-76347535D01*
X169995878Y-76375759D01*
X170008669Y-76382244D01*
X170059988Y-76408135D01*
X170123032Y-76439713D01*
X170196472Y-76476323D01*
X170278979Y-76517309D01*
X170369223Y-76562018D01*
X170465873Y-76609795D01*
X170567601Y-76659984D01*
X170673076Y-76711932D01*
X170780968Y-76764983D01*
X170889948Y-76818483D01*
X170998687Y-76871777D01*
X171105853Y-76924210D01*
X171210118Y-76975128D01*
X171310151Y-77023875D01*
X171404623Y-77069798D01*
X171437696Y-77085842D01*
X171509422Y-77120388D01*
X171571788Y-77149954D01*
X171624195Y-77174269D01*
X171666043Y-77193065D01*
X171696730Y-77206070D01*
X171715658Y-77213015D01*
X171722202Y-77213745D01*
X171724565Y-77204474D01*
X171729629Y-77183131D01*
X171736909Y-77151806D01*
X171745922Y-77112588D01*
X171756184Y-77067566D01*
X171762839Y-77038200D01*
X171773674Y-76990888D01*
X171783681Y-76948331D01*
X171792360Y-76912567D01*
X171799211Y-76885634D01*
X171803731Y-76869572D01*
X171805144Y-76865966D01*
X171812432Y-76867930D01*
X171830799Y-76876088D01*
X171858616Y-76889621D01*
X171894253Y-76907715D01*
X171936079Y-76929553D01*
X171982465Y-76954318D01*
X171994525Y-76960838D01*
X172084057Y-77009251D01*
X172178134Y-77059892D01*
X172276005Y-77112367D01*
X172376920Y-77166286D01*
X172480127Y-77221255D01*
X172584875Y-77276885D01*
X172690413Y-77332781D01*
X172795991Y-77388553D01*
X172900857Y-77443808D01*
X173004261Y-77498154D01*
X173105451Y-77551200D01*
X173203677Y-77602553D01*
X173298188Y-77651821D01*
X173388232Y-77698613D01*
X173473059Y-77742536D01*
X173551918Y-77783199D01*
X173624057Y-77820209D01*
X173688726Y-77853174D01*
X173745175Y-77881703D01*
X173792651Y-77905403D01*
X173830404Y-77923883D01*
X173857683Y-77936750D01*
X173873738Y-77943613D01*
X173877816Y-77944079D01*
X173877514Y-77943736D01*
X173867610Y-77936367D01*
X173845936Y-77922221D01*
X173813296Y-77901771D01*
X173770495Y-77875486D01*
X173718339Y-77843837D01*
X173657632Y-77807297D01*
X173589179Y-77766335D01*
X173513785Y-77721422D01*
X173432255Y-77673030D01*
X173345394Y-77621630D01*
X173254006Y-77567692D01*
X173158898Y-77511688D01*
X173060873Y-77454088D01*
X172960736Y-77395364D01*
X172859293Y-77335987D01*
X172757348Y-77276426D01*
X172655706Y-77217155D01*
X172555173Y-77158642D01*
X172456553Y-77101361D01*
X172360651Y-77045780D01*
X172268272Y-76992372D01*
X172180220Y-76941608D01*
X172097302Y-76893958D01*
X172020321Y-76849893D01*
X171950083Y-76809885D01*
X171887392Y-76774404D01*
X171833054Y-76743921D01*
X171787873Y-76718908D01*
X171752655Y-76699835D01*
X171742697Y-76694580D01*
X171737659Y-76692405D01*
X171733316Y-76692762D01*
X171729112Y-76697232D01*
X171724492Y-76707400D01*
X171718897Y-76724847D01*
X171711772Y-76751157D01*
X171702560Y-76787913D01*
X171690705Y-76836697D01*
X171686282Y-76855021D01*
X171674615Y-76903008D01*
X171663808Y-76946733D01*
X171654403Y-76984067D01*
X171646938Y-77012885D01*
X171641954Y-77031056D01*
X171640328Y-77036090D01*
X171637674Y-77038232D01*
X171631656Y-77038165D01*
X171621242Y-77035431D01*
X171605404Y-77029573D01*
X171583111Y-77020133D01*
X171553335Y-77006651D01*
X171515044Y-76988671D01*
X171467209Y-76965734D01*
X171408801Y-76937381D01*
X171338790Y-76903155D01*
X171312114Y-76890076D01*
X171203806Y-76837030D01*
X171093872Y-76783349D01*
X170983086Y-76729401D01*
X170872221Y-76675556D01*
X170762051Y-76622183D01*
X170653347Y-76569652D01*
X170546884Y-76518330D01*
X170443435Y-76468589D01*
X170343773Y-76420795D01*
X170248670Y-76375320D01*
X170158901Y-76332532D01*
X170075239Y-76292799D01*
X169998456Y-76256493D01*
X169929326Y-76223980D01*
X169868622Y-76195631D01*
X169817117Y-76171816D01*
X169775585Y-76152902D01*
X169744798Y-76139259D01*
X169725530Y-76131256D01*
X169718576Y-76129233D01*
X169716113Y-76137518D01*
G36*
X174028041Y-77054804D02*
G01*
X174030415Y-77066079D01*
X174037128Y-77085106D01*
X174048485Y-77112555D01*
X174064791Y-77149096D01*
X174086349Y-77195401D01*
X174113463Y-77252140D01*
X174146439Y-77319985D01*
X174185580Y-77399605D01*
X174215029Y-77459114D01*
X174250771Y-77530702D01*
X174285604Y-77599547D01*
X174318929Y-77664528D01*
X174350145Y-77724524D01*
X174378652Y-77778412D01*
X174403850Y-77825073D01*
X174425139Y-77863383D01*
X174441920Y-77892221D01*
X174453591Y-77910467D01*
X174459553Y-77916998D01*
X174459949Y-77916869D01*
X174459476Y-77908477D01*
X174454802Y-77887973D01*
X174446441Y-77856975D01*
X174434904Y-77817099D01*
X174420705Y-77769962D01*
X174404356Y-77717180D01*
X174386370Y-77660370D01*
X174367259Y-77601148D01*
X174347537Y-77541132D01*
X174327716Y-77481937D01*
X174308308Y-77425181D01*
X174289827Y-77372479D01*
X174272786Y-77325449D01*
X174270013Y-77317986D01*
X174259518Y-77289037D01*
X174251606Y-77265633D01*
X174247255Y-77250758D01*
X174246829Y-77247037D01*
X174254338Y-77248526D01*
X174273620Y-77254636D01*
X174302924Y-77264722D01*
X174340500Y-77278137D01*
X174384598Y-77294231D01*
X174433465Y-77312359D01*
X174485353Y-77331873D01*
X174538509Y-77352125D01*
X174591184Y-77372469D01*
X174641626Y-77392257D01*
X174668542Y-77402972D01*
X174702936Y-77416864D01*
X174748907Y-77435609D01*
X174804641Y-77458460D01*
X174868326Y-77484667D01*
X174938149Y-77513485D01*
X175012296Y-77544164D01*
X175088955Y-77575957D01*
X175166312Y-77608116D01*
X175208714Y-77625778D01*
X175341086Y-77680858D01*
X175460569Y-77730371D01*
X175567119Y-77774296D01*
X175660690Y-77812617D01*
X175741235Y-77845314D01*
X175808709Y-77872368D01*
X175863065Y-77893763D01*
X175904258Y-77909478D01*
X175932242Y-77919496D01*
X175946972Y-77923798D01*
X175949428Y-77923613D01*
X175943512Y-77917404D01*
X175926792Y-77904612D01*
X175900810Y-77886286D01*
X175867106Y-77863474D01*
X175827224Y-77837226D01*
X175782704Y-77808590D01*
X175749857Y-77787843D01*
X175560287Y-77673385D01*
X175366233Y-77564681D01*
X175169890Y-77462789D01*
X174973454Y-77368767D01*
X174779118Y-77283675D01*
X174589079Y-77208570D01*
X174438096Y-77155214D01*
X174405657Y-77144945D01*
X174365777Y-77133167D01*
X174320622Y-77120434D01*
X174272356Y-77107302D01*
X174223145Y-77094323D01*
X174175155Y-77082054D01*
X174130550Y-77071049D01*
X174091497Y-77061863D01*
X174060160Y-77055049D01*
X174038704Y-77051164D01*
X174029703Y-77050610D01*
X174028041Y-77054804D01*
G37*
X174028041Y-77054804D02*
X174030415Y-77066079D01*
X174037128Y-77085106D01*
X174048485Y-77112555D01*
X174064791Y-77149096D01*
X174086349Y-77195401D01*
X174113463Y-77252140D01*
X174146439Y-77319985D01*
X174185580Y-77399605D01*
X174215029Y-77459114D01*
X174250771Y-77530702D01*
X174285604Y-77599547D01*
X174318929Y-77664528D01*
X174350145Y-77724524D01*
X174378652Y-77778412D01*
X174403850Y-77825073D01*
X174425139Y-77863383D01*
X174441920Y-77892221D01*
X174453591Y-77910467D01*
X174459553Y-77916998D01*
X174459949Y-77916869D01*
X174459476Y-77908477D01*
X174454802Y-77887973D01*
X174446441Y-77856975D01*
X174434904Y-77817099D01*
X174420705Y-77769962D01*
X174404356Y-77717180D01*
X174386370Y-77660370D01*
X174367259Y-77601148D01*
X174347537Y-77541132D01*
X174327716Y-77481937D01*
X174308308Y-77425181D01*
X174289827Y-77372479D01*
X174272786Y-77325449D01*
X174270013Y-77317986D01*
X174259518Y-77289037D01*
X174251606Y-77265633D01*
X174247255Y-77250758D01*
X174246829Y-77247037D01*
X174254338Y-77248526D01*
X174273620Y-77254636D01*
X174302924Y-77264722D01*
X174340500Y-77278137D01*
X174384598Y-77294231D01*
X174433465Y-77312359D01*
X174485353Y-77331873D01*
X174538509Y-77352125D01*
X174591184Y-77372469D01*
X174641626Y-77392257D01*
X174668542Y-77402972D01*
X174702936Y-77416864D01*
X174748907Y-77435609D01*
X174804641Y-77458460D01*
X174868326Y-77484667D01*
X174938149Y-77513485D01*
X175012296Y-77544164D01*
X175088955Y-77575957D01*
X175166312Y-77608116D01*
X175208714Y-77625778D01*
X175341086Y-77680858D01*
X175460569Y-77730371D01*
X175567119Y-77774296D01*
X175660690Y-77812617D01*
X175741235Y-77845314D01*
X175808709Y-77872368D01*
X175863065Y-77893763D01*
X175904258Y-77909478D01*
X175932242Y-77919496D01*
X175946972Y-77923798D01*
X175949428Y-77923613D01*
X175943512Y-77917404D01*
X175926792Y-77904612D01*
X175900810Y-77886286D01*
X175867106Y-77863474D01*
X175827224Y-77837226D01*
X175782704Y-77808590D01*
X175749857Y-77787843D01*
X175560287Y-77673385D01*
X175366233Y-77564681D01*
X175169890Y-77462789D01*
X174973454Y-77368767D01*
X174779118Y-77283675D01*
X174589079Y-77208570D01*
X174438096Y-77155214D01*
X174405657Y-77144945D01*
X174365777Y-77133167D01*
X174320622Y-77120434D01*
X174272356Y-77107302D01*
X174223145Y-77094323D01*
X174175155Y-77082054D01*
X174130550Y-77071049D01*
X174091497Y-77061863D01*
X174060160Y-77055049D01*
X174038704Y-77051164D01*
X174029703Y-77050610D01*
X174028041Y-77054804D01*
%TD*%
M02*
