%TF.GenerationSoftware,KiCad,Pcbnew,(5.1.10)-1*%
%TF.CreationDate,2022-01-12T13:36:28-08:00*%
%TF.ProjectId,killswitch,6b696c6c-7377-4697-9463-682e6b696361,rev?*%
%TF.SameCoordinates,Original*%
%TF.FileFunction,Soldermask,Top*%
%TF.FilePolarity,Negative*%
%FSLAX46Y46*%
G04 Gerber Fmt 4.6, Leading zero omitted, Abs format (unit mm)*
G04 Created by KiCad (PCBNEW (5.1.10)-1) date 2022-01-12 13:36:28*
%MOMM*%
%LPD*%
G01*
G04 APERTURE LIST*
%ADD10C,0.127000*%
%ADD11O,2.200000X2.200000*%
%ADD12R,2.200000X2.200000*%
%ADD13R,3.000000X3.000000*%
%ADD14C,3.000000*%
%ADD15R,11.430000X8.890000*%
%ADD16R,2.080000X3.810000*%
%ADD17C,1.600000*%
%ADD18O,1.600000X1.600000*%
%ADD19R,4.064000X4.064000*%
%ADD20R,5.080000X5.080000*%
%ADD21R,1.473200X0.558800*%
G04 APERTURE END LIST*
D10*
%TO.C,U1*%
G36*
X140970000Y-81390000D02*
G01*
X140499000Y-81378000D01*
X140029000Y-81341000D01*
X139562000Y-81279000D01*
X139099000Y-81193000D01*
X138641000Y-81083000D01*
X138189000Y-80950000D01*
X137745000Y-80792000D01*
X137309000Y-80612000D01*
X136884000Y-80409000D01*
X136470000Y-80184000D01*
X136068000Y-79938000D01*
X135680000Y-79671000D01*
X135306000Y-79384000D01*
X134948000Y-79078000D01*
X134606000Y-78754000D01*
X134282000Y-78412000D01*
X133976000Y-78054000D01*
X133689000Y-77680000D01*
X133422000Y-77292000D01*
X133176000Y-76890000D01*
X132951000Y-76476000D01*
X132748000Y-76051000D01*
X132568000Y-75615000D01*
X132410000Y-75171000D01*
X132277000Y-74719000D01*
X132167000Y-74261000D01*
X132081000Y-73798000D01*
X132019000Y-73331000D01*
X131982000Y-72861000D01*
X131970000Y-72390000D01*
X131982000Y-71919000D01*
X132019000Y-71449000D01*
X132081000Y-70982000D01*
X132167000Y-70519000D01*
X132277000Y-70061000D01*
X132410000Y-69609000D01*
X132568000Y-69165000D01*
X132748000Y-68729000D01*
X132951000Y-68304000D01*
X133176000Y-67890000D01*
X133422000Y-67488000D01*
X133689000Y-67100000D01*
X133976000Y-66726000D01*
X134282000Y-66368000D01*
X134606000Y-66026000D01*
X134948000Y-65702000D01*
X135306000Y-65396000D01*
X135680000Y-65109000D01*
X136068000Y-64842000D01*
X136470000Y-64596000D01*
X136884000Y-64371000D01*
X137309000Y-64168000D01*
X137745000Y-63988000D01*
X138189000Y-63830000D01*
X138641000Y-63697000D01*
X139099000Y-63587000D01*
X139562000Y-63501000D01*
X140029000Y-63439000D01*
X140499000Y-63402000D01*
X140970000Y-63390000D01*
X141441000Y-63402000D01*
X141911000Y-63439000D01*
X142378000Y-63501000D01*
X142841000Y-63587000D01*
X143299000Y-63697000D01*
X143751000Y-63830000D01*
X144195000Y-63988000D01*
X144631000Y-64168000D01*
X145056000Y-64371000D01*
X145470000Y-64596000D01*
X145872000Y-64842000D01*
X146260000Y-65109000D01*
X146634000Y-65396000D01*
X146992000Y-65702000D01*
X147334000Y-66026000D01*
X147658000Y-66368000D01*
X147964000Y-66726000D01*
X148251000Y-67100000D01*
X148518000Y-67488000D01*
X148764000Y-67890000D01*
X148989000Y-68304000D01*
X149192000Y-68729000D01*
X149372000Y-69165000D01*
X149530000Y-69609000D01*
X149663000Y-70061000D01*
X149773000Y-70519000D01*
X149859000Y-70982000D01*
X149921000Y-71449000D01*
X149958000Y-71919000D01*
X149970000Y-72390000D01*
X149958000Y-72861000D01*
X149921000Y-73331000D01*
X149859000Y-73798000D01*
X149773000Y-74261000D01*
X149663000Y-74719000D01*
X149530000Y-75171000D01*
X149372000Y-75615000D01*
X149192000Y-76051000D01*
X148989000Y-76476000D01*
X148764000Y-76890000D01*
X148518000Y-77292000D01*
X148251000Y-77680000D01*
X147964000Y-78054000D01*
X147658000Y-78412000D01*
X147334000Y-78754000D01*
X146992000Y-79078000D01*
X146634000Y-79384000D01*
X146260000Y-79671000D01*
X145872000Y-79938000D01*
X145470000Y-80184000D01*
X145056000Y-80409000D01*
X144631000Y-80612000D01*
X144195000Y-80792000D01*
X143751000Y-80950000D01*
X143299000Y-81083000D01*
X142841000Y-81193000D01*
X142378000Y-81279000D01*
X141911000Y-81341000D01*
X141441000Y-81378000D01*
X140970000Y-81390000D01*
G37*
X140970000Y-81390000D02*
X140499000Y-81378000D01*
X140029000Y-81341000D01*
X139562000Y-81279000D01*
X139099000Y-81193000D01*
X138641000Y-81083000D01*
X138189000Y-80950000D01*
X137745000Y-80792000D01*
X137309000Y-80612000D01*
X136884000Y-80409000D01*
X136470000Y-80184000D01*
X136068000Y-79938000D01*
X135680000Y-79671000D01*
X135306000Y-79384000D01*
X134948000Y-79078000D01*
X134606000Y-78754000D01*
X134282000Y-78412000D01*
X133976000Y-78054000D01*
X133689000Y-77680000D01*
X133422000Y-77292000D01*
X133176000Y-76890000D01*
X132951000Y-76476000D01*
X132748000Y-76051000D01*
X132568000Y-75615000D01*
X132410000Y-75171000D01*
X132277000Y-74719000D01*
X132167000Y-74261000D01*
X132081000Y-73798000D01*
X132019000Y-73331000D01*
X131982000Y-72861000D01*
X131970000Y-72390000D01*
X131982000Y-71919000D01*
X132019000Y-71449000D01*
X132081000Y-70982000D01*
X132167000Y-70519000D01*
X132277000Y-70061000D01*
X132410000Y-69609000D01*
X132568000Y-69165000D01*
X132748000Y-68729000D01*
X132951000Y-68304000D01*
X133176000Y-67890000D01*
X133422000Y-67488000D01*
X133689000Y-67100000D01*
X133976000Y-66726000D01*
X134282000Y-66368000D01*
X134606000Y-66026000D01*
X134948000Y-65702000D01*
X135306000Y-65396000D01*
X135680000Y-65109000D01*
X136068000Y-64842000D01*
X136470000Y-64596000D01*
X136884000Y-64371000D01*
X137309000Y-64168000D01*
X137745000Y-63988000D01*
X138189000Y-63830000D01*
X138641000Y-63697000D01*
X139099000Y-63587000D01*
X139562000Y-63501000D01*
X140029000Y-63439000D01*
X140499000Y-63402000D01*
X140970000Y-63390000D01*
X141441000Y-63402000D01*
X141911000Y-63439000D01*
X142378000Y-63501000D01*
X142841000Y-63587000D01*
X143299000Y-63697000D01*
X143751000Y-63830000D01*
X144195000Y-63988000D01*
X144631000Y-64168000D01*
X145056000Y-64371000D01*
X145470000Y-64596000D01*
X145872000Y-64842000D01*
X146260000Y-65109000D01*
X146634000Y-65396000D01*
X146992000Y-65702000D01*
X147334000Y-66026000D01*
X147658000Y-66368000D01*
X147964000Y-66726000D01*
X148251000Y-67100000D01*
X148518000Y-67488000D01*
X148764000Y-67890000D01*
X148989000Y-68304000D01*
X149192000Y-68729000D01*
X149372000Y-69165000D01*
X149530000Y-69609000D01*
X149663000Y-70061000D01*
X149773000Y-70519000D01*
X149859000Y-70982000D01*
X149921000Y-71449000D01*
X149958000Y-71919000D01*
X149970000Y-72390000D01*
X149958000Y-72861000D01*
X149921000Y-73331000D01*
X149859000Y-73798000D01*
X149773000Y-74261000D01*
X149663000Y-74719000D01*
X149530000Y-75171000D01*
X149372000Y-75615000D01*
X149192000Y-76051000D01*
X148989000Y-76476000D01*
X148764000Y-76890000D01*
X148518000Y-77292000D01*
X148251000Y-77680000D01*
X147964000Y-78054000D01*
X147658000Y-78412000D01*
X147334000Y-78754000D01*
X146992000Y-79078000D01*
X146634000Y-79384000D01*
X146260000Y-79671000D01*
X145872000Y-79938000D01*
X145470000Y-80184000D01*
X145056000Y-80409000D01*
X144631000Y-80612000D01*
X144195000Y-80792000D01*
X143751000Y-80950000D01*
X143299000Y-81083000D01*
X142841000Y-81193000D01*
X142378000Y-81279000D01*
X141911000Y-81341000D01*
X141441000Y-81378000D01*
X140970000Y-81390000D01*
%TD*%
D11*
%TO.C,D1*%
X154340000Y-95250000D03*
D12*
X164500000Y-95250000D03*
%TD*%
D11*
%TO.C,D2*%
X167640000Y-95250000D03*
D12*
X177800000Y-95250000D03*
%TD*%
%TO.C,D3*%
X191000000Y-95250000D03*
D11*
X180840000Y-95250000D03*
%TD*%
D13*
%TO.C,J1*%
X160020000Y-104140000D03*
D14*
X165100000Y-104140000D03*
%TD*%
%TO.C,J2*%
X166395400Y-60960000D03*
D13*
X171475400Y-60960000D03*
%TD*%
D14*
%TO.C,J4*%
X176530000Y-104140000D03*
D13*
X171450000Y-104140000D03*
%TD*%
%TO.C,J5*%
X182880000Y-104140000D03*
D14*
X187960000Y-104140000D03*
%TD*%
D15*
%TO.C,N-MOSFET1*%
X158750000Y-81915000D03*
D16*
X156210000Y-70485000D03*
X161290000Y-70485000D03*
%TD*%
%TO.C,N-MOSFET2*%
X189230000Y-70485000D03*
X184150000Y-70485000D03*
D15*
X186690000Y-81915000D03*
%TD*%
%TO.C,N-MOSFET3*%
X172720000Y-81915000D03*
D16*
X170180000Y-70485000D03*
X175260000Y-70485000D03*
%TD*%
D14*
%TO.C,SoftStop*%
X137160000Y-96494600D03*
D13*
X137160000Y-91414600D03*
%TD*%
%TO.C,HardStop*%
X144780000Y-104140000D03*
D14*
X149860000Y-104140000D03*
%TD*%
D17*
%TO.C,R1*%
X149860000Y-95250000D03*
D18*
X149860000Y-85090000D03*
%TD*%
D17*
%TO.C,R2*%
X146050000Y-95250000D03*
D18*
X146050000Y-85090000D03*
%TD*%
%TO.C,R3*%
X165100000Y-91440000D03*
D17*
X154940000Y-91440000D03*
%TD*%
%TO.C,R4*%
X167640000Y-91440000D03*
D18*
X177800000Y-91440000D03*
%TD*%
%TO.C,R5*%
X190500000Y-91440000D03*
D17*
X180340000Y-91440000D03*
%TD*%
D19*
%TO.C,U1*%
X140970000Y-72390000D03*
D20*
X140970000Y-85090000D03*
X140970000Y-59690000D03*
%TD*%
D21*
%TO.C,U2*%
X158673800Y-62549999D03*
X158673800Y-64450001D03*
X156286200Y-64450001D03*
X156286200Y-63500000D03*
X156286200Y-62549999D03*
%TD*%
D14*
%TO.C,J3*%
X177825400Y-60960000D03*
D13*
X182905400Y-60960000D03*
%TD*%
M02*
