%TF.GenerationSoftware,KiCad,Pcbnew,(5.1.10)-1*%
%TF.CreationDate,2022-01-12T13:36:28-08:00*%
%TF.ProjectId,killswitch,6b696c6c-7377-4697-9463-682e6b696361,rev?*%
%TF.SameCoordinates,Original*%
%TF.FileFunction,Legend,Top*%
%TF.FilePolarity,Positive*%
%FSLAX46Y46*%
G04 Gerber Fmt 4.6, Leading zero omitted, Abs format (unit mm)*
G04 Created by KiCad (PCBNEW (5.1.10)-1) date 2022-01-12 13:36:28*
%MOMM*%
%LPD*%
G01*
G04 APERTURE LIST*
%ADD10C,0.120000*%
%ADD11C,0.150000*%
%ADD12C,0.127000*%
G04 APERTURE END LIST*
D10*
X160020000Y-60960000D02*
X154940000Y-60960000D01*
X160020000Y-66040000D02*
X160020000Y-60960000D01*
X154940000Y-66040000D02*
X160020000Y-66040000D01*
X154940000Y-60960000D02*
X154940000Y-66040000D01*
D11*
X171029047Y-56094285D02*
X171029047Y-55427619D01*
X171267142Y-56475238D02*
X171505238Y-55760952D01*
X170886190Y-55760952D01*
X170362380Y-55999047D02*
X170457619Y-56046666D01*
X170505238Y-56094285D01*
X170552857Y-56189523D01*
X170552857Y-56237142D01*
X170505238Y-56332380D01*
X170457619Y-56380000D01*
X170362380Y-56427619D01*
X170171904Y-56427619D01*
X170076666Y-56380000D01*
X170029047Y-56332380D01*
X169981428Y-56237142D01*
X169981428Y-56189523D01*
X170029047Y-56094285D01*
X170076666Y-56046666D01*
X170171904Y-55999047D01*
X170362380Y-55999047D01*
X170457619Y-55951428D01*
X170505238Y-55903809D01*
X170552857Y-55808571D01*
X170552857Y-55618095D01*
X170505238Y-55522857D01*
X170457619Y-55475238D01*
X170362380Y-55427619D01*
X170171904Y-55427619D01*
X170076666Y-55475238D01*
X170029047Y-55522857D01*
X169981428Y-55618095D01*
X169981428Y-55808571D01*
X170029047Y-55903809D01*
X170076666Y-55951428D01*
X170171904Y-55999047D01*
X169695714Y-56427619D02*
X169362380Y-55427619D01*
X169029047Y-56427619D01*
X168743333Y-55713333D02*
X168267142Y-55713333D01*
X168838571Y-55427619D02*
X168505238Y-56427619D01*
X168171904Y-55427619D01*
X167838571Y-55427619D02*
X167838571Y-56094285D01*
X167838571Y-55903809D02*
X167790952Y-55999047D01*
X167743333Y-56046666D01*
X167648095Y-56094285D01*
X167552857Y-56094285D01*
X167219523Y-55427619D02*
X167219523Y-56094285D01*
X167219523Y-55999047D02*
X167171904Y-56046666D01*
X167076666Y-56094285D01*
X166933809Y-56094285D01*
X166838571Y-56046666D01*
X166790952Y-55951428D01*
X166790952Y-55427619D01*
X166790952Y-55951428D02*
X166743333Y-56046666D01*
X166648095Y-56094285D01*
X166505238Y-56094285D01*
X166410000Y-56046666D01*
X166362380Y-55951428D01*
X166362380Y-55427619D01*
X185197142Y-56094285D02*
X185197142Y-55427619D01*
X185435238Y-56475238D02*
X185673333Y-55760952D01*
X185054285Y-55760952D01*
X184530476Y-55999047D02*
X184625714Y-56046666D01*
X184673333Y-56094285D01*
X184720952Y-56189523D01*
X184720952Y-56237142D01*
X184673333Y-56332380D01*
X184625714Y-56380000D01*
X184530476Y-56427619D01*
X184340000Y-56427619D01*
X184244761Y-56380000D01*
X184197142Y-56332380D01*
X184149523Y-56237142D01*
X184149523Y-56189523D01*
X184197142Y-56094285D01*
X184244761Y-56046666D01*
X184340000Y-55999047D01*
X184530476Y-55999047D01*
X184625714Y-55951428D01*
X184673333Y-55903809D01*
X184720952Y-55808571D01*
X184720952Y-55618095D01*
X184673333Y-55522857D01*
X184625714Y-55475238D01*
X184530476Y-55427619D01*
X184340000Y-55427619D01*
X184244761Y-55475238D01*
X184197142Y-55522857D01*
X184149523Y-55618095D01*
X184149523Y-55808571D01*
X184197142Y-55903809D01*
X184244761Y-55951428D01*
X184340000Y-55999047D01*
X183863809Y-56427619D02*
X183530476Y-55427619D01*
X183197142Y-56427619D01*
X182863809Y-55951428D02*
X182530476Y-55951428D01*
X182387619Y-55427619D02*
X182863809Y-55427619D01*
X182863809Y-56427619D01*
X182387619Y-56427619D01*
X181816190Y-55427619D02*
X181911428Y-55475238D01*
X181959047Y-55570476D01*
X181959047Y-56427619D01*
X181054285Y-55475238D02*
X181149523Y-55427619D01*
X181340000Y-55427619D01*
X181435238Y-55475238D01*
X181482857Y-55570476D01*
X181482857Y-55951428D01*
X181435238Y-56046666D01*
X181340000Y-56094285D01*
X181149523Y-56094285D01*
X181054285Y-56046666D01*
X181006666Y-55951428D01*
X181006666Y-55856190D01*
X181482857Y-55760952D01*
X180149523Y-55475238D02*
X180244761Y-55427619D01*
X180435238Y-55427619D01*
X180530476Y-55475238D01*
X180578095Y-55522857D01*
X180625714Y-55618095D01*
X180625714Y-55903809D01*
X180578095Y-55999047D01*
X180530476Y-56046666D01*
X180435238Y-56094285D01*
X180244761Y-56094285D01*
X180149523Y-56046666D01*
X179863809Y-56094285D02*
X179482857Y-56094285D01*
X179720952Y-56427619D02*
X179720952Y-55570476D01*
X179673333Y-55475238D01*
X179578095Y-55427619D01*
X179482857Y-55427619D01*
X179149523Y-55427619D02*
X179149523Y-56094285D01*
X179149523Y-55903809D02*
X179101904Y-55999047D01*
X179054285Y-56046666D01*
X178959047Y-56094285D01*
X178863809Y-56094285D01*
X178387619Y-55427619D02*
X178482857Y-55475238D01*
X178530476Y-55522857D01*
X178578095Y-55618095D01*
X178578095Y-55903809D01*
X178530476Y-55999047D01*
X178482857Y-56046666D01*
X178387619Y-56094285D01*
X178244761Y-56094285D01*
X178149523Y-56046666D01*
X178101904Y-55999047D01*
X178054285Y-55903809D01*
X178054285Y-55618095D01*
X178101904Y-55522857D01*
X178149523Y-55475238D01*
X178244761Y-55427619D01*
X178387619Y-55427619D01*
X177625714Y-56094285D02*
X177625714Y-55427619D01*
X177625714Y-55999047D02*
X177578095Y-56046666D01*
X177482857Y-56094285D01*
X177340000Y-56094285D01*
X177244761Y-56046666D01*
X177197142Y-55951428D01*
X177197142Y-55427619D01*
X176720952Y-55427619D02*
X176720952Y-56094285D01*
X176720952Y-56427619D02*
X176768571Y-56380000D01*
X176720952Y-56332380D01*
X176673333Y-56380000D01*
X176720952Y-56427619D01*
X176720952Y-56332380D01*
X175816190Y-55475238D02*
X175911428Y-55427619D01*
X176101904Y-55427619D01*
X176197142Y-55475238D01*
X176244761Y-55522857D01*
X176292380Y-55618095D01*
X176292380Y-55903809D01*
X176244761Y-55999047D01*
X176197142Y-56046666D01*
X176101904Y-56094285D01*
X175911428Y-56094285D01*
X175816190Y-56046666D01*
X175435238Y-55475238D02*
X175340000Y-55427619D01*
X175149523Y-55427619D01*
X175054285Y-55475238D01*
X175006666Y-55570476D01*
X175006666Y-55618095D01*
X175054285Y-55713333D01*
X175149523Y-55760952D01*
X175292380Y-55760952D01*
X175387619Y-55808571D01*
X175435238Y-55903809D01*
X175435238Y-55951428D01*
X175387619Y-56046666D01*
X175292380Y-56094285D01*
X175149523Y-56094285D01*
X175054285Y-56046666D01*
X179491428Y-109148571D02*
X179824761Y-109148571D01*
X179967619Y-109672380D02*
X179491428Y-109672380D01*
X179491428Y-108672380D01*
X179967619Y-108672380D01*
X180539047Y-109672380D02*
X180443809Y-109624761D01*
X180396190Y-109529523D01*
X180396190Y-108672380D01*
X181300952Y-109624761D02*
X181205714Y-109672380D01*
X181015238Y-109672380D01*
X180920000Y-109624761D01*
X180872380Y-109529523D01*
X180872380Y-109148571D01*
X180920000Y-109053333D01*
X181015238Y-109005714D01*
X181205714Y-109005714D01*
X181300952Y-109053333D01*
X181348571Y-109148571D01*
X181348571Y-109243809D01*
X180872380Y-109339047D01*
X182205714Y-109624761D02*
X182110476Y-109672380D01*
X181920000Y-109672380D01*
X181824761Y-109624761D01*
X181777142Y-109577142D01*
X181729523Y-109481904D01*
X181729523Y-109196190D01*
X181777142Y-109100952D01*
X181824761Y-109053333D01*
X181920000Y-109005714D01*
X182110476Y-109005714D01*
X182205714Y-109053333D01*
X182491428Y-109005714D02*
X182872380Y-109005714D01*
X182634285Y-108672380D02*
X182634285Y-109529523D01*
X182681904Y-109624761D01*
X182777142Y-109672380D01*
X182872380Y-109672380D01*
X183205714Y-109672380D02*
X183205714Y-109005714D01*
X183205714Y-109196190D02*
X183253333Y-109100952D01*
X183300952Y-109053333D01*
X183396190Y-109005714D01*
X183491428Y-109005714D01*
X183967619Y-109672380D02*
X183872380Y-109624761D01*
X183824761Y-109577142D01*
X183777142Y-109481904D01*
X183777142Y-109196190D01*
X183824761Y-109100952D01*
X183872380Y-109053333D01*
X183967619Y-109005714D01*
X184110476Y-109005714D01*
X184205714Y-109053333D01*
X184253333Y-109100952D01*
X184300952Y-109196190D01*
X184300952Y-109481904D01*
X184253333Y-109577142D01*
X184205714Y-109624761D01*
X184110476Y-109672380D01*
X183967619Y-109672380D01*
X184729523Y-109005714D02*
X184729523Y-109672380D01*
X184729523Y-109100952D02*
X184777142Y-109053333D01*
X184872380Y-109005714D01*
X185015238Y-109005714D01*
X185110476Y-109053333D01*
X185158095Y-109148571D01*
X185158095Y-109672380D01*
X185634285Y-109672380D02*
X185634285Y-109005714D01*
X185634285Y-108672380D02*
X185586666Y-108720000D01*
X185634285Y-108767619D01*
X185681904Y-108720000D01*
X185634285Y-108672380D01*
X185634285Y-108767619D01*
X186539047Y-109624761D02*
X186443809Y-109672380D01*
X186253333Y-109672380D01*
X186158095Y-109624761D01*
X186110476Y-109577142D01*
X186062857Y-109481904D01*
X186062857Y-109196190D01*
X186110476Y-109100952D01*
X186158095Y-109053333D01*
X186253333Y-109005714D01*
X186443809Y-109005714D01*
X186539047Y-109053333D01*
X186920000Y-109624761D02*
X187015238Y-109672380D01*
X187205714Y-109672380D01*
X187300952Y-109624761D01*
X187348571Y-109529523D01*
X187348571Y-109481904D01*
X187300952Y-109386666D01*
X187205714Y-109339047D01*
X187062857Y-109339047D01*
X186967619Y-109291428D01*
X186920000Y-109196190D01*
X186920000Y-109148571D01*
X186967619Y-109053333D01*
X187062857Y-109005714D01*
X187205714Y-109005714D01*
X187300952Y-109053333D01*
X188348571Y-109672380D02*
X188015238Y-109196190D01*
X187777142Y-109672380D02*
X187777142Y-108672380D01*
X188158095Y-108672380D01*
X188253333Y-108720000D01*
X188300952Y-108767619D01*
X188348571Y-108862857D01*
X188348571Y-109005714D01*
X188300952Y-109100952D01*
X188253333Y-109148571D01*
X188158095Y-109196190D01*
X187777142Y-109196190D01*
X189158095Y-109624761D02*
X189062857Y-109672380D01*
X188872380Y-109672380D01*
X188777142Y-109624761D01*
X188729523Y-109529523D01*
X188729523Y-109148571D01*
X188777142Y-109053333D01*
X188872380Y-109005714D01*
X189062857Y-109005714D01*
X189158095Y-109053333D01*
X189205714Y-109148571D01*
X189205714Y-109243809D01*
X188729523Y-109339047D01*
X189777142Y-109672380D02*
X189681904Y-109624761D01*
X189634285Y-109529523D01*
X189634285Y-108672380D01*
X190586666Y-109672380D02*
X190586666Y-109148571D01*
X190539047Y-109053333D01*
X190443809Y-109005714D01*
X190253333Y-109005714D01*
X190158095Y-109053333D01*
X190586666Y-109624761D02*
X190491428Y-109672380D01*
X190253333Y-109672380D01*
X190158095Y-109624761D01*
X190110476Y-109529523D01*
X190110476Y-109434285D01*
X190158095Y-109339047D01*
X190253333Y-109291428D01*
X190491428Y-109291428D01*
X190586666Y-109243809D01*
X190967619Y-109005714D02*
X191205714Y-109672380D01*
X191443809Y-109005714D02*
X191205714Y-109672380D01*
X191110476Y-109910476D01*
X191062857Y-109958095D01*
X190967619Y-110005714D01*
X170751904Y-109386666D02*
X171228095Y-109386666D01*
X170656666Y-109672380D02*
X170990000Y-108672380D01*
X171323333Y-109672380D01*
X171656666Y-109672380D02*
X171656666Y-109005714D01*
X171656666Y-109196190D02*
X171704285Y-109100952D01*
X171751904Y-109053333D01*
X171847142Y-109005714D01*
X171942380Y-109005714D01*
X172275714Y-109672380D02*
X172275714Y-109005714D01*
X172275714Y-109100952D02*
X172323333Y-109053333D01*
X172418571Y-109005714D01*
X172561428Y-109005714D01*
X172656666Y-109053333D01*
X172704285Y-109148571D01*
X172704285Y-109672380D01*
X172704285Y-109148571D02*
X172751904Y-109053333D01*
X172847142Y-109005714D01*
X172990000Y-109005714D01*
X173085238Y-109053333D01*
X173132857Y-109148571D01*
X173132857Y-109672380D01*
X174180476Y-109672380D02*
X173847142Y-109196190D01*
X173609047Y-109672380D02*
X173609047Y-108672380D01*
X173990000Y-108672380D01*
X174085238Y-108720000D01*
X174132857Y-108767619D01*
X174180476Y-108862857D01*
X174180476Y-109005714D01*
X174132857Y-109100952D01*
X174085238Y-109148571D01*
X173990000Y-109196190D01*
X173609047Y-109196190D01*
X174990000Y-109624761D02*
X174894761Y-109672380D01*
X174704285Y-109672380D01*
X174609047Y-109624761D01*
X174561428Y-109529523D01*
X174561428Y-109148571D01*
X174609047Y-109053333D01*
X174704285Y-109005714D01*
X174894761Y-109005714D01*
X174990000Y-109053333D01*
X175037619Y-109148571D01*
X175037619Y-109243809D01*
X174561428Y-109339047D01*
X175609047Y-109672380D02*
X175513809Y-109624761D01*
X175466190Y-109529523D01*
X175466190Y-108672380D01*
X176418571Y-109672380D02*
X176418571Y-109148571D01*
X176370952Y-109053333D01*
X176275714Y-109005714D01*
X176085238Y-109005714D01*
X175990000Y-109053333D01*
X176418571Y-109624761D02*
X176323333Y-109672380D01*
X176085238Y-109672380D01*
X175990000Y-109624761D01*
X175942380Y-109529523D01*
X175942380Y-109434285D01*
X175990000Y-109339047D01*
X176085238Y-109291428D01*
X176323333Y-109291428D01*
X176418571Y-109243809D01*
X176799523Y-109005714D02*
X177037619Y-109672380D01*
X177275714Y-109005714D02*
X177037619Y-109672380D01*
X176942380Y-109910476D01*
X176894761Y-109958095D01*
X176799523Y-110005714D01*
X158917142Y-109672380D02*
X158917142Y-108672380D01*
X159155238Y-108672380D01*
X159298095Y-108720000D01*
X159393333Y-108815238D01*
X159440952Y-108910476D01*
X159488571Y-109100952D01*
X159488571Y-109243809D01*
X159440952Y-109434285D01*
X159393333Y-109529523D01*
X159298095Y-109624761D01*
X159155238Y-109672380D01*
X158917142Y-109672380D01*
X159917142Y-109672380D02*
X159917142Y-109005714D01*
X159917142Y-109196190D02*
X159964761Y-109100952D01*
X160012380Y-109053333D01*
X160107619Y-109005714D01*
X160202857Y-109005714D01*
X160536190Y-109672380D02*
X160536190Y-109005714D01*
X160536190Y-108672380D02*
X160488571Y-108720000D01*
X160536190Y-108767619D01*
X160583809Y-108720000D01*
X160536190Y-108672380D01*
X160536190Y-108767619D01*
X160917142Y-109005714D02*
X161155238Y-109672380D01*
X161393333Y-109005714D01*
X162155238Y-109624761D02*
X162060000Y-109672380D01*
X161869523Y-109672380D01*
X161774285Y-109624761D01*
X161726666Y-109529523D01*
X161726666Y-109148571D01*
X161774285Y-109053333D01*
X161869523Y-109005714D01*
X162060000Y-109005714D01*
X162155238Y-109053333D01*
X162202857Y-109148571D01*
X162202857Y-109243809D01*
X161726666Y-109339047D01*
X163202857Y-109672380D02*
X162869523Y-109196190D01*
X162631428Y-109672380D02*
X162631428Y-108672380D01*
X163012380Y-108672380D01*
X163107619Y-108720000D01*
X163155238Y-108767619D01*
X163202857Y-108862857D01*
X163202857Y-109005714D01*
X163155238Y-109100952D01*
X163107619Y-109148571D01*
X163012380Y-109196190D01*
X162631428Y-109196190D01*
X164012380Y-109624761D02*
X163917142Y-109672380D01*
X163726666Y-109672380D01*
X163631428Y-109624761D01*
X163583809Y-109529523D01*
X163583809Y-109148571D01*
X163631428Y-109053333D01*
X163726666Y-109005714D01*
X163917142Y-109005714D01*
X164012380Y-109053333D01*
X164060000Y-109148571D01*
X164060000Y-109243809D01*
X163583809Y-109339047D01*
X164631428Y-109672380D02*
X164536190Y-109624761D01*
X164488571Y-109529523D01*
X164488571Y-108672380D01*
X165440952Y-109672380D02*
X165440952Y-109148571D01*
X165393333Y-109053333D01*
X165298095Y-109005714D01*
X165107619Y-109005714D01*
X165012380Y-109053333D01*
X165440952Y-109624761D02*
X165345714Y-109672380D01*
X165107619Y-109672380D01*
X165012380Y-109624761D01*
X164964761Y-109529523D01*
X164964761Y-109434285D01*
X165012380Y-109339047D01*
X165107619Y-109291428D01*
X165345714Y-109291428D01*
X165440952Y-109243809D01*
X165821904Y-109005714D02*
X166060000Y-109672380D01*
X166298095Y-109005714D02*
X166060000Y-109672380D01*
X165964761Y-109910476D01*
X165917142Y-109958095D01*
X165821904Y-110005714D01*
D10*
%TO.C,D1*%
X162140000Y-96720000D02*
X162140000Y-93780000D01*
X162140000Y-93780000D02*
X156700000Y-93780000D01*
X156700000Y-93780000D02*
X156700000Y-96720000D01*
X156700000Y-96720000D02*
X162140000Y-96720000D01*
X163160000Y-95250000D02*
X162140000Y-95250000D01*
X155680000Y-95250000D02*
X156700000Y-95250000D01*
X161240000Y-96720000D02*
X161240000Y-93780000D01*
X161120000Y-96720000D02*
X161120000Y-93780000D01*
X161360000Y-96720000D02*
X161360000Y-93780000D01*
%TO.C,D2*%
X175440000Y-96720000D02*
X175440000Y-93780000D01*
X175440000Y-93780000D02*
X170000000Y-93780000D01*
X170000000Y-93780000D02*
X170000000Y-96720000D01*
X170000000Y-96720000D02*
X175440000Y-96720000D01*
X176460000Y-95250000D02*
X175440000Y-95250000D01*
X168980000Y-95250000D02*
X170000000Y-95250000D01*
X174540000Y-96720000D02*
X174540000Y-93780000D01*
X174420000Y-96720000D02*
X174420000Y-93780000D01*
X174660000Y-96720000D02*
X174660000Y-93780000D01*
%TO.C,D3*%
X187860000Y-96720000D02*
X187860000Y-93780000D01*
X187620000Y-96720000D02*
X187620000Y-93780000D01*
X187740000Y-96720000D02*
X187740000Y-93780000D01*
X182180000Y-95250000D02*
X183200000Y-95250000D01*
X189660000Y-95250000D02*
X188640000Y-95250000D01*
X183200000Y-96720000D02*
X188640000Y-96720000D01*
X183200000Y-93780000D02*
X183200000Y-96720000D01*
X188640000Y-93780000D02*
X183200000Y-93780000D01*
X188640000Y-96720000D02*
X188640000Y-93780000D01*
%TO.C,J1*%
X157480000Y-107950000D02*
X167640000Y-107950000D01*
X157480000Y-100330000D02*
X157480000Y-107950000D01*
X167640000Y-100330000D02*
X157480000Y-100330000D01*
X167640000Y-107950000D02*
X167640000Y-100330000D01*
X167640000Y-106680000D02*
X157480000Y-106680000D01*
%TO.C,J2*%
X163855400Y-58420000D02*
X174015400Y-58420000D01*
X163855400Y-64770000D02*
X174015400Y-64770000D01*
X163855400Y-57150000D02*
X163855400Y-64770000D01*
X174015400Y-57150000D02*
X163855400Y-57150000D01*
X174015400Y-64770000D02*
X174015400Y-57150000D01*
%TO.C,J4*%
X179070000Y-106680000D02*
X168910000Y-106680000D01*
X179070000Y-107950000D02*
X179070000Y-100330000D01*
X179070000Y-100330000D02*
X168910000Y-100330000D01*
X168910000Y-100330000D02*
X168910000Y-107950000D01*
X168910000Y-107950000D02*
X179070000Y-107950000D01*
%TO.C,J5*%
X180340000Y-107950000D02*
X190500000Y-107950000D01*
X180340000Y-100330000D02*
X180340000Y-107950000D01*
X190500000Y-100330000D02*
X180340000Y-100330000D01*
X190500000Y-107950000D02*
X190500000Y-100330000D01*
X190500000Y-106680000D02*
X180340000Y-106680000D01*
D11*
%TO.C,N-MOSFET1*%
X164085000Y-74110000D02*
X164085000Y-77095000D01*
X164085000Y-74110000D02*
X153415000Y-74110000D01*
X153415000Y-74110000D02*
X153415000Y-77095000D01*
%TO.C,N-MOSFET2*%
X181355000Y-74110000D02*
X181355000Y-77095000D01*
X192025000Y-74110000D02*
X181355000Y-74110000D01*
X192025000Y-74110000D02*
X192025000Y-77095000D01*
%TO.C,N-MOSFET3*%
X178055000Y-74110000D02*
X178055000Y-77095000D01*
X178055000Y-74110000D02*
X167385000Y-74110000D01*
X167385000Y-74110000D02*
X167385000Y-77095000D01*
D10*
%TO.C,SoftStop*%
X134620000Y-99034600D02*
X134620000Y-88874600D01*
X140970000Y-99034600D02*
X140970000Y-88874600D01*
X133350000Y-99034600D02*
X140970000Y-99034600D01*
X133350000Y-88874600D02*
X133350000Y-99034600D01*
X140970000Y-88874600D02*
X133350000Y-88874600D01*
%TO.C,HardStop*%
X142240000Y-100330000D02*
X142240000Y-107950000D01*
X142240000Y-107950000D02*
X152400000Y-107950000D01*
X152400000Y-107950000D02*
X152400000Y-100330000D01*
X152400000Y-100330000D02*
X142240000Y-100330000D01*
X152400000Y-106680000D02*
X142240000Y-106680000D01*
%TO.C,R1*%
X149860000Y-86130000D02*
X149860000Y-86900000D01*
X149860000Y-94210000D02*
X149860000Y-93440000D01*
X148490000Y-86900000D02*
X148490000Y-93440000D01*
X151230000Y-86900000D02*
X148490000Y-86900000D01*
X151230000Y-93440000D02*
X151230000Y-86900000D01*
X148490000Y-93440000D02*
X151230000Y-93440000D01*
%TO.C,R2*%
X146050000Y-86130000D02*
X146050000Y-86900000D01*
X146050000Y-94210000D02*
X146050000Y-93440000D01*
X144680000Y-86900000D02*
X144680000Y-93440000D01*
X147420000Y-86900000D02*
X144680000Y-86900000D01*
X147420000Y-93440000D02*
X147420000Y-86900000D01*
X144680000Y-93440000D02*
X147420000Y-93440000D01*
%TO.C,R3*%
X156750000Y-90070000D02*
X156750000Y-92810000D01*
X156750000Y-92810000D02*
X163290000Y-92810000D01*
X163290000Y-92810000D02*
X163290000Y-90070000D01*
X163290000Y-90070000D02*
X156750000Y-90070000D01*
X155980000Y-91440000D02*
X156750000Y-91440000D01*
X164060000Y-91440000D02*
X163290000Y-91440000D01*
%TO.C,R4*%
X176760000Y-91440000D02*
X175990000Y-91440000D01*
X168680000Y-91440000D02*
X169450000Y-91440000D01*
X175990000Y-90070000D02*
X169450000Y-90070000D01*
X175990000Y-92810000D02*
X175990000Y-90070000D01*
X169450000Y-92810000D02*
X175990000Y-92810000D01*
X169450000Y-90070000D02*
X169450000Y-92810000D01*
%TO.C,R5*%
X182150000Y-90070000D02*
X182150000Y-92810000D01*
X182150000Y-92810000D02*
X188690000Y-92810000D01*
X188690000Y-92810000D02*
X188690000Y-90070000D01*
X188690000Y-90070000D02*
X182150000Y-90070000D01*
X181380000Y-91440000D02*
X182150000Y-91440000D01*
X189460000Y-91440000D02*
X188690000Y-91440000D01*
D12*
%TO.C,U1*%
X143510000Y-87630000D02*
X143510000Y-82550000D01*
X143510000Y-82550000D02*
X145542000Y-82550000D01*
X145542000Y-82550000D02*
X151130000Y-77216000D01*
X151130000Y-77216000D02*
X151130000Y-67310000D01*
X151130000Y-67310000D02*
X145796000Y-62230000D01*
X145796000Y-62230000D02*
X143510000Y-62230000D01*
X143510000Y-62230000D02*
X143510000Y-57150000D01*
X143510000Y-57150000D02*
X138430000Y-57150000D01*
X138430000Y-57150000D02*
X138430000Y-62230000D01*
X138430000Y-62230000D02*
X131318000Y-62230000D01*
X131318000Y-62230000D02*
X131318000Y-66548000D01*
X131318000Y-66548000D02*
X134366000Y-69088000D01*
X134366000Y-69088000D02*
X134366000Y-75438000D01*
X134366000Y-75438000D02*
X131318000Y-77724000D01*
X131318000Y-77724000D02*
X131318000Y-82550000D01*
X131318000Y-82550000D02*
X138430000Y-82550000D01*
X138430000Y-82550000D02*
X138430000Y-87630000D01*
X138430000Y-87630000D02*
X143510000Y-87630000D01*
D10*
%TO.C,U2*%
X157782516Y-61976000D02*
X157177484Y-61976000D01*
X158356300Y-63837861D02*
X158356300Y-63162139D01*
X157177484Y-65024000D02*
X157782516Y-65024000D01*
X157604872Y-62254047D02*
G75*
G02*
X157355128Y-62254047I-124872J278047D01*
G01*
%TO.C,J3*%
X175285400Y-58420000D02*
X185445400Y-58420000D01*
X175285400Y-64770000D02*
X185445400Y-64770000D01*
X175285400Y-57150000D02*
X175285400Y-64770000D01*
X185445400Y-57150000D02*
X175285400Y-57150000D01*
X185445400Y-64770000D02*
X185445400Y-57150000D01*
%TO.C,D1*%
D11*
X158681904Y-98172380D02*
X158681904Y-97172380D01*
X158920000Y-97172380D01*
X159062857Y-97220000D01*
X159158095Y-97315238D01*
X159205714Y-97410476D01*
X159253333Y-97600952D01*
X159253333Y-97743809D01*
X159205714Y-97934285D01*
X159158095Y-98029523D01*
X159062857Y-98124761D01*
X158920000Y-98172380D01*
X158681904Y-98172380D01*
X160205714Y-98172380D02*
X159634285Y-98172380D01*
X159920000Y-98172380D02*
X159920000Y-97172380D01*
X159824761Y-97315238D01*
X159729523Y-97410476D01*
X159634285Y-97458095D01*
X164238095Y-97802380D02*
X164238095Y-96802380D01*
X164809523Y-97802380D02*
X164380952Y-97230952D01*
X164809523Y-96802380D02*
X164238095Y-97373809D01*
%TO.C,D2*%
X171981904Y-98172380D02*
X171981904Y-97172380D01*
X172220000Y-97172380D01*
X172362857Y-97220000D01*
X172458095Y-97315238D01*
X172505714Y-97410476D01*
X172553333Y-97600952D01*
X172553333Y-97743809D01*
X172505714Y-97934285D01*
X172458095Y-98029523D01*
X172362857Y-98124761D01*
X172220000Y-98172380D01*
X171981904Y-98172380D01*
X172934285Y-97267619D02*
X172981904Y-97220000D01*
X173077142Y-97172380D01*
X173315238Y-97172380D01*
X173410476Y-97220000D01*
X173458095Y-97267619D01*
X173505714Y-97362857D01*
X173505714Y-97458095D01*
X173458095Y-97600952D01*
X172886666Y-98172380D01*
X173505714Y-98172380D01*
X177538095Y-97802380D02*
X177538095Y-96802380D01*
X178109523Y-97802380D02*
X177680952Y-97230952D01*
X178109523Y-96802380D02*
X177538095Y-97373809D01*
%TO.C,D3*%
X185181904Y-98172380D02*
X185181904Y-97172380D01*
X185420000Y-97172380D01*
X185562857Y-97220000D01*
X185658095Y-97315238D01*
X185705714Y-97410476D01*
X185753333Y-97600952D01*
X185753333Y-97743809D01*
X185705714Y-97934285D01*
X185658095Y-98029523D01*
X185562857Y-98124761D01*
X185420000Y-98172380D01*
X185181904Y-98172380D01*
X186086666Y-97172380D02*
X186705714Y-97172380D01*
X186372380Y-97553333D01*
X186515238Y-97553333D01*
X186610476Y-97600952D01*
X186658095Y-97648571D01*
X186705714Y-97743809D01*
X186705714Y-97981904D01*
X186658095Y-98077142D01*
X186610476Y-98124761D01*
X186515238Y-98172380D01*
X186229523Y-98172380D01*
X186134285Y-98124761D01*
X186086666Y-98077142D01*
X190738095Y-97802380D02*
X190738095Y-96802380D01*
X191309523Y-97802380D02*
X190880952Y-97230952D01*
X191309523Y-96802380D02*
X190738095Y-97373809D01*
%TO.C,J1*%
X162226666Y-98512380D02*
X162226666Y-99226666D01*
X162179047Y-99369523D01*
X162083809Y-99464761D01*
X161940952Y-99512380D01*
X161845714Y-99512380D01*
X163226666Y-99512380D02*
X162655238Y-99512380D01*
X162940952Y-99512380D02*
X162940952Y-98512380D01*
X162845714Y-98655238D01*
X162750476Y-98750476D01*
X162655238Y-98798095D01*
%TO.C,J2*%
X168652866Y-65492380D02*
X168652866Y-66206666D01*
X168605247Y-66349523D01*
X168510009Y-66444761D01*
X168367152Y-66492380D01*
X168271914Y-66492380D01*
X169081438Y-65587619D02*
X169129057Y-65540000D01*
X169224295Y-65492380D01*
X169462390Y-65492380D01*
X169557628Y-65540000D01*
X169605247Y-65587619D01*
X169652866Y-65682857D01*
X169652866Y-65778095D01*
X169605247Y-65920952D01*
X169033819Y-66492380D01*
X169652866Y-66492380D01*
%TO.C,J4*%
X173656666Y-98512380D02*
X173656666Y-99226666D01*
X173609047Y-99369523D01*
X173513809Y-99464761D01*
X173370952Y-99512380D01*
X173275714Y-99512380D01*
X174561428Y-98845714D02*
X174561428Y-99512380D01*
X174323333Y-98464761D02*
X174085238Y-99179047D01*
X174704285Y-99179047D01*
%TO.C,J5*%
X185086666Y-98512380D02*
X185086666Y-99226666D01*
X185039047Y-99369523D01*
X184943809Y-99464761D01*
X184800952Y-99512380D01*
X184705714Y-99512380D01*
X186039047Y-98512380D02*
X185562857Y-98512380D01*
X185515238Y-98988571D01*
X185562857Y-98940952D01*
X185658095Y-98893333D01*
X185896190Y-98893333D01*
X185991428Y-98940952D01*
X186039047Y-98988571D01*
X186086666Y-99083809D01*
X186086666Y-99321904D01*
X186039047Y-99417142D01*
X185991428Y-99464761D01*
X185896190Y-99512380D01*
X185658095Y-99512380D01*
X185562857Y-99464761D01*
X185515238Y-99417142D01*
%TO.C,N-MOSFET1*%
X153795833Y-67762380D02*
X153795833Y-66762380D01*
X154367261Y-67762380D01*
X154367261Y-66762380D01*
X154843452Y-67381428D02*
X155605357Y-67381428D01*
X156081547Y-67762380D02*
X156081547Y-66762380D01*
X156414880Y-67476666D01*
X156748214Y-66762380D01*
X156748214Y-67762380D01*
X157414880Y-66762380D02*
X157605357Y-66762380D01*
X157700595Y-66810000D01*
X157795833Y-66905238D01*
X157843452Y-67095714D01*
X157843452Y-67429047D01*
X157795833Y-67619523D01*
X157700595Y-67714761D01*
X157605357Y-67762380D01*
X157414880Y-67762380D01*
X157319642Y-67714761D01*
X157224404Y-67619523D01*
X157176785Y-67429047D01*
X157176785Y-67095714D01*
X157224404Y-66905238D01*
X157319642Y-66810000D01*
X157414880Y-66762380D01*
X158224404Y-67714761D02*
X158367261Y-67762380D01*
X158605357Y-67762380D01*
X158700595Y-67714761D01*
X158748214Y-67667142D01*
X158795833Y-67571904D01*
X158795833Y-67476666D01*
X158748214Y-67381428D01*
X158700595Y-67333809D01*
X158605357Y-67286190D01*
X158414880Y-67238571D01*
X158319642Y-67190952D01*
X158272023Y-67143333D01*
X158224404Y-67048095D01*
X158224404Y-66952857D01*
X158272023Y-66857619D01*
X158319642Y-66810000D01*
X158414880Y-66762380D01*
X158652976Y-66762380D01*
X158795833Y-66810000D01*
X159557738Y-67238571D02*
X159224404Y-67238571D01*
X159224404Y-67762380D02*
X159224404Y-66762380D01*
X159700595Y-66762380D01*
X160081547Y-67238571D02*
X160414880Y-67238571D01*
X160557738Y-67762380D02*
X160081547Y-67762380D01*
X160081547Y-66762380D01*
X160557738Y-66762380D01*
X160843452Y-66762380D02*
X161414880Y-66762380D01*
X161129166Y-67762380D02*
X161129166Y-66762380D01*
X162272023Y-67762380D02*
X161700595Y-67762380D01*
X161986309Y-67762380D02*
X161986309Y-66762380D01*
X161891071Y-66905238D01*
X161795833Y-67000476D01*
X161700595Y-67048095D01*
%TO.C,N-MOSFET2*%
X181735833Y-67762380D02*
X181735833Y-66762380D01*
X182307261Y-67762380D01*
X182307261Y-66762380D01*
X182783452Y-67381428D02*
X183545357Y-67381428D01*
X184021547Y-67762380D02*
X184021547Y-66762380D01*
X184354880Y-67476666D01*
X184688214Y-66762380D01*
X184688214Y-67762380D01*
X185354880Y-66762380D02*
X185545357Y-66762380D01*
X185640595Y-66810000D01*
X185735833Y-66905238D01*
X185783452Y-67095714D01*
X185783452Y-67429047D01*
X185735833Y-67619523D01*
X185640595Y-67714761D01*
X185545357Y-67762380D01*
X185354880Y-67762380D01*
X185259642Y-67714761D01*
X185164404Y-67619523D01*
X185116785Y-67429047D01*
X185116785Y-67095714D01*
X185164404Y-66905238D01*
X185259642Y-66810000D01*
X185354880Y-66762380D01*
X186164404Y-67714761D02*
X186307261Y-67762380D01*
X186545357Y-67762380D01*
X186640595Y-67714761D01*
X186688214Y-67667142D01*
X186735833Y-67571904D01*
X186735833Y-67476666D01*
X186688214Y-67381428D01*
X186640595Y-67333809D01*
X186545357Y-67286190D01*
X186354880Y-67238571D01*
X186259642Y-67190952D01*
X186212023Y-67143333D01*
X186164404Y-67048095D01*
X186164404Y-66952857D01*
X186212023Y-66857619D01*
X186259642Y-66810000D01*
X186354880Y-66762380D01*
X186592976Y-66762380D01*
X186735833Y-66810000D01*
X187497738Y-67238571D02*
X187164404Y-67238571D01*
X187164404Y-67762380D02*
X187164404Y-66762380D01*
X187640595Y-66762380D01*
X188021547Y-67238571D02*
X188354880Y-67238571D01*
X188497738Y-67762380D02*
X188021547Y-67762380D01*
X188021547Y-66762380D01*
X188497738Y-66762380D01*
X188783452Y-66762380D02*
X189354880Y-66762380D01*
X189069166Y-67762380D02*
X189069166Y-66762380D01*
X189640595Y-66857619D02*
X189688214Y-66810000D01*
X189783452Y-66762380D01*
X190021547Y-66762380D01*
X190116785Y-66810000D01*
X190164404Y-66857619D01*
X190212023Y-66952857D01*
X190212023Y-67048095D01*
X190164404Y-67190952D01*
X189592976Y-67762380D01*
X190212023Y-67762380D01*
%TO.C,N-MOSFET3*%
X167765833Y-67762380D02*
X167765833Y-66762380D01*
X168337261Y-67762380D01*
X168337261Y-66762380D01*
X168813452Y-67381428D02*
X169575357Y-67381428D01*
X170051547Y-67762380D02*
X170051547Y-66762380D01*
X170384880Y-67476666D01*
X170718214Y-66762380D01*
X170718214Y-67762380D01*
X171384880Y-66762380D02*
X171575357Y-66762380D01*
X171670595Y-66810000D01*
X171765833Y-66905238D01*
X171813452Y-67095714D01*
X171813452Y-67429047D01*
X171765833Y-67619523D01*
X171670595Y-67714761D01*
X171575357Y-67762380D01*
X171384880Y-67762380D01*
X171289642Y-67714761D01*
X171194404Y-67619523D01*
X171146785Y-67429047D01*
X171146785Y-67095714D01*
X171194404Y-66905238D01*
X171289642Y-66810000D01*
X171384880Y-66762380D01*
X172194404Y-67714761D02*
X172337261Y-67762380D01*
X172575357Y-67762380D01*
X172670595Y-67714761D01*
X172718214Y-67667142D01*
X172765833Y-67571904D01*
X172765833Y-67476666D01*
X172718214Y-67381428D01*
X172670595Y-67333809D01*
X172575357Y-67286190D01*
X172384880Y-67238571D01*
X172289642Y-67190952D01*
X172242023Y-67143333D01*
X172194404Y-67048095D01*
X172194404Y-66952857D01*
X172242023Y-66857619D01*
X172289642Y-66810000D01*
X172384880Y-66762380D01*
X172622976Y-66762380D01*
X172765833Y-66810000D01*
X173527738Y-67238571D02*
X173194404Y-67238571D01*
X173194404Y-67762380D02*
X173194404Y-66762380D01*
X173670595Y-66762380D01*
X174051547Y-67238571D02*
X174384880Y-67238571D01*
X174527738Y-67762380D02*
X174051547Y-67762380D01*
X174051547Y-66762380D01*
X174527738Y-66762380D01*
X174813452Y-66762380D02*
X175384880Y-66762380D01*
X175099166Y-67762380D02*
X175099166Y-66762380D01*
X175622976Y-66762380D02*
X176242023Y-66762380D01*
X175908690Y-67143333D01*
X176051547Y-67143333D01*
X176146785Y-67190952D01*
X176194404Y-67238571D01*
X176242023Y-67333809D01*
X176242023Y-67571904D01*
X176194404Y-67667142D01*
X176146785Y-67714761D01*
X176051547Y-67762380D01*
X175765833Y-67762380D01*
X175670595Y-67714761D01*
X175622976Y-67667142D01*
%TO.C,SoftStop*%
X132484761Y-96879990D02*
X132532380Y-96737133D01*
X132532380Y-96499038D01*
X132484761Y-96403800D01*
X132437142Y-96356180D01*
X132341904Y-96308561D01*
X132246666Y-96308561D01*
X132151428Y-96356180D01*
X132103809Y-96403800D01*
X132056190Y-96499038D01*
X132008571Y-96689514D01*
X131960952Y-96784752D01*
X131913333Y-96832371D01*
X131818095Y-96879990D01*
X131722857Y-96879990D01*
X131627619Y-96832371D01*
X131580000Y-96784752D01*
X131532380Y-96689514D01*
X131532380Y-96451419D01*
X131580000Y-96308561D01*
X132532380Y-95737133D02*
X132484761Y-95832371D01*
X132437142Y-95879990D01*
X132341904Y-95927609D01*
X132056190Y-95927609D01*
X131960952Y-95879990D01*
X131913333Y-95832371D01*
X131865714Y-95737133D01*
X131865714Y-95594276D01*
X131913333Y-95499038D01*
X131960952Y-95451419D01*
X132056190Y-95403800D01*
X132341904Y-95403800D01*
X132437142Y-95451419D01*
X132484761Y-95499038D01*
X132532380Y-95594276D01*
X132532380Y-95737133D01*
X131865714Y-95118085D02*
X131865714Y-94737133D01*
X132532380Y-94975228D02*
X131675238Y-94975228D01*
X131580000Y-94927609D01*
X131532380Y-94832371D01*
X131532380Y-94737133D01*
X131865714Y-94546657D02*
X131865714Y-94165704D01*
X131532380Y-94403800D02*
X132389523Y-94403800D01*
X132484761Y-94356180D01*
X132532380Y-94260942D01*
X132532380Y-94165704D01*
X132484761Y-93879990D02*
X132532380Y-93737133D01*
X132532380Y-93499038D01*
X132484761Y-93403800D01*
X132437142Y-93356180D01*
X132341904Y-93308561D01*
X132246666Y-93308561D01*
X132151428Y-93356180D01*
X132103809Y-93403800D01*
X132056190Y-93499038D01*
X132008571Y-93689514D01*
X131960952Y-93784752D01*
X131913333Y-93832371D01*
X131818095Y-93879990D01*
X131722857Y-93879990D01*
X131627619Y-93832371D01*
X131580000Y-93784752D01*
X131532380Y-93689514D01*
X131532380Y-93451419D01*
X131580000Y-93308561D01*
X131865714Y-93022847D02*
X131865714Y-92641895D01*
X131532380Y-92879990D02*
X132389523Y-92879990D01*
X132484761Y-92832371D01*
X132532380Y-92737133D01*
X132532380Y-92641895D01*
X132532380Y-92165704D02*
X132484761Y-92260942D01*
X132437142Y-92308561D01*
X132341904Y-92356180D01*
X132056190Y-92356180D01*
X131960952Y-92308561D01*
X131913333Y-92260942D01*
X131865714Y-92165704D01*
X131865714Y-92022847D01*
X131913333Y-91927609D01*
X131960952Y-91879990D01*
X132056190Y-91832371D01*
X132341904Y-91832371D01*
X132437142Y-91879990D01*
X132484761Y-91927609D01*
X132532380Y-92022847D01*
X132532380Y-92165704D01*
X131865714Y-91403800D02*
X132865714Y-91403800D01*
X131913333Y-91403800D02*
X131865714Y-91308561D01*
X131865714Y-91118085D01*
X131913333Y-91022847D01*
X131960952Y-90975228D01*
X132056190Y-90927609D01*
X132341904Y-90927609D01*
X132437142Y-90975228D01*
X132484761Y-91022847D01*
X132532380Y-91118085D01*
X132532380Y-91308561D01*
X132484761Y-91403800D01*
%TO.C,HardStop*%
X144178733Y-109443780D02*
X144178733Y-108443780D01*
X144178733Y-108919971D02*
X144750161Y-108919971D01*
X144750161Y-109443780D02*
X144750161Y-108443780D01*
X145654923Y-109443780D02*
X145654923Y-108919971D01*
X145607304Y-108824733D01*
X145512066Y-108777114D01*
X145321590Y-108777114D01*
X145226352Y-108824733D01*
X145654923Y-109396161D02*
X145559685Y-109443780D01*
X145321590Y-109443780D01*
X145226352Y-109396161D01*
X145178733Y-109300923D01*
X145178733Y-109205685D01*
X145226352Y-109110447D01*
X145321590Y-109062828D01*
X145559685Y-109062828D01*
X145654923Y-109015209D01*
X146131114Y-109443780D02*
X146131114Y-108777114D01*
X146131114Y-108967590D02*
X146178733Y-108872352D01*
X146226352Y-108824733D01*
X146321590Y-108777114D01*
X146416828Y-108777114D01*
X147178733Y-109443780D02*
X147178733Y-108443780D01*
X147178733Y-109396161D02*
X147083495Y-109443780D01*
X146893019Y-109443780D01*
X146797780Y-109396161D01*
X146750161Y-109348542D01*
X146702542Y-109253304D01*
X146702542Y-108967590D01*
X146750161Y-108872352D01*
X146797780Y-108824733D01*
X146893019Y-108777114D01*
X147083495Y-108777114D01*
X147178733Y-108824733D01*
X147607304Y-109396161D02*
X147750161Y-109443780D01*
X147988257Y-109443780D01*
X148083495Y-109396161D01*
X148131114Y-109348542D01*
X148178733Y-109253304D01*
X148178733Y-109158066D01*
X148131114Y-109062828D01*
X148083495Y-109015209D01*
X147988257Y-108967590D01*
X147797780Y-108919971D01*
X147702542Y-108872352D01*
X147654923Y-108824733D01*
X147607304Y-108729495D01*
X147607304Y-108634257D01*
X147654923Y-108539019D01*
X147702542Y-108491400D01*
X147797780Y-108443780D01*
X148035876Y-108443780D01*
X148178733Y-108491400D01*
X148464447Y-108777114D02*
X148845400Y-108777114D01*
X148607304Y-108443780D02*
X148607304Y-109300923D01*
X148654923Y-109396161D01*
X148750161Y-109443780D01*
X148845400Y-109443780D01*
X149321590Y-109443780D02*
X149226352Y-109396161D01*
X149178733Y-109348542D01*
X149131114Y-109253304D01*
X149131114Y-108967590D01*
X149178733Y-108872352D01*
X149226352Y-108824733D01*
X149321590Y-108777114D01*
X149464447Y-108777114D01*
X149559685Y-108824733D01*
X149607304Y-108872352D01*
X149654923Y-108967590D01*
X149654923Y-109253304D01*
X149607304Y-109348542D01*
X149559685Y-109396161D01*
X149464447Y-109443780D01*
X149321590Y-109443780D01*
X150083495Y-108777114D02*
X150083495Y-109777114D01*
X150083495Y-108824733D02*
X150178733Y-108777114D01*
X150369209Y-108777114D01*
X150464447Y-108824733D01*
X150512066Y-108872352D01*
X150559685Y-108967590D01*
X150559685Y-109253304D01*
X150512066Y-109348542D01*
X150464447Y-109396161D01*
X150369209Y-109443780D01*
X150178733Y-109443780D01*
X150083495Y-109396161D01*
%TO.C,R1*%
X152852380Y-90336666D02*
X152376190Y-90670000D01*
X152852380Y-90908095D02*
X151852380Y-90908095D01*
X151852380Y-90527142D01*
X151900000Y-90431904D01*
X151947619Y-90384285D01*
X152042857Y-90336666D01*
X152185714Y-90336666D01*
X152280952Y-90384285D01*
X152328571Y-90431904D01*
X152376190Y-90527142D01*
X152376190Y-90908095D01*
X152852380Y-89384285D02*
X152852380Y-89955714D01*
X152852380Y-89670000D02*
X151852380Y-89670000D01*
X151995238Y-89765238D01*
X152090476Y-89860476D01*
X152138095Y-89955714D01*
%TO.C,R2*%
X144132380Y-90336666D02*
X143656190Y-90670000D01*
X144132380Y-90908095D02*
X143132380Y-90908095D01*
X143132380Y-90527142D01*
X143180000Y-90431904D01*
X143227619Y-90384285D01*
X143322857Y-90336666D01*
X143465714Y-90336666D01*
X143560952Y-90384285D01*
X143608571Y-90431904D01*
X143656190Y-90527142D01*
X143656190Y-90908095D01*
X143227619Y-89955714D02*
X143180000Y-89908095D01*
X143132380Y-89812857D01*
X143132380Y-89574761D01*
X143180000Y-89479523D01*
X143227619Y-89431904D01*
X143322857Y-89384285D01*
X143418095Y-89384285D01*
X143560952Y-89431904D01*
X144132380Y-90003333D01*
X144132380Y-89384285D01*
%TO.C,R3*%
X159853333Y-89522380D02*
X159520000Y-89046190D01*
X159281904Y-89522380D02*
X159281904Y-88522380D01*
X159662857Y-88522380D01*
X159758095Y-88570000D01*
X159805714Y-88617619D01*
X159853333Y-88712857D01*
X159853333Y-88855714D01*
X159805714Y-88950952D01*
X159758095Y-88998571D01*
X159662857Y-89046190D01*
X159281904Y-89046190D01*
X160186666Y-88522380D02*
X160805714Y-88522380D01*
X160472380Y-88903333D01*
X160615238Y-88903333D01*
X160710476Y-88950952D01*
X160758095Y-88998571D01*
X160805714Y-89093809D01*
X160805714Y-89331904D01*
X160758095Y-89427142D01*
X160710476Y-89474761D01*
X160615238Y-89522380D01*
X160329523Y-89522380D01*
X160234285Y-89474761D01*
X160186666Y-89427142D01*
%TO.C,R4*%
X172553333Y-89522380D02*
X172220000Y-89046190D01*
X171981904Y-89522380D02*
X171981904Y-88522380D01*
X172362857Y-88522380D01*
X172458095Y-88570000D01*
X172505714Y-88617619D01*
X172553333Y-88712857D01*
X172553333Y-88855714D01*
X172505714Y-88950952D01*
X172458095Y-88998571D01*
X172362857Y-89046190D01*
X171981904Y-89046190D01*
X173410476Y-88855714D02*
X173410476Y-89522380D01*
X173172380Y-88474761D02*
X172934285Y-89189047D01*
X173553333Y-89189047D01*
%TO.C,R5*%
X185253333Y-89522380D02*
X184920000Y-89046190D01*
X184681904Y-89522380D02*
X184681904Y-88522380D01*
X185062857Y-88522380D01*
X185158095Y-88570000D01*
X185205714Y-88617619D01*
X185253333Y-88712857D01*
X185253333Y-88855714D01*
X185205714Y-88950952D01*
X185158095Y-88998571D01*
X185062857Y-89046190D01*
X184681904Y-89046190D01*
X186158095Y-88522380D02*
X185681904Y-88522380D01*
X185634285Y-88998571D01*
X185681904Y-88950952D01*
X185777142Y-88903333D01*
X186015238Y-88903333D01*
X186110476Y-88950952D01*
X186158095Y-88998571D01*
X186205714Y-89093809D01*
X186205714Y-89331904D01*
X186158095Y-89427142D01*
X186110476Y-89474761D01*
X186015238Y-89522380D01*
X185777142Y-89522380D01*
X185681904Y-89474761D01*
X185634285Y-89427142D01*
%TO.C,U1*%
X132627142Y-61965714D02*
X133695714Y-61965714D01*
X133821428Y-61902857D01*
X133884285Y-61840000D01*
X133947142Y-61714285D01*
X133947142Y-61462857D01*
X133884285Y-61337142D01*
X133821428Y-61274285D01*
X133695714Y-61211428D01*
X132627142Y-61211428D01*
X133947142Y-59891428D02*
X133947142Y-60645714D01*
X133947142Y-60268571D02*
X132627142Y-60268571D01*
X132815714Y-60394285D01*
X132941428Y-60520000D01*
X133004285Y-60645714D01*
%TO.C,U2*%
X157988095Y-59142380D02*
X157988095Y-59951904D01*
X158035714Y-60047142D01*
X158083333Y-60094761D01*
X158178571Y-60142380D01*
X158369047Y-60142380D01*
X158464285Y-60094761D01*
X158511904Y-60047142D01*
X158559523Y-59951904D01*
X158559523Y-59142380D01*
X158988095Y-59237619D02*
X159035714Y-59190000D01*
X159130952Y-59142380D01*
X159369047Y-59142380D01*
X159464285Y-59190000D01*
X159511904Y-59237619D01*
X159559523Y-59332857D01*
X159559523Y-59428095D01*
X159511904Y-59570952D01*
X158940476Y-60142380D01*
X159559523Y-60142380D01*
X161547619Y-61285714D02*
X161547619Y-61476190D01*
X161500000Y-61571428D01*
X161404761Y-61666666D01*
X161214285Y-61714285D01*
X160880952Y-61714285D01*
X160690476Y-61666666D01*
X160595238Y-61571428D01*
X160547619Y-61476190D01*
X160547619Y-61285714D01*
X160595238Y-61190476D01*
X160690476Y-61095238D01*
X160880952Y-61047619D01*
X161214285Y-61047619D01*
X161404761Y-61095238D01*
X161500000Y-61190476D01*
X161547619Y-61285714D01*
X160547619Y-62714285D02*
X161023809Y-62380952D01*
X160547619Y-62142857D02*
X161547619Y-62142857D01*
X161547619Y-62523809D01*
X161500000Y-62619047D01*
X161452380Y-62666666D01*
X161357142Y-62714285D01*
X161214285Y-62714285D01*
X161119047Y-62666666D01*
X161071428Y-62619047D01*
X161023809Y-62523809D01*
X161023809Y-62142857D01*
X161214285Y-63571428D02*
X160404761Y-63571428D01*
X160309523Y-63523809D01*
X160261904Y-63476190D01*
X160214285Y-63380952D01*
X160214285Y-63238095D01*
X160261904Y-63142857D01*
X160595238Y-63571428D02*
X160547619Y-63476190D01*
X160547619Y-63285714D01*
X160595238Y-63190476D01*
X160642857Y-63142857D01*
X160738095Y-63095238D01*
X161023809Y-63095238D01*
X161119047Y-63142857D01*
X161166666Y-63190476D01*
X161214285Y-63285714D01*
X161214285Y-63476190D01*
X161166666Y-63571428D01*
X160547619Y-64476190D02*
X161071428Y-64476190D01*
X161166666Y-64428571D01*
X161214285Y-64333333D01*
X161214285Y-64142857D01*
X161166666Y-64047619D01*
X160595238Y-64476190D02*
X160547619Y-64380952D01*
X160547619Y-64142857D01*
X160595238Y-64047619D01*
X160690476Y-64000000D01*
X160785714Y-64000000D01*
X160880952Y-64047619D01*
X160928571Y-64142857D01*
X160928571Y-64380952D01*
X160976190Y-64476190D01*
X161214285Y-64809523D02*
X161214285Y-65190476D01*
X161547619Y-64952380D02*
X160690476Y-64952380D01*
X160595238Y-65000000D01*
X160547619Y-65095238D01*
X160547619Y-65190476D01*
X160595238Y-65904761D02*
X160547619Y-65809523D01*
X160547619Y-65619047D01*
X160595238Y-65523809D01*
X160690476Y-65476190D01*
X161071428Y-65476190D01*
X161166666Y-65523809D01*
X161214285Y-65619047D01*
X161214285Y-65809523D01*
X161166666Y-65904761D01*
X161071428Y-65952380D01*
X160976190Y-65952380D01*
X160880952Y-65476190D01*
X156032200Y-60300580D02*
X156032200Y-60538676D01*
X155794104Y-60443438D02*
X156032200Y-60538676D01*
X156270295Y-60443438D01*
X155889342Y-60729152D02*
X156032200Y-60538676D01*
X156175057Y-60729152D01*
X156032200Y-60300580D02*
X156032200Y-60538676D01*
X155794104Y-60443438D02*
X156032200Y-60538676D01*
X156270295Y-60443438D01*
X155889342Y-60729152D02*
X156032200Y-60538676D01*
X156175057Y-60729152D01*
%TO.C,J3*%
X180006666Y-65492380D02*
X180006666Y-66206666D01*
X179959047Y-66349523D01*
X179863809Y-66444761D01*
X179720952Y-66492380D01*
X179625714Y-66492380D01*
X180387619Y-65492380D02*
X181006666Y-65492380D01*
X180673333Y-65873333D01*
X180816190Y-65873333D01*
X180911428Y-65920952D01*
X180959047Y-65968571D01*
X181006666Y-66063809D01*
X181006666Y-66301904D01*
X180959047Y-66397142D01*
X180911428Y-66444761D01*
X180816190Y-66492380D01*
X180530476Y-66492380D01*
X180435238Y-66444761D01*
X180387619Y-66397142D01*
%TD*%
M02*
