%TF.GenerationSoftware,KiCad,Pcbnew,(5.1.10)-1*%
%TF.CreationDate,2022-01-12T13:36:27-08:00*%
%TF.ProjectId,killswitch,6b696c6c-7377-4697-9463-682e6b696361,rev?*%
%TF.SameCoordinates,Original*%
%TF.FileFunction,Copper,L2,Bot*%
%TF.FilePolarity,Positive*%
%FSLAX46Y46*%
G04 Gerber Fmt 4.6, Leading zero omitted, Abs format (unit mm)*
G04 Created by KiCad (PCBNEW (5.1.10)-1) date 2022-01-12 13:36:27*
%MOMM*%
%LPD*%
G01*
G04 APERTURE LIST*
%TA.AperFunction,ComponentPad*%
%ADD10O,2.200000X2.200000*%
%TD*%
%TA.AperFunction,ComponentPad*%
%ADD11R,2.200000X2.200000*%
%TD*%
%TA.AperFunction,ComponentPad*%
%ADD12R,3.000000X3.000000*%
%TD*%
%TA.AperFunction,ComponentPad*%
%ADD13C,3.000000*%
%TD*%
%TA.AperFunction,ComponentPad*%
%ADD14C,1.600000*%
%TD*%
%TA.AperFunction,ComponentPad*%
%ADD15O,1.600000X1.600000*%
%TD*%
%TA.AperFunction,ViaPad*%
%ADD16C,5.000000*%
%TD*%
%TA.AperFunction,ViaPad*%
%ADD17C,0.800000*%
%TD*%
%TA.AperFunction,Conductor*%
%ADD18C,0.250000*%
%TD*%
%TA.AperFunction,Conductor*%
%ADD19C,1.270000*%
%TD*%
G04 APERTURE END LIST*
D10*
%TO.P,D1,2*%
%TO.N,toRelay1*%
X154340000Y-95250000D03*
D11*
%TO.P,D1,1*%
%TO.N,outRelay1*%
X164500000Y-95250000D03*
%TD*%
D10*
%TO.P,D2,2*%
%TO.N,toRelay2*%
X167640000Y-95250000D03*
D11*
%TO.P,D2,1*%
%TO.N,outRelay2*%
X177800000Y-95250000D03*
%TD*%
%TO.P,D3,1*%
%TO.N,outRelay3*%
X191000000Y-95250000D03*
D10*
%TO.P,D3,2*%
%TO.N,toRelay3*%
X180840000Y-95250000D03*
%TD*%
D12*
%TO.P,J1,1*%
%TO.N,toRelay1*%
X160020000Y-104140000D03*
D13*
%TO.P,J1,2*%
%TO.N,outRelay1*%
X165100000Y-104140000D03*
%TD*%
%TO.P,J2,1*%
%TO.N,+48V*%
X166395400Y-60960000D03*
D12*
%TO.P,J2,2*%
%TO.N,GND*%
X171475400Y-60960000D03*
%TD*%
D13*
%TO.P,J4,2*%
%TO.N,outRelay2*%
X176530000Y-104140000D03*
D12*
%TO.P,J4,1*%
%TO.N,toRelay2*%
X171450000Y-104140000D03*
%TD*%
%TO.P,J5,1*%
%TO.N,toRelay3*%
X182880000Y-104140000D03*
D13*
%TO.P,J5,2*%
%TO.N,outRelay3*%
X187960000Y-104140000D03*
%TD*%
%TO.P,SoftStop,1*%
%TO.N,3V*%
X137160000Y-96494600D03*
D12*
%TO.P,SoftStop,2*%
%TO.N,SS*%
X137160000Y-91414600D03*
%TD*%
%TO.P,HardStop,2*%
%TO.N,HS*%
X144780000Y-104140000D03*
D13*
%TO.P,HardStop,1*%
%TO.N,3V*%
X149860000Y-104140000D03*
%TD*%
D14*
%TO.P,R1,1*%
%TO.N,HS*%
X149860000Y-95250000D03*
D15*
%TO.P,R1,2*%
%TO.N,GND*%
X149860000Y-85090000D03*
%TD*%
D14*
%TO.P,R2,1*%
%TO.N,SS*%
X146050000Y-95250000D03*
D15*
%TO.P,R2,2*%
%TO.N,GND*%
X146050000Y-85090000D03*
%TD*%
%TO.P,R3,2*%
%TO.N,outRelay1*%
X165100000Y-91440000D03*
D14*
%TO.P,R3,1*%
%TO.N,+48V*%
X154940000Y-91440000D03*
%TD*%
%TO.P,R4,1*%
%TO.N,+48V*%
X167640000Y-91440000D03*
D15*
%TO.P,R4,2*%
%TO.N,outRelay2*%
X177800000Y-91440000D03*
%TD*%
%TO.P,R5,2*%
%TO.N,outRelay3*%
X190500000Y-91440000D03*
D14*
%TO.P,R5,1*%
%TO.N,48V_electronics*%
X180340000Y-91440000D03*
%TD*%
D13*
%TO.P,J3,1*%
%TO.N,48V_electronics*%
X177825400Y-60960000D03*
D12*
%TO.P,J3,2*%
%TO.N,GND*%
X182905400Y-60960000D03*
%TD*%
D16*
%TO.N,*%
X190500000Y-60960000D03*
X137160000Y-104140000D03*
D17*
%TO.N,HS*%
X152400000Y-63500000D03*
X152400000Y-74930000D03*
%TO.N,SS*%
X149860000Y-62230000D03*
%TO.N,ORout*%
X168910000Y-66040000D03*
X175260000Y-67310000D03*
%TD*%
D18*
%TO.N,HS*%
X144754600Y-104368600D02*
X144754600Y-102895400D01*
X149860000Y-97790000D02*
X149860000Y-95250000D01*
X144754600Y-102895400D02*
X149860000Y-97790000D01*
X149860000Y-95250000D02*
X152400000Y-92710000D01*
X152400000Y-92710000D02*
X152400000Y-63500000D01*
D19*
%TO.N,+48V*%
X167640000Y-62204600D02*
X166395400Y-60960000D01*
X167640000Y-91440000D02*
X167640000Y-62204600D01*
X154940000Y-72415400D02*
X166395400Y-60960000D01*
X154940000Y-91440000D02*
X154940000Y-72415400D01*
%TO.N,48V_electronics*%
X177825400Y-60960000D02*
X180340000Y-63474600D01*
X180340000Y-63474600D02*
X180340000Y-91440000D01*
D18*
%TO.N,SS*%
X137160000Y-91414600D02*
X139674600Y-91414600D01*
X143510000Y-95250000D02*
X146050000Y-95250000D01*
X139674600Y-91414600D02*
X143510000Y-95250000D01*
X139674600Y-72415400D02*
X149860000Y-62230000D01*
X139674600Y-88900000D02*
X137160000Y-91414600D01*
X139674600Y-72415400D02*
X139674600Y-88900000D01*
%TO.N,ORout*%
X168910000Y-66040000D02*
X173990000Y-66040000D01*
X173990000Y-66040000D02*
X175260000Y-67310000D01*
%TD*%
M02*
