M48
; DRILL file {KiCad (5.1.10)-1} date 01/12/22 13:36:29
; FORMAT={-:-/ absolute / inch / decimal}
; #@! TF.CreationDate,2022-01-12T13:36:29-08:00
; #@! TF.GenerationSoftware,Kicad,Pcbnew,(5.1.10)-1
FMAT,2
INCH
T1C0.0157
T2C0.0315
T3C0.0433
T4C0.0598
T5C0.1378
%
G90
G05
T1
X5.9Y-2.45
X6.0Y-2.5
X6.0Y-2.95
X6.65Y-2.6
X6.9Y-2.65
T2
X5.75Y-3.35
X5.75Y-3.75
X5.9Y-3.35
X5.9Y-3.75
X6.1Y-3.6
X6.5Y-3.6
X6.6Y-3.6
X7.0Y-3.6
X7.1Y-3.6
X7.5Y-3.6
T3
X6.0764Y-3.75
X6.4764Y-3.75
X6.6Y-3.75
X7.0Y-3.75
X7.1197Y-3.75
X7.5197Y-3.75
T4
X5.4Y-3.599
X5.4Y-3.799
X5.7Y-4.1
X5.9Y-4.1
X6.3Y-4.1
X6.5Y-4.1
X6.551Y-2.4
X6.75Y-4.1
X6.751Y-2.4
X6.95Y-4.1
X7.001Y-2.4
X7.2Y-4.1
X7.201Y-2.4
X7.4Y-4.1
T5
X5.4Y-4.1
X7.5Y-2.4
T0
M30
